<?xml version="1.0" standalone="no"?>
<!DOCTYPE svg PUBLIC "-//W3C//DTD SVG 1.1//EN" "http://www.w3.org/Graphics/SVG/1.1/DTD/svg11.dtd" >
<svg>
<metadata>
Created by FontForge 20090914 at Wed May 30 11:51:23 2012
 By www-data
Copyright (c) Irmug.org, 2007. All rights reserved.
</metadata>
<defs>
<font id="Yas" horiz-adv-x="1" >
  <font-face 
    font-family="Yas"
    font-weight="400"
    font-stretch="normal"
    units-per-em="2048"
    panose-1="2 0 5 3 8 0 0 2 0 3"
    ascent="1638"
    descent="-410"
    x-height="920"
    cap-height="1355"
    bbox="-482 -2102 3481 2412"
    underline-thickness="60"
    underline-position="-540"
    unicode-range="U+000D-U+FEFC"
  />
<missing-glyph horiz-adv-x="1122" 
d="M624 299c0 -20 -7.33301 -37.5 -22 -52.5s-32.667 -22.5 -54 -22.5c-20 0 -37.167 7.5 -51.5 22.5s-21.5 32.5 -21.5 52.5c0 21.333 7.16699 39.166 21.5 53.499s32.5 21.5 54.5 21.5c20 0 37.167 -7.16699 51.5 -21.5s21.5 -32.166 21.5 -53.499zM732 780
c0 -28.667 -7.83105 -51.999 -23.498 -69.999s-35.834 -27 -60.501 -27c-21.333 0 -38.333 6.16699 -51 18.5s-19 28.166 -19 47.499c0 14 3.33301 26 10 36s14.167 18.5 22.5 25.5l22.5 18.5c6.66699 5.33301 10 10 10 14c0 13.333 -6.5 24 -19.5 32s-29.5 12 -49.5 12
c-25.333 0 -46 -7 -62 -21s-24 -31.667 -24 -53c0 -12 3.5 -26.667 10.5 -44s14.667 -34.333 23 -51s16.333 -31.667 24 -45s12.167 -21.666 13.5 -24.999c7.33301 -19.333 13.166 -40.833 17.499 -64.5s6.5 -47.167 6.5 -70.5c0 -14 -0.5 -28.167 -1.5 -42.5
s-2.16699 -29.833 -3.5 -46.5h-39v18l4 30c0 22 -15 46 -45 72c-48.667 43.333 -76 68.666 -82 75.999c-30 35.333 -45 75.333 -45 120c0 27.333 5 52.5 15 75.5s23.5 43 40.5 60s37 30.167 60 39.5s47.5 14 73.5 14c23.333 0 45.5 -3.5 66.5 -10.5s39.333 -17 55 -30
s28 -28.667 37 -47s13.5 -38.833 13.5 -61.5zM132.002 31.001h860v1091h-860v-1091zM100.002 0.000976562v1154h922v-1154h-922z" />
    <glyph glyph-name="afii57410" unicode="&#x627;&#x653;" horiz-adv-x="448" 
d="M539 1804c-77.333 -127.333 -197.001 -190.996 -359.001 -190.996h-20.5c-6.33301 0 -13.166 0.333008 -20.499 1c-17.333 1.33301 -37.833 4.33301 -61.5 9s-46 9.66699 -67 15s-38.5 10 -52.5 14s-20.333 6 -19 6c-18 0 -40.333 -12.333 -67 -37
c-8 -7.33301 -14.5 -13 -19.5 -17s-9.16699 -6 -12.5 -6c-5.33301 0 -8 5 -8 15c0 19.333 4.33301 39.166 13 59.499s19.834 39.166 33.501 56.499s29.167 31.5 46.5 42.5s34.666 16.5 51.999 16.5c2.66699 0 11.667 -3 27 -9s34.5 -12.333 57.5 -19
s48.667 -12.834 77 -18.501s57.5 -8.5 87.5 -8.5c110.667 0 206.667 34.667 288 104c24 20 38.667 30 44 30c4 -0.666992 6 -3.33398 6 -8.00098c0 -4 -1.66699 -10.333 -5 -19s-10 -20.667 -20 -36zM290.999 256.004c-4 -34.667 -7.66406 -63.8301 -10.9971 -87.4971
s-7 -44.334 -11 -62.001s-8.5 -33.167 -13.5 -46.5s-11.167 -27 -18.5 -41c-16.667 -38 -28.334 -57 -35.001 -57s-10 14 -10 42v14.5c0 5.66699 0.333008 11.167 1 16.5v80c0 32 -1.16699 70.333 -3.5 115s-5.5 93.667 -9.5 147s-8.66699 109.5 -14 168.5
s-11 118.5 -17 178.5c-6.66699 58.667 -12.667 114.667 -18 168s-10 102 -14 146s-7 81.667 -9 113s-3 54.333 -3 69c10.667 26.667 24.167 57.334 40.5 92.001s34.833 72 55.5 112c10.667 16.667 18.667 25 24 25c4 0 6 -5.33301 6 -16
c0 -19.333 -0.666992 -39.833 -2 -61.5s-2 -44.834 -2 -69.501c0 -58.667 3 -130.834 9 -216.501s14.333 -187.167 25 -304.5c11.333 -118 20.166 -214.167 26.499 -288.5s9.16602 -128.5 8.49902 -162.5c0 -14.667 -0.5 -28.334 -1.5 -41.001s-2.16699 -23.667 -3.5 -33z
" />
    <glyph glyph-name="afii57411" unicode="&#x627;&#x654;" horiz-adv-x="448" 
d="M374 1734c0 -3.33301 -1.50879 -10.0029 -4.50879 -20.0029s-6.66699 -20.333 -11 -31s-8.66602 -20.334 -12.999 -29.001s-7.83301 -13.334 -10.5 -14.001c-35.333 -7.33301 -65.5 -13.833 -90.5 -19.5s-43.167 -10.167 -54.5 -13.5c-34 -10 -65 -21.667 -93 -35
s-53.667 -28 -77 -44c-2 0 -3.5 -0.166992 -4.5 -0.5s-2.16699 -0.833008 -3.5 -1.5c-5.33301 0 -8 3 -8 9c0 4.66699 2.83301 10.834 8.5 18.501s13.334 16.334 23.001 26.001l33 31.5l38.5 35c-58 27.333 -87 59.666 -87 96.999c0 18 6.5 37.167 19.5 57.5
s32.167 42.833 57.5 67.5c50.667 48.667 97.334 73 140.001 73c16 0 31.5 -4.66699 46.5 -14s22.5 -21.333 22.5 -36c0 -9.33301 -1.16699 -18.666 -3.5 -27.999s-5.5 -17.666 -9.5 -24.999s-8.5 -13.333 -13.5 -18s-10.167 -7 -15.5 -7c-4 0 -8.16699 2.33301 -12.5 7
s-9.66602 9.66699 -15.999 15s-13.666 10.333 -21.999 15s-18.166 7 -29.499 7c-8.66699 0 -18.167 -2.16699 -28.5 -6.5s-20.166 -10 -29.499 -17s-17.166 -14.333 -23.499 -22s-9.5 -15.167 -9.5 -22.5c0 -12 3.83301 -22.833 11.5 -32.5s17.667 -18.167 30 -25.5
s26.333 -13 42 -17s31.834 -6 48.501 -6c3.33301 0 12.166 1.33301 26.499 4s29.833 5.83398 46.5 9.50098s32.334 6.83398 47.001 9.50098s24 4 28 4zM286.991 255.997c-4 -34 -7.66797 -62.833 -11.001 -86.5s-6.83301 -44.5 -10.5 -62.5s-7.83398 -33.833 -12.501 -47.5
s-10 -27.167 -16 -40.5c-9.33301 -19.333 -16.666 -33.666 -21.999 -42.999s-10.666 -14 -15.999 -14c-6.66699 0 -10 19 -10 57c0 15.333 0.333008 30.5 1 45.5s1 31.833 1 50.5c0 32 -1.16699 70.333 -3.5 115s-5.33301 93.334 -9 146.001s-8.16699 108.5 -13.5 167.5
l-17 180.5c-6.66699 60 -12.667 116.833 -18 170.5s-9.83301 102.167 -13.5 145.5s-6.5 80.5 -8.5 111.5s-3 53.833 -3 68.5c9.33301 25.333 21.666 54.666 36.999 87.999l55 114c13.333 18 22 27 26 27c4.66699 0 7 -6.66699 7 -20c0 -15.333 -0.666992 -34.666 -2 -57.999
s-2 -46.333 -2 -69c0 -58.667 2.83301 -130.834 8.5 -216.501s13.834 -187.167 24.501 -304.5c22 -234 33 -384.333 33 -451c0 -14.667 -0.5 -28.334 -1.5 -41.001s-2.16699 -23.667 -3.5 -33z" />
    <glyph glyph-name="afii57412" unicode="&#x648;&#x654;" horiz-adv-x="817" 
d="M581 884c0 -3.33301 -1.50391 -10.0029 -4.50391 -20.0029s-6.66699 -20.5 -11 -31.5s-8.66602 -20.833 -12.999 -29.5s-7.83301 -13.334 -10.5 -14.001c-35.333 -7.33301 -65.5 -13.833 -90.5 -19.5s-43.167 -10.167 -54.5 -13.5c-68 -20 -124.667 -46 -170 -78
c-3.33301 -1.33301 -5.33301 -2.16602 -6 -2.49902s-1.33398 -0.5 -2.00098 -0.5c-5.33301 0 -8 3 -8 9c0 7.33301 9.33301 20.833 28 40.5s43.667 43.167 75 70.5c-58 27.333 -87 60 -87 98c0 34.667 25.667 76 77 124c50.667 48.667 97.334 73 140.001 73
c16 0 31.5 -4.66699 46.5 -14s22.5 -21.333 22.5 -36c0 -9.33301 -1.16699 -18.666 -3.5 -27.999s-5.5 -17.666 -9.5 -24.999s-8.5 -13.166 -13.5 -17.499s-10.167 -6.5 -15.5 -6.5c-4 0 -8.16699 2.33301 -12.5 7s-9.66602 9.66699 -15.999 15s-13.666 10.333 -21.999 15
s-18.166 7 -29.499 7c-8 0 -17.333 -2.16699 -28 -6.5s-20.667 -10 -30 -17s-17.166 -14.333 -23.499 -22s-9.5 -15.167 -9.5 -22.5c0 -12 3.83301 -23 11.5 -33s17.667 -18.667 30 -26s26.5 -13 42.5 -17s32 -6 48 -6c3.33301 0 12.166 1.5 26.499 4.5l46.5 9.5l47 9.5
c14.667 3 24 4.5 28 4.5zM533.996 282.997c0 10 -2.83105 21.5039 -8.49805 34.5039s-13.167 25.167 -22.5 36.5s-19.833 21 -31.5 29s-23.5 12 -35.5 12c-8.66699 0 -17.334 -3.33301 -26.001 -10s-16.334 -14.834 -23.001 -24.501s-12 -19.834 -16 -30.501
s-6 -20.334 -6 -29.001c0 -46.667 29 -70 87 -70c9.33301 0 18.833 1.66699 28.5 5s18.5 7.5 26.5 12.5s14.5 10.667 19.5 17s7.5 12.166 7.5 17.499zM660.998 212.001c0 -70.667 -11.001 -140.999 -33.001 -210.999s-56 -140.333 -102 -211
c-46 -74.667 -91.833 -130.167 -137.5 -166.5s-94.167 -54.5 -145.5 -54.5c-56 0 -113 10.833 -171 32.5s-114 52.5 -168 92.5c-5.33301 4 -8 8 -8 12c0 6 5 9 15 9c48.667 -4 93 -6 133 -6c73.333 0 140.5 10.833 201.5 32.5s114.5 52 160.5 91s83.833 85.667 113.5 140
s49.5 114.166 59.5 179.499c-20 -26.667 -41.333 -46.334 -64 -59.001s-48 -19 -76 -19c-21.333 0 -41.666 4 -60.999 12s-36.5 19.667 -51.5 35s-26.833 34 -35.5 56s-13 46.667 -13 74c0 25.333 4.83301 53.833 14.5 85.5s23.167 65.834 40.5 102.501
c44.667 93.333 95.667 140 153 140c24 0 46.667 -9.66699 68 -29s39.833 -45.833 55.5 -79.5s28.167 -72.667 37.5 -117s14 -91.5 14 -141.5z" />
    <glyph glyph-name="afii57413" unicode="&#x627;&#x655;" horiz-adv-x="448" 
d="M419 -384c-9.33301 -31.333 -18.335 -47.998 -27.002 -49.998c-4.66699 -1.33301 -14.5 -3.5 -29.5 -6.5l-47.5 -10l-45 -10c-13.333 -3 -20.666 -4.83301 -21.999 -5.5c-31.333 -10.667 -61.666 -22.5 -90.999 -35.5s-54.666 -27.167 -75.999 -42.5
c-1.33301 -1.33301 -4.33301 -2 -9 -2c-1.33301 0 -3.33301 1 -6 3s-4 3.66699 -4 5l4 9c7.33301 10.667 19.333 24.667 36 42s37.667 36.666 63 57.999c-56 28.667 -84 62 -84 100c0 34.667 24.333 76.334 73 125.001c48 48 95.667 72 143 72
c7.33301 0 14.833 -1.33301 22.5 -4s15 -6.33398 22 -11.001s12.667 -10 17 -16s6.5 -12.333 6.5 -19c0 -9.33301 -1.16699 -18.5 -3.5 -27.5s-5.66602 -17.167 -9.99902 -24.5s-9.16602 -13.333 -14.499 -18s-11 -7 -17 -7c-1.33301 0 -4 2.5 -8 7.5
s-9.16699 10.333 -15.5 16s-13.833 11 -22.5 16s-18.334 7.5 -29.001 7.5s-21.334 -2.66699 -32.001 -8s-20.5 -11.833 -29.5 -19.5s-16.333 -15.667 -22 -24s-8.5 -15.833 -8.5 -22.5c0 -12 4.16699 -22.833 12.5 -32.5s18.833 -18 31.5 -25s26.667 -12.5 42 -16.5
s30 -6 44 -6c3.33301 0 12 1.5 26 4.5l45.5 9.5c16.333 3.33301 31.666 6.66602 45.999 9.99902s23.5 5 27.5 5zM290.998 256.002c-5.33301 -26 -9.50098 -49.332 -12.501 -69.999s-5.16699 -37.667 -6.5 -51c-4.66699 -24 -10.5 -46.667 -17.5 -68
s-14.167 -39.666 -21.5 -54.999s-13.833 -27.5 -19.5 -36.5s-9.5 -13.5 -11.5 -13.5c-7.33301 0 -11 16 -11 48c0 14.667 0.333008 31 1 49s1 36.667 1 56c0 32 -1.16699 70.333 -3.5 115s-5.5 93.667 -9.5 147s-8.66699 109.5 -14 168.5s-11 118.5 -17 178.5
c-6.66699 58.667 -12.667 114.667 -18 168s-10 102 -14 146s-7 81.667 -9 113s-3 54.333 -3 69c10.667 26.667 24.167 57 40.5 91l53.5 111c12 18 20.667 27 26 27c3.33301 0 5 -6 5 -18v-9c0 -18.667 -0.5 -37.667 -1.5 -57s-1.5 -40.333 -1.5 -63
c0 -58.667 2.83301 -130.834 8.5 -216.501s13.834 -187.167 24.501 -304.5c22 -234 33 -384.333 33 -451c0 -14.667 -0.166992 -28.334 -0.5 -41.001s-0.833008 -23.667 -1.5 -33z" />
    <glyph glyph-name="afii57414" unicode="&#x64a;&#x654;" horiz-adv-x="1313" 
d="M307 567c-10 -30 -18.668 -46 -26.001 -48c-30.667 -6 -59.334 -12.167 -86.001 -18.5s-45.667 -11.5 -57 -15.5c-32 -9.33301 -62.167 -20.833 -90.5 -34.5s-54.166 -28.5 -77.499 -44.5c-1.33301 -0.666992 -2.66602 -1.5 -3.99902 -2.5s-2.66602 -1.5 -3.99902 -1.5
c-6 0 -9 4 -9 12c0 3.33301 2.66699 8.66602 8 15.999s12.666 16 21.999 26l32.5 33.5c12.333 12.333 25.5 24.833 39.5 37.5c-57.333 24 -86 55.667 -86 95c0 34 25.333 75.333 76 124c51.333 48 98 72 140 72c8 0 16 -1.16699 24 -3.5s15.5 -5.66602 22.5 -9.99902
s12.667 -9.33301 17 -15s6.5 -12.167 6.5 -19.5s-1.33301 -15.5 -4 -24.5s-6 -17.5 -10 -25.5s-8.5 -14.667 -13.5 -20s-10.167 -8 -15.5 -8c-2.66699 0 -6.33398 2.33301 -11.001 7l-16.5 16c-6.33301 6 -13.833 11.333 -22.5 16s-18.334 7 -29.001 7
c-9.33301 0 -19.166 -2.5 -29.499 -7.5s-20 -11 -29 -18s-16.333 -14.5 -22 -22.5s-8.5 -15 -8.5 -21c0 -12 3.5 -23.167 10.5 -33.5s16.333 -19.333 28 -27s25.334 -13.667 41.001 -18s32.167 -6.5 49.5 -6.5c1.33301 0 9.16602 1.5 23.499 4.5s30 6.5 47 10.5
s32.833 7.5 47.5 10.5s23.334 4.5 26.001 4.5zM1157 650c0 -10 -2.66602 -22.6689 -7.99902 -38.002s-11.833 -30.166 -19.5 -44.499s-15.834 -26.833 -24.501 -37.5s-16.667 -16 -24 -16c-3.33301 0 -14.5 1.5 -33.5 4.5s-42.5 5.16699 -70.5 6.5
c-20.667 0 -43.334 -4.5 -68.001 -13.5s-49.5 -20.833 -74.5 -35.5s-49.167 -31.167 -72.5 -49.5s-44 -37 -62 -56s-32.333 -37.167 -43 -54.5s-16 -32.333 -16 -45c0 -44.667 69 -81.667 207 -111c44 -8.66699 80 -18.167 108 -28.5s50.167 -22.333 66.5 -36
s27.5 -29.5 33.5 -47.5s9 -39.667 9 -65c0 -64.667 -17 -127 -51 -187s-84.333 -117.667 -151 -173c-72 -56.667 -148.5 -99.667 -229.5 -129s-168.167 -44 -261.5 -44c-69.333 0 -130.5 8.66699 -183.5 26s-97.333 42.333 -133 75s-62.5 72 -80.5 118s-27 98 -27 156
c0 183.333 55.667 352.333 167 507c6 7.33301 13.333 11 22 11c9.33301 0 14 -3.33301 14 -10c0 -4 -1.33301 -8 -4 -12c-38.667 -66 -67.667 -131 -87 -195s-29 -126 -29 -186c0 -209.333 123.333 -314 370 -314c58.667 0 116.834 5.5 174.501 16.5
s113.5 26.167 167.5 45.5c33.333 13.333 64.333 29.166 93 47.499s53.834 37.333 75.501 57s38.667 38.834 51 57.501s18.5 35 18.5 49c0 9.33301 -3 18.166 -9 26.499s-15 13.833 -27 16.5c-74.667 14.667 -134.167 27.167 -178.5 37.5s-74.833 18.5 -91.5 24.5
c-82.667 29.333 -124 71.666 -124 126.999c0 136 60 270 180 402c57.333 62.667 111.833 109.334 163.5 140.001s102.167 46 151.5 46c15.333 0 29.666 -1.83301 42.999 -5.5s25 -8.66699 35 -15s18 -13.666 24 -21.999s9 -17.166 9 -26.499z" />
    <glyph glyph-name="uni0681" unicode="&#x62d;&#x654;" horiz-adv-x="1304" 
d="M720 879c-12 -31.333 -20.333 -47.6699 -25 -49.0029c-4.66699 -0.666992 -14.5 -2.66699 -29.5 -6s-30.667 -7 -47 -11l-45 -11c-13.667 -3.33301 -21.167 -5.33301 -22.5 -6c-33.333 -9.33301 -64.666 -20.5 -93.999 -33.5s-54.666 -27.833 -75.999 -44.5
c-0.666992 -0.666992 -2.66699 -1 -6 -1c-6.66699 0 -10 3 -10 9c0 6.66699 10 20.334 30 41.001s44.667 44 74 70c-58.667 26.667 -88 59 -88 97c0 17.333 7.5 37.333 22.5 60s33.5 44.167 55.5 64.5s45.667 37.5 71 51.5s48.333 21 69 21c7.33301 0 15 -1.16699 23 -3.5
s15.167 -5.66602 21.5 -9.99902s11.666 -9.5 15.999 -15.5s6.5 -12.667 6.5 -20c0 -8.66699 -1.16699 -17.667 -3.5 -27s-5.33301 -17.833 -9 -25.5s-8 -14 -13 -19s-10.5 -7.5 -16.5 -7.5c-3.33301 0 -7 2.33301 -11 7s-9.16699 10 -15.5 16s-13.833 11.333 -22.5 16
s-19 7 -31 7c-8.66699 0 -18.334 -2.33301 -29.001 -7s-20.667 -10.5 -30 -17.5s-17 -14.5 -23 -22.5s-9 -15.667 -9 -23c0 -11.333 4.16699 -22 12.5 -32s19 -18.667 32 -26s27.5 -13.166 43.5 -17.499s31.333 -6.5 46 -6.5c2 0 9.83301 1.5 23.5 4.5s28.667 6.5 45 10.5
s32 7.5 47 10.5s24.5 4.5 28.5 4.5zM1291 -735.004c-40 -44 -84.4971 -83.8291 -133.497 -119.496s-102.5 -68.167 -160.5 -97.5c-65.333 -30 -130.833 -52.167 -196.5 -66.5s-131.834 -21.5 -198.501 -21.5c-94 0 -178.333 13 -253 39s-137.834 62.667 -189.501 110
s-91.167 104.166 -118.5 170.499s-41 139.5 -41 219.5c0 82.667 10.5 162.5 31.5 239.5s52.5 151.833 94.5 224.5c46.667 76.667 102.167 145.167 166.5 205.5s138.5 114.166 222.5 161.499c-64 15.333 -114.667 26.5 -152 33.5s-62.333 10.5 -75 10.5
c-61.333 0 -118.666 -30.667 -171.999 -92v1c-5.33301 -9.33301 -11 -14 -17 -14c-6.66699 0 -10 3.33301 -10 10c0 1.33301 0.333008 3 1 5s1 3.66699 1 5c25.333 90.667 61.166 158 107.499 202s102.833 66 169.5 66c3.33301 0 22.166 -3.83301 56.499 -11.5
s79.833 -17.167 136.5 -28.5c60 -13.333 129 -23.333 207 -30s161.333 -10.334 250 -11.001l-70 -180h-29c-60.667 0 -112.167 -1.66699 -154.5 -5s-76.833 -8.66602 -103.5 -15.999c-76.667 -20 -147.5 -50.167 -212.5 -90.5s-124.833 -92.833 -179.5 -157.5
c-110.667 -126.667 -166 -262.667 -166 -408c0 -77.333 13.5 -145.833 40.5 -205.5s66.167 -109.834 117.5 -150.501s114.333 -71.5 189 -92.5s159.667 -31.5 255 -31.5c208 0 396.333 49 565 147c13.333 6.66699 22 10 26 10c5.33301 0 8 -2.66699 8 -8
c0 -4.66699 -4.33301 -12.334 -13 -23.001z" />
    <glyph glyph-name="uni06BE" unicode="&#xfba8;&#x200d;" horiz-adv-x="1269" 
d="M1023 253c0 52 -53 111.667 -159 179c0 -61.333 -18.667 -115.666 -56 -162.999c40 -20.667 74.333 -35.834 103 -45.501s52 -14.5 70 -14.5c28 0 42 14.667 42 44zM777 407c0 11.333 -3.66699 23.332 -11 35.999s-16.5 24.334 -27.5 35.001s-22.667 19.5 -35 26.5
s-23.5 10.5 -33.5 10.5c-10.667 0 -22.5 -4.83301 -35.5 -14.5s-25.167 -21.167 -36.5 -34.5s-20.666 -27.333 -27.999 -42s-11 -27 -11 -37c0 -9.33301 4.83301 -18.666 14.5 -27.999s21.5 -17.833 35.5 -25.5s28.667 -13.834 44 -18.501s28.666 -7 39.999 -7
c10 0 20 2.66699 30 8s19 12.5 27 21.5s14.5 19.5 19.5 31.5s7.5 24.667 7.5 38zM1113 306.999c0 -34 -3.50195 -66 -10.502 -96s-16.5 -56.167 -28.5 -78.5s-26.333 -40 -43 -53s-34.667 -19.5 -54 -19.5c-15.333 0 -45.666 7.33301 -90.999 22s-102.333 35 -171 61
c-26 -33.333 -58.667 -59.666 -98 -78.999s-87.666 -34.833 -144.999 -46.5s-124.666 -21.334 -201.999 -29.001s-167.333 -17.167 -270 -28.5c14 14.667 35 29.334 63 44.001s60 29.167 96 43.5s73.833 28.333 113.5 42l115 41c37 13.667 71 27.167 102 40.5
s55.167 26.333 72.5 39c-32 11.333 -55.5 27.166 -70.5 47.499s-22.5 44.5 -22.5 72.5c0 72 47 157.667 141 257l-26.5 21l-25.5 20l60 144c4 7.33301 8 11 12 11c5.33301 0 10.333 -2.33301 15 -7c29.333 -24 66.666 -52.833 111.999 -86.5l156 -110.5
c63.333 -44.667 112.5 -90 147.5 -136s52.5 -91.333 52.5 -136z" />
    <glyph glyph-name="uni06C0" unicode="&#x647;&#x654;" horiz-adv-x="523" 
d="M312 1152c0 -3.33301 -1.8291 -8.50293 -5.49609 -15.5029s-8 -14 -13 -21s-10.333 -13.167 -16 -18.5s-10.5 -8 -14.5 -8c-2.66699 0.666992 -6.5 1.16699 -11.5 1.5s-10.167 0.833008 -15.5 1.5c-4 0 -11 -2.5 -21 -7.5s-20.333 -11 -31 -18s-20 -13.833 -28 -20.5
s-12 -12 -12 -16c0 -0.666992 1.5 -1.66699 4.5 -3s6.5 -2.66602 10.5 -3.99902s8.33301 -2.66602 13 -3.99902s8.66699 -2.66602 12 -3.99902l12 -4c26.667 -7.33301 47.667 -15.833 63 -25.5s23 -22.167 23 -37.5c0 -26.667 -6.16699 -51.667 -18.5 -75
s-29.5 -43.5 -51.5 -60.5s-47.667 -30.5 -77 -40.5s-61 -15 -95 -15c-28 1.33301 -49.833 4 -65.5 8s-27.334 8.66699 -35.001 14s-12.334 11 -14.001 17s-2.5 11 -2.5 15v7c0 6 0.166992 11 0.5 15s2.66602 7.33301 6.99902 10s11.5 4.5 21.5 5.5s24.667 1.5 44 1.5
c7.33301 0 15.5 -0.333008 24.5 -1s18.167 -1 27.5 -1c17.333 0 35 2 53 6s34.667 9.16699 50 15.5s29 13.5 41 21.5s20.333 16.333 25 25c-28.667 4 -51.834 8.66699 -69.501 14s-31.5 11 -41.5 17s-16.833 12.167 -20.5 18.5s-5.5 12.5 -5.5 18.5
c0 26 5.16699 51.5 15.5 76.5s24 47.333 41 67s36 35.5 57 47.5s42.5 18 64.5 18c36 0 54 -13.667 54 -41zM302.004 246.997c-0.666992 14.667 -3.99902 27.3311 -9.99902 37.998s-16 21.5 -30 32.5s-32.333 23 -55 36l-84 49.5c-18 -29.333 -31.833 -55.666 -41.5 -78.999
s-14.5 -43.666 -14.5 -60.999c0 -51.333 26 -77 78 -77c40.667 0 74.167 5.33301 100.5 16s45.166 25.667 56.499 45zM367.005 335.994c0 -96 -21.3311 -182.333 -63.998 -259c-34.667 -51.333 -89.334 -77 -164.001 -77c-92.667 0 -139 61.667 -139 185
c0 38 7.83301 78.5 23.5 121.5s37.5 86.167 65.5 129.5c-4 3.33301 -8.83301 7 -14.5 11s-10.5 7.66699 -14.5 11c14.667 63.333 26.667 109.333 36 138s15.666 42.667 18.999 42c0 -0.666992 3.5 -3.66699 10.5 -9l26.5 -20.5l36 -27.5l39.5 -30
c13 -10 24.833 -19.5 35.5 -28.5l25 -21.5c52.667 -52.667 79 -107.667 79 -165z" />
    <glyph glyph-name="uni06C2" unicode="&#x6c1;&#x654;" horiz-adv-x="523" 
d="M312 1152c0 -3.33301 -1.8291 -8.50293 -5.49609 -15.5029s-8 -14 -13 -21s-10.333 -13.167 -16 -18.5s-10.5 -8 -14.5 -8c-2.66699 0.666992 -6.5 1.16699 -11.5 1.5s-10.167 0.833008 -15.5 1.5c-4 0 -11 -2.5 -21 -7.5s-20.333 -11 -31 -18s-20 -13.833 -28 -20.5
s-12 -12 -12 -16c0 -0.666992 1.5 -1.66699 4.5 -3s6.5 -2.66602 10.5 -3.99902s8.33301 -2.66602 13 -3.99902s8.66699 -2.66602 12 -3.99902l12 -4c26.667 -7.33301 47.667 -15.833 63 -25.5s23 -22.167 23 -37.5c0 -26.667 -6.16699 -51.667 -18.5 -75
s-29.5 -43.5 -51.5 -60.5s-47.667 -30.5 -77 -40.5s-61 -15 -95 -15c-28 1.33301 -49.833 4 -65.5 8s-27.334 8.66699 -35.001 14s-12.334 11 -14.001 17s-2.5 11 -2.5 15v7c0 6 0.166992 11 0.5 15s2.66602 7.33301 6.99902 10s11.5 4.5 21.5 5.5s24.667 1.5 44 1.5
c7.33301 0 15.5 -0.333008 24.5 -1s18.167 -1 27.5 -1c17.333 0 35 2 53 6s34.667 9.16699 50 15.5s29 13.5 41 21.5s20.333 16.333 25 25c-28.667 4 -51.834 8.66699 -69.501 14s-31.5 11 -41.5 17s-16.833 12.167 -20.5 18.5s-5.5 12.5 -5.5 18.5
c0 26 5.16699 51.5 15.5 76.5s24 47.333 41 67s36 35.5 57 47.5s42.5 18 64.5 18c36 0 54 -13.667 54 -41zM302.004 246.997c-0.666992 14.667 -3.99902 27.3311 -9.99902 37.998s-16 21.5 -30 32.5s-32.333 23 -55 36l-84 49.5c-18 -29.333 -31.833 -55.666 -41.5 -78.999
s-14.5 -43.666 -14.5 -60.999c0 -51.333 26 -77 78 -77c40.667 0 74.167 5.33301 100.5 16s45.166 25.667 56.499 45zM367.005 335.994c0 -96 -21.3311 -182.333 -63.998 -259c-34.667 -51.333 -89.334 -77 -164.001 -77c-92.667 0 -139 61.667 -139 185
c0 38 7.83301 78.5 23.5 121.5s37.5 86.167 65.5 129.5c-4 3.33301 -8.83301 7 -14.5 11s-10.5 7.66699 -14.5 11c14.667 63.333 26.667 109.333 36 138s15.666 42.667 18.999 42c0 -0.666992 3.5 -3.66699 10.5 -9l26.5 -20.5l36 -27.5l39.5 -30
c13 -10 24.833 -19.5 35.5 -28.5l25 -21.5c52.667 -52.667 79 -107.667 79 -165z" />
    <glyph glyph-name="uni06C7" unicode="&#x648;&#x64f;" horiz-adv-x="817" 
d="M413 1016c-5.33301 0 -12.665 -2.16797 -21.998 -6.50098s-18.666 -9.83301 -27.999 -16.5s-17.333 -13.667 -24 -21s-10 -13.666 -10 -18.999c0 -8 1.83301 -16.5 5.5 -25.5s8.16699 -17.333 13.5 -25s11.5 -14.167 18.5 -19.5s13.5 -8 19.5 -8
c7.33301 0 14.166 3.33301 20.499 10s11.666 15.167 15.999 25.5s7.66602 21.5 9.99902 33.5s3.5 23.333 3.5 34c0 24 -7.66699 36.667 -23 38zM516.001 1011c0 -35.333 -6.16895 -68.334 -18.502 -99.001s-30.166 -58 -53.499 -82c6 -4 13.833 -8.83301 23.5 -14.5
s21.167 -11.167 34.5 -16.5l-6 -99c-28 9.33301 -53.167 19.333 -75.5 30s-41.833 23.667 -58.5 39c-56.667 -48.667 -110.167 -85.5 -160.5 -110.5s-97.5 -37.5 -141.5 -37.5c-35.333 0 -53.666 16 -54.999 48c67.333 23.333 126.333 47.333 177 72s91 48.334 121 71.001
c-17.333 17.333 -30.5 35.333 -39.5 54s-13.5 37.667 -13.5 57c0 36.667 22 77 66 121c46.667 46.667 86.667 70 120 70c53.333 0 80 -34.333 80 -103zM533.999 282.998c0 10 -2.83105 21.5039 -8.49805 34.5039s-13.167 25.167 -22.5 36.5s-19.833 21 -31.5 29
s-23.5 12 -35.5 12c-8.66699 0 -17.334 -3.33301 -26.001 -10s-16.334 -14.834 -23.001 -24.501s-12 -19.834 -16 -30.501s-6 -20.334 -6 -29.001c0 -46.667 29 -70 87 -70c9.33301 0 18.833 1.66699 28.5 5s18.5 7.5 26.5 12.5s14.5 10.667 19.5 17s7.5 12.166 7.5 17.499z
M661.001 212.002c0 -70.667 -11.001 -140.999 -33.001 -210.999s-56 -140.333 -102 -211c-46 -74.667 -91.833 -130.167 -137.5 -166.5s-94.167 -54.5 -145.5 -54.5c-56 0 -113 10.833 -171 32.5s-114 52.5 -168 92.5c-5.33301 4 -8 8 -8 12c0 6 5 9 15 9
c48.667 -4 93 -6 133 -6c73.333 0 140.5 10.833 201.5 32.5s114.5 52 160.5 91s83.833 85.667 113.5 140s49.5 114.166 59.5 179.499c-20 -26.667 -41.333 -46.334 -64 -59.001s-48 -19 -76 -19c-21.333 0 -41.666 4 -60.999 12s-36.5 19.667 -51.5 35s-26.833 34 -35.5 56
s-13 46.667 -13 74c0 25.333 4.83301 53.833 14.5 85.5s23.167 65.834 40.5 102.501c44.667 93.333 95.667 140 153 140c24 0 46.667 -9.66699 68 -29s39.833 -45.833 55.5 -79.5s28.167 -72.667 37.5 -117s14 -91.5 14 -141.5z" />
    <glyph glyph-name="uni06C8" unicode="&#x648;&#x670;" horiz-adv-x="817" 
d="M534 283c0 10 -2.83105 21.5039 -8.49805 34.5039s-13.167 25.167 -22.5 36.5s-19.833 21 -31.5 29s-23.5 12 -35.5 12c-8.66699 0 -17.334 -3.33301 -26.001 -10s-16.334 -14.834 -23.001 -24.501s-12 -19.834 -16 -30.501s-6 -20.334 -6 -29.001
c0 -46.667 29 -70 87 -70c9.33301 0 18.833 1.66699 28.5 5s18.5 7.5 26.5 12.5s14.5 10.667 19.5 17s7.5 12.166 7.5 17.499zM661.002 212.004c0 -70.667 -11.001 -140.999 -33.001 -210.999s-56 -140.333 -102 -211c-46 -74.667 -91.833 -130.167 -137.5 -166.5
s-94.167 -54.5 -145.5 -54.5c-56 0 -113 10.833 -171 32.5s-114 52.5 -168 92.5c-5.33301 4 -8 8 -8 12c0 6 5 9 15 9c48.667 -4 93 -6 133 -6c73.333 0 140.5 10.833 201.5 32.5s114.5 52 160.5 91s83.833 85.667 113.5 140s49.5 114.166 59.5 179.499
c-20 -26.667 -41.333 -46.334 -64 -59.001s-48 -19 -76 -19c-21.333 0 -41.666 4 -60.999 12s-36.5 19.667 -51.5 35s-26.833 34 -35.5 56s-13 46.667 -13 74c0 25.333 4.83301 53.833 14.5 85.5s23.167 65.834 40.5 102.501c44.667 93.333 95.667 140 153 140
c24 0 46.667 -9.66699 68 -29s39.833 -45.833 55.5 -79.5s28.167 -72.667 37.5 -117s14 -91.5 14 -141.5zM483.001 823.005c-6.66699 -30 -16.333 -52.666 -29 -67.999s-22 -23 -28 -23c-4.66699 0 -7 8.33301 -7 25c1.33301 3.33301 2 7 2 11v12
c0 10.667 -1.33301 25.834 -4 45.501s-6.16699 41.5 -10.5 65.5l-14 74l-14 71c-4.33301 22 -7.83301 40.833 -10.5 56.5s-4 25.5 -4 29.5c2 3.33301 6.16699 9 12.5 17s13.333 16.167 21 24.5s15.667 15.666 24 21.999s15.833 9.5 22.5 9.5c2 0 3 -2.66699 3 -8
c0 -6.66699 -0.333008 -12.834 -1 -18.501s-1 -12.5 -1 -20.5c0 -10 1 -23.667 3 -41s4.5 -36.333 7.5 -57l9.5 -64l9.5 -61.5c3 -19 5.5 -35.5 7.5 -49.5s3 -23.667 3 -29v-12.5c0 -3.66699 -0.666992 -7.16699 -2 -10.5z" />
    <glyph glyph-name="uni06D3" unicode="&#x6d2;&#x654;" horiz-adv-x="1714" 
d="M88 -588c0 -4 13 -7.83008 39 -11.4971s61.167 -7 105.5 -10s95.666 -5.66699 153.999 -8s120 -4.33301 185 -6s131.333 -3 199 -4s132.834 -1.5 195.501 -1.5c146 0 269.167 1.5 369.5 4.5s174.5 7.5 222.5 13.5c-4 -49.333 -28.333 -87.5 -73 -114.5
s-103 -44.5 -175 -52.5h1c-34 -2.66699 -73.5 -4.83398 -118.5 -6.50098s-92.5 -3.16699 -142.5 -4.5s-101.5 -2.33301 -154.5 -3s-104.5 -1 -154.5 -1c-130 0 -247 0.833008 -351 2.5s-192.667 7.16699 -266 16.5s-129.666 24.166 -168.999 44.499s-59 49.5 -59 87.5
c0 32 6.66699 60 20 84s31.833 45.5 55.5 64.5s51.834 35.833 84.501 50.5s68.167 29 106.5 43l121.5 42.5c42.667 14.333 85.667 30.166 129 47.499c107.333 28.667 200.833 65 280.5 109s148.834 90.667 207.501 140s108.667 99 150 149l107.5 134.5
c30.333 39.667 57.166 72 80.499 97s46 37.5 68 37.5c14 0 28.333 -5.66699 43 -17s30.5 -29.333 47.5 -54s35.667 -56.834 56 -96.501s43.166 -87.834 68.499 -144.501c-4.66699 -7.33301 -9.5 -12.5 -14.5 -15.5s-10.167 -4.5 -15.5 -4.5
c-12.667 0 -25.834 7.33301 -39.501 22s-27.5 30.834 -41.5 48.501s-28.5 33.834 -43.5 48.501s-30.167 22 -45.5 22c-34 0 -61.667 -4.5 -83 -13.5s-40.5 -21.833 -57.5 -38.5s-33.333 -36.5 -49 -59.5s-34.834 -48.5 -57.501 -76.5s-50.5 -58.167 -83.5 -90.5
s-75.167 -66 -126.5 -101s-113.666 -71 -186.999 -108s-161.333 -73.833 -264 -110.5l-123 -42c-39.333 -14 -74 -27.833 -104 -41.5s-54 -26.667 -72 -39s-27 -23.5 -27 -33.5zM1278 543.003c-36 -6.66699 -66 -12.502 -90 -17.502s-42.333 -9.83301 -55 -14.5
c-31.333 -12 -61.166 -24.5 -89.499 -37.5s-53.833 -27.5 -76.5 -43.5c-1.33301 -0.666992 -2.83301 -1.33398 -4.5 -2.00098s-3.16699 -1 -4.5 -1c-6 0 -9 3.66699 -9 11c0 4 3 10 9 18s13.667 17 23 27s20.166 21 32.499 33l37.5 36c-56.667 23.333 -85 54.666 -85 93.999
c0 12 3.33301 25.167 10 39.5s15.834 28.833 27.501 43.5s24.834 28.834 39.501 42.501s30 25.834 46 36.501s32 19.167 48 25.5s30.667 9.5 44 9.5c8 0 16.167 -1.16699 24.5 -3.5s16 -5.66602 23 -9.99902s12.667 -9.5 17 -15.5s6.5 -12.667 6.5 -20
s-1.33301 -15.333 -4 -24s-6 -16.834 -10 -24.501s-8.5 -14.167 -13.5 -19.5s-10.167 -8 -15.5 -8c-2.66699 0 -6.33398 2.33301 -11.001 7s-10.167 9.83398 -16.5 15.501s-14 10.834 -23 15.501s-19.167 7 -30.5 7c-10 0 -20.167 -2.33301 -30.5 -7
s-19.833 -10.5 -28.5 -17.5s-15.834 -14.5 -21.501 -22.5s-8.5 -15.667 -8.5 -23c0 -12 3.66699 -23.167 11 -33.5s17.166 -19.333 29.499 -27s26.333 -13.5 42 -17.5s31.5 -6 47.5 -6c2.66699 0 11.167 1.5 25.5 4.5l46.5 10l47 10c14.667 3 23.334 4.5 26.001 4.5z" />
    <glyph glyph-name="uni06C2.fin" unicode="&#xfba7;&#x654;" horiz-adv-x="634" 
d="M374 957c0 -4 -1.66602 -9.50098 -4.99902 -16.501s-7.5 -14.167 -12.5 -21.5s-10.167 -13.666 -15.5 -18.999s-10.333 -8 -15 -8c-2.66699 0.666992 -6.5 1.16699 -11.5 1.5s-10.167 0.833008 -15.5 1.5c-4 0 -11 -2.5 -21 -7.5s-20.333 -11 -31 -18
s-20 -13.833 -28 -20.5s-12 -12 -12 -16c0 -0.666992 1.66699 -1.5 5 -2.5l11.5 -3.5l13 -4c4.33301 -1.33301 7.5 -2.66602 9.5 -3.99902l12 -4c27.333 -7.33301 48.833 -15.833 64.5 -25.5s23.5 -22.167 23.5 -37.5c0 -26.667 -6.16699 -51.667 -18.5 -75
s-29.5 -43.5 -51.5 -60.5s-47.833 -30.5 -77.5 -40.5s-61.834 -15 -96.501 -15c-27.333 1.33301 -48.833 4 -64.5 8s-27.334 8.66699 -35.001 14s-12.334 11 -14.001 17s-2.5 11 -2.5 15v7c0 6 0.166992 11.167 0.5 15.5s2.83301 7.66602 7.5 9.99902s12 4.16602 22 5.49902
s24.333 2 43 2c7.33301 0 15.333 -0.333008 24 -1s17.667 -1 27 -1c18 0 35.833 1.83301 53.5 5.5s34.334 8.66699 50.001 15s29.334 13.5 41.001 21.5s19.834 16.333 24.501 25c-28 4 -50.833 8.5 -68.5 13.5s-31.5 10.5 -41.5 16.5s-16.833 12.167 -20.5 18.5
s-5.5 12.833 -5.5 19.5c0 26 5.16699 51.333 15.5 76s24 46.834 41 66.501s36.167 35.5 57.5 47.5s42.666 18 63.999 18c18 0 31.333 -3 40 -9s13 -16 13 -30zM666.001 -0.000976562l-74 0.000976562c-48 -0 -118.333 45.333 -211 136c-44.667 46 -82 69 -112 69
c-14 0 -28 -6.66699 -42 -20s-25.667 -32.333 -35 -57l-55 -148c-18 -48.667 -37.333 -93.667 -58 -135l-79 -34c35.333 140.667 84.333 292 147 454c38.667 100.667 82.334 151 131.001 151c16.667 0 34.167 -6.33301 52.5 -19s36.166 -29.334 53.499 -50.001
c44 -54.667 87.5 -96.667 130.5 -126s82.5 -44 118.5 -44h33v-177z" />
    <glyph glyph-name="uni0681.fin" unicode="&#xfea2;&#x654;" horiz-adv-x="1145" 
d="M720 879c-12 -31.333 -20.333 -47.6699 -25 -49.0029c-4.66699 -0.666992 -14.5 -2.66699 -29.5 -6s-30.667 -7 -47 -11l-45 -11c-13.667 -3.33301 -21.167 -5.33301 -22.5 -6c-33.333 -9.33301 -64.666 -20.5 -93.999 -33.5s-54.666 -27.833 -75.999 -44.5
c-0.666992 -0.666992 -2.66699 -1 -6 -1c-6.66699 0 -10 3 -10 9c0 6.66699 10 20.334 30 41.001s44.667 44 74 70c-58.667 26.667 -88 59 -88 97c0 17.333 7.5 37.333 22.5 60s33.5 44.167 55.5 64.5s45.667 37.5 71 51.5s48.333 21 69 21c7.33301 0 15 -1.16699 23 -3.5
s15.167 -5.66602 21.5 -9.99902s11.666 -9.5 15.999 -15.5s6.5 -12.667 6.5 -20c0 -8.66699 -1.16699 -17.667 -3.5 -27s-5.33301 -17.833 -9 -25.5s-8 -14 -13 -19s-10.5 -7.5 -16.5 -7.5c-3.33301 0 -7 2.33301 -11 7s-9.16699 10 -15.5 16s-13.833 11.333 -22.5 16
s-19 7 -31 7c-8.66699 0 -18.334 -2.33301 -29.001 -7s-20.667 -10.5 -30 -17.5s-17 -14.5 -23 -22.5s-9 -15.667 -9 -23c0 -11.333 4.16699 -22 12.5 -32s19 -18.667 32 -26s27.5 -13.166 43.5 -17.499s31.333 -6.5 46 -6.5c2 0 9.83301 1.5 23.5 4.5s28.667 6.5 45 10.5
s32 7.5 47 10.5s24.5 4.5 28.5 4.5zM1291 -735.004c-40 -44 -84.4971 -83.8291 -133.497 -119.496s-102.5 -68.167 -160.5 -97.5c-65.333 -30 -130.833 -52.167 -196.5 -66.5s-131.834 -21.5 -198.501 -21.5c-94 0 -178.333 13 -253 39s-137.834 62.667 -189.501 110
s-91.167 104.166 -118.5 170.499s-41 139.5 -41 219.5c0 165.333 42.667 320.333 128 465c46 75.333 101.167 143.166 165.5 203.499s138.166 114.5 221.499 162.5c-64 15.333 -114.667 26.5 -152 33.5s-62.333 10.5 -75 10.5c-61.333 0 -118.666 -30.667 -171.999 -92v1
c-5.33301 -9.33301 -11 -14 -17 -14c-6.66699 0 -10 3.33301 -10 10c0 1.33301 0.333008 3 1 5s1 3.66699 1 5c50.667 170.667 143 256 277 256c2 0 64.667 -13.333 188 -40c121.333 -26.667 275.333 -40 462 -40l-70 -169c-102 0 -153 -20.333 -153 -61
c0 -38.667 58.667 -58 176 -58h206v-177h-179c-46 0 -85.333 5.33301 -118 16s-59.5 27.5 -80.5 50.5s-36.667 52.833 -47 89.5s-16.5 81 -18.5 133c-9.33301 -2 -20 -4.16699 -32 -6.5s-25.667 -4.5 -41 -6.5c-74.667 -21.333 -145 -53 -211 -95
s-126.333 -95.333 -181 -160c-110.667 -128.667 -166 -262.667 -166 -402c0 -77.333 14 -145.833 42 -205.5s68.167 -109.834 120.5 -150.501s115.666 -71.5 189.999 -92.5s157.5 -31.5 249.5 -31.5c208 0 396.333 49 565 147c13.333 6.66699 22 10 26 10
c5.33301 0 8 -2.66699 8 -8c0 -4.66699 -4.33301 -12.334 -13 -23.001z" />
    <glyph glyph-name="uni0681.ini" unicode="&#xfea3;&#x654;" horiz-adv-x="1141" 
d="M636 923c-12 -30.667 -20.001 -46.668 -24.001 -48.001c-4.66699 -0.666992 -14.5 -2.83398 -29.5 -6.50098l-47.5 -11.5l-45.5 -10.5c-13.667 -3 -21.167 -4.83301 -22.5 -5.5c-32.667 -9.33301 -63.5 -20.666 -92.5 -33.999s-54.167 -28.333 -75.5 -45
c-0.666992 -0.666992 -2.66699 -1 -6 -1c-7.33301 0 -11 3.33301 -11 10s9.83301 20.334 29.5 41.001s44.5 44 74.5 70c-30 13.333 -52 27.833 -66 43.5s-21 33.167 -21 52.5c0 17.333 7.33301 37.5 22 60.5s33 44.667 55 65s45.5 37.5 70.5 51.5s47.833 21 68.5 21
c7.33301 0 15 -1.16699 23 -3.5s15.333 -5.83301 22 -10.5s12 -10 16 -16s6 -12.667 6 -20c0 -8.66699 -1 -17.5 -3 -26.5s-4.83301 -17.333 -8.5 -25s-8 -14 -13 -19s-10.5 -7.5 -16.5 -7.5c-3.33301 0 -7.16602 2.33301 -11.499 7l-15.5 16c-6 6 -13.333 11.333 -22 16
s-19 7 -31 7c-9.33301 0 -19.333 -2.33301 -30 -7s-20.667 -10.667 -30 -18s-17 -15 -23 -23s-9 -15.667 -9 -23c0 -12 4.33301 -23 13 -33s19.667 -18.5 33 -25.5s28 -12.5 44 -16.5s31 -6 45 -6c2 0 9.83301 1.5 23.5 4.5l45 10c16.333 3.66699 32 7 47 10
s24.5 4.5 28.5 4.5zM915.999 295.999c-83.333 0 -138.996 -4.33301 -166.996 -13c-39.333 -10.667 -86.833 -30 -142.5 -58s-121.834 -66 -198.501 -114c-29.333 -18.667 -58 -34.834 -86 -48.501s-56.5 -25.167 -85.5 -34.5s-59.333 -16.333 -91 -21
s-65.834 -7 -102.501 -7h-75v177h33c78 0 146.667 6.16699 206 18.5s115.666 28.833 168.999 49.5l121 51.5c39.333 17 79.333 33.167 120 48.5c-6.66699 2.66699 -18.834 7.16699 -36.501 13.5l-61 22l-72 26l-70 25l-55.5 19c-15.333 5 -25 7.5 -29 7.5
c-39.333 0 -82 -21 -128 -63c-4.66699 -6 -9.66699 -9 -15 -9c-4 0 -7.16699 1.66699 -9.5 5s-3.5 7.33301 -3.5 12s1 9.33398 3 14.001c57.333 131.333 129.333 197 216 197c35.333 0 80.333 -14.667 135 -44c38 -20.667 71.167 -37.667 99.5 -51s53.833 -23.333 76.5 -30
c48.667 -13.333 98.5 -24.333 149.5 -33s107.167 -13 168.5 -13z" />
    <glyph glyph-name="uni0681.med" unicode="&#xfea4;&#x654;" horiz-adv-x="1149" 
d="M636 923c-12 -30.667 -20.001 -46.668 -24.001 -48.001c-4.66699 -0.666992 -14.5 -2.83398 -29.5 -6.50098l-47.5 -11.5l-45.5 -10.5c-13.667 -3 -21.167 -4.83301 -22.5 -5.5c-32.667 -9.33301 -63.5 -20.666 -92.5 -33.999s-54.167 -28.333 -75.5 -45
c-0.666992 -0.666992 -2.66699 -1 -6 -1c-7.33301 0 -11 3.33301 -11 10s9.83301 20.334 29.5 41.001s44.5 44 74.5 70c-30 13.333 -52 27.833 -66 43.5s-21 33.167 -21 52.5c0 17.333 7.33301 37.5 22 60.5s33 44.667 55 65s45.5 37.5 70.5 51.5s47.833 21 68.5 21
c7.33301 0 15 -1.16699 23 -3.5s15.333 -5.83301 22 -10.5s12 -10 16 -16s6 -12.667 6 -20c0 -8.66699 -1 -17.5 -3 -26.5s-4.83301 -17.333 -8.5 -25s-8 -14 -13 -19s-10.5 -7.5 -16.5 -7.5c-3.33301 0 -7.16602 2.33301 -11.499 7l-15.5 16c-6 6 -13.333 11.333 -22 16
s-19 7 -31 7c-9.33301 0 -19.333 -2.33301 -30 -7s-20.667 -10.667 -30 -18s-17 -15 -23 -23s-9 -15.667 -9 -23c0 -12 4.33301 -23 13 -33s19.667 -18.5 33 -25.5s28 -12.5 44 -16.5s31 -6 45 -6c2 0 9.83301 1.5 23.5 4.5l45 10c16.333 3.66699 32 7 47 10
s24.5 4.5 28.5 4.5zM1180 -0.000976562h-74c-156 0 -255.667 18.667 -299 56c-21.333 19.333 -37.833 48.5 -49.5 87.5s-18.167 83.5 -19.5 133.5c-32 -9.33301 -75.5 -28 -130.5 -56s-120.833 -66 -197.5 -114c-28.667 -18 -56.834 -33.833 -84.501 -47.5
s-56 -24.834 -85 -33.501s-59.667 -15.167 -92 -19.5s-67.5 -6.5 -105.5 -6.5h-75v177h33c40 0 77.167 1.5 111.5 4.5s67 7.5 98 13.5s60.667 13.167 89 21.5s56.5 17.833 84.5 28.5l121 51l121 49c-13.333 3.33301 -34.833 10.166 -64.5 20.499
s-67.167 24.166 -112.5 41.499c-44.667 16.667 -80.667 29.334 -108 38.001s-46.666 13 -57.999 13c-40.667 0 -83 -21 -127 -63c-4.66699 -6 -9.66699 -9 -15 -9c-10.667 0 -16 7 -16 21c0 6.66699 0.333008 10.334 1 11.001v-1c30 66.667 62.833 116.334 98.5 149.001
s75.5 49 119.5 49c17.333 0 38.5 -4.5 63.5 -13.5s52.833 -21.167 83.5 -36.5c41.333 -19.333 79.5 -36 114.5 -50s63.833 -24.667 86.5 -32c92 -32 202.333 -48 331 -48l-72 -153c-100 0 -150 -17.333 -150 -52c0 -35.333 69 -53 207 -53h172v-177z" />
    <glyph glyph-name="uni06CC_uni0659" unicode="&#x6cc;&#x659;" horiz-adv-x="1313" 
d="M321 984c68 -2 128.667 -5.33594 182 -10.0029c22.667 -2 44.834 -4.33301 66.501 -7s41 -5.5 58 -8.5s30.667 -6.5 41 -10.5s15.5 -8.66699 15.5 -14c0 -3.33301 -3.5 -7.16602 -10.5 -11.499s-19.5 -9.16602 -37.5 -14.499
c-102.667 -11.333 -188.5 -19.166 -257.5 -23.499s-124.833 -6.5 -167.5 -6.5c-40 0 -69 1.83301 -87 5.5s-27 8.83398 -27 15.501c0 5.33301 6 11.666 18 18.999s28.167 14.666 48.5 21.999s44.166 14.833 71.499 22.5s56 14.834 86 21.501zM1157 649.997
c0 -10 -2.66602 -22.6689 -7.99902 -38.002s-11.833 -30.166 -19.5 -44.499s-15.834 -26.833 -24.501 -37.5s-16.667 -16 -24 -16c-3.33301 0 -14.5 1.5 -33.5 4.5s-42.5 5.16699 -70.5 6.5c-20.667 0 -43.334 -4.5 -68.001 -13.5s-49.5 -20.833 -74.5 -35.5
s-49.167 -31.167 -72.5 -49.5s-44 -37 -62 -56s-32.333 -37.167 -43 -54.5s-16 -32.333 -16 -45c0 -44.667 69 -81.667 207 -111c44 -8.66699 80 -18.167 108 -28.5s50.167 -22.333 66.5 -36s27.5 -29.5 33.5 -47.5s9 -39.667 9 -65c0 -64.667 -17 -127 -51 -187
s-84.333 -117.667 -151 -173c-72 -56.667 -148.5 -99.667 -229.5 -129s-168.167 -44 -261.5 -44c-69.333 0 -130.5 8.66699 -183.5 26s-97.333 42.333 -133 75s-62.5 72 -80.5 118s-27 98 -27 156c0 183.333 55.667 352.333 167 507c6 7.33301 13.333 11 22 11
c9.33301 0 14 -3.33301 14 -10c0 -4 -1.33301 -8 -4 -12c-38.667 -66 -67.667 -131 -87 -195s-29 -126 -29 -186c0 -209.333 123.333 -314 370 -314c58.667 0 116.834 5.5 174.501 16.5s113.5 26.167 167.5 45.5c33.333 13.333 64.333 29.166 93 47.499
s53.834 37.333 75.501 57s38.667 38.834 51 57.501s18.5 35 18.5 49c0 9.33301 -3 18.166 -9 26.499s-15 13.833 -27 16.5c-74.667 14.667 -134.167 27.167 -178.5 37.5s-74.833 18.5 -91.5 24.5c-82.667 29.333 -124 71.666 -124 126.999c0 136 60 270 180 402
c57.333 62.667 111.833 109.334 163.5 140.001s102.167 46 151.5 46c15.333 0 29.666 -1.83301 42.999 -5.5s25 -8.66699 35 -15s18 -13.666 24 -21.999s9 -17.166 9 -26.499z" />
    <glyph glyph-name="uni06CC_uni0659.fin" unicode="&#xfbfd;&#x659;" horiz-adv-x="1134" 
d="M321 735c68 -2 128.667 -5.33789 182 -10.0049c22.667 -2 44.834 -4.33301 66.501 -7s41 -5.66699 58 -9s30.667 -7 41 -11s15.5 -8.66699 15.5 -14c0 -3.33301 -3.5 -7.16602 -10.5 -11.499s-19.5 -9.16602 -37.5 -14.499
c-102.667 -11.333 -188.5 -19.166 -257.5 -23.499s-124.833 -6.5 -167.5 -6.5c-40 0 -69 1.83301 -87 5.5s-27 9.16699 -27 16.5c0 5.33301 6 11.5 18 18.5s28.167 14.333 48.5 22s44.166 15.334 71.499 23.001s56 14.834 86 21.501zM1165 -0.00488281l-31.9941 0.000976562
c-97.333 0 -176.333 -1.33301 -237 -4s-107.834 -6.16699 -141.501 -10.5s-56.334 -9.5 -68.001 -15.5s-17.5 -12 -17.5 -18c1.33301 -11.333 13 -20.666 35 -27.999l115 -28.5c38.667 -9.66699 76.667 -19.834 114 -30.501c57.333 -14.667 86 -48.334 86 -101.001
c0 -27.333 -6.83301 -54.833 -20.5 -82.5s-31.834 -54.667 -54.501 -81s-48.834 -51.333 -78.501 -75s-60.5 -44.834 -92.5 -63.501c-60.667 -35.333 -124 -61.333 -190 -78s-136.333 -25 -211 -25c-282.667 0 -424 121.333 -424 364c0 177.333 56.333 330.333 169 459
c5.33301 5.33301 11.333 8 18 8c9.33301 0 14 -3.66699 14 -11c0 -0.666992 -0.333008 -2 -1 -4s-1.33398 -3.66699 -2.00098 -5c-40 -60.667 -69.833 -119.834 -89.5 -177.501s-29.5 -112.167 -29.5 -163.5c0 -195.333 131.333 -293 394 -293
c93.333 0 179.333 12.5 258 37.5s150 61.833 214 110.5c4 3.33301 8 7.33301 12 12s6 8.33398 6 11.001c0 3.33301 -2.33301 6.83301 -7 10.5s-10.667 6.16699 -18 7.5c-6.66699 2 -19.334 5.33301 -38.001 10l-60 14.5l-60 14c-18.667 4.33301 -31.667 7.5 -39 9.5
c-87.333 22 -131 66 -131 132c0 65.333 25.167 119.333 75.5 162s118.833 73.334 205.5 92.001c60 12 144 18 252 18h74v-177z" />
    <glyph glyph-name="uni06CC_uni0659.ini" unicode="&#xfbfe;&#x659;" horiz-adv-x="528" 
d="M77 939c68 -2 128.668 -5.33789 182.001 -10.0049c22.667 -2 44.834 -4.33301 66.501 -7s41 -5.66699 58 -9s30.667 -7 41 -11s15.5 -8.66699 15.5 -14c0 -3.33301 -3.5 -7.16602 -10.5 -11.499s-19.167 -9.16602 -36.5 -14.499
c-102.667 -11.333 -188.834 -19.166 -258.501 -23.499s-125.834 -6.5 -168.501 -6.5c-40.667 0 -70 1.83301 -88 5.5s-27 9.16699 -27 16.5c0 5.33301 6 11.5 18 18.5s28.333 14.333 49 22s44.667 15.334 72 23.001s56.333 14.834 87 21.501zM392.001 -398.005
c0 -17.333 -40.332 -57.001 -120.999 -119.001l-48.5 46.5l-66.5 60.5l-50.5 -53.5l-65.5 -64.5c-36 48 -78 89.667 -126 125l121 126c17.333 -10 36.666 -24.667 57.999 -44s43.333 -43 66 -71l54.5 58.5l53.5 56.5c14.667 -7.33301 29.5 -16.833 44.5 -28.5
s28.5 -23.667 40.5 -36s21.667 -23.666 29 -33.999s11 -17.833 11 -22.5zM372.002 298.994c0 -42.667 -4.83398 -82.332 -14.501 -118.999s-26.834 -68.334 -51.501 -95.001s-58.167 -47.5 -100.5 -62.5s-96.5 -22.5 -162.5 -22.5h-75v177h33c82 0 148.333 4.16699 199 12.5
s85.334 20.166 104.001 35.499c-0.666992 10 -4 22.167 -10 36.5s-13.833 29 -23.5 44s-20.667 29.333 -33 43s-25.166 24.834 -38.499 33.501l65 188c2 6.66699 5 10 9 10c2 0 5.33301 -1.66699 10 -5c59.333 -69.333 89 -161.333 89 -276z" />
    <glyph glyph-name="uni06CC_uni0659.med" unicode="&#xfbff;&#x659;" horiz-adv-x="588" 
d="M77 939c68 -2 128.67 -5.33789 182.003 -10.0049c22.667 -2 44.834 -4.33301 66.501 -7s41 -5.66699 58 -9s30.667 -7 41 -11s15.5 -8.66699 15.5 -14c0 -3.33301 -3.5 -7.16602 -10.5 -11.499s-19.167 -9.16602 -36.5 -14.499
c-102.667 -11.333 -188.834 -19.166 -258.501 -23.499s-125.834 -6.5 -168.501 -6.5c-40.667 0 -69.834 1.83301 -87.501 5.5s-26.5 9.16699 -26.5 16.5c0 5.33301 6 11.5 18 18.5s28.167 14.333 48.5 22s44.166 15.334 71.499 23.001s56.333 14.834 87 21.501z
M392.003 -398.005c0 -17.333 -40.332 -57.001 -120.999 -119.001l-48.5 46.5l-66.5 60.5l-50.5 -53.5l-65.5 -64.5c-36 48 -78 89.667 -126 125l121 126c17.333 -10 36.666 -24.667 57.999 -44s43.333 -43 66 -71l54.5 58.5l53.5 56.5c14 -7.33301 28.333 -16.833 43 -28.5
s28.167 -23.667 40.5 -36s22.333 -23.666 30 -33.999s11.5 -17.833 11.5 -22.5zM618.004 -0.00585938l-73.002 -0.000976562c-131.333 0 -208 41 -230 123c-22 -42 -55.5 -73 -100.5 -93s-102.167 -30 -171.5 -30h-75v177h33c172.667 0 283.334 61.333 332.001 184
c22.667 17.333 35.334 26 38.001 26v-2c-1.33301 0 -2 -0.666992 -2 -2c0 -3.33301 4 -11.666 12 -24.999c-2 -22 -3 -41.667 -3 -59c0 -44.667 9 -72.667 27 -84c25.333 -16.667 53 -27.167 83 -31.5s63 -6.5 99 -6.5h31v-177z" />
    <glyph glyph-name="afii57448_uni0659" unicode="&#x648;&#x659;" horiz-adv-x="817" 
d="M332 933c67.333 -2.66699 127.667 -6.33789 181 -11.0049c22.667 -2 44.834 -4.33301 66.501 -7s41 -5.5 58 -8.5s30.667 -6.5 41 -10.5s15.5 -8.66699 15.5 -14c0 -3.33301 -3.5 -7.16602 -10.5 -11.499s-19.167 -9.16602 -36.5 -14.499
c-102 -11.333 -187.833 -19.166 -257.5 -23.499s-125.834 -6.5 -168.501 -6.5c-40.667 0 -70 1.83301 -88 5.5s-27 8.83398 -27 15.501c0 5.33301 6 11.666 18 18.999s28.333 14.833 49 22.5s44.667 15.334 72 23.001s56.333 14.834 87 21.501zM534.001 282.996
c0 10 -2.83105 21.5039 -8.49805 34.5039s-13.167 25.167 -22.5 36.5s-19.833 21 -31.5 29s-23.5 12 -35.5 12c-8.66699 0 -17.334 -3.33301 -26.001 -10s-16.334 -14.834 -23.001 -24.501s-12 -19.834 -16 -30.501s-6 -20.334 -6 -29.001c0 -46.667 29 -70 87 -70
c9.33301 0 18.833 1.66699 28.5 5s18.5 7.5 26.5 12.5s14.5 10.667 19.5 17s7.5 12.166 7.5 17.499zM661.003 212c0 -70.667 -11.001 -140.999 -33.001 -210.999s-56 -140.333 -102 -211c-46 -74.667 -91.833 -130.167 -137.5 -166.5s-94.167 -54.5 -145.5 -54.5
c-56 0 -113 10.833 -171 32.5s-114 52.5 -168 92.5c-5.33301 4 -8 8 -8 12c0 6 5 9 15 9c48.667 -4 93 -6 133 -6c73.333 0 140.5 10.833 201.5 32.5s114.5 52 160.5 91s83.833 85.667 113.5 140s49.5 114.166 59.5 179.499c-20 -26.667 -41.333 -46.334 -64 -59.001
s-48 -19 -76 -19c-21.333 0 -41.666 4 -60.999 12s-36.5 19.667 -51.5 35s-26.833 34 -35.5 56s-13 46.667 -13 74c0 25.333 4.83301 53.833 14.5 85.5s23.167 65.834 40.5 102.501c44.667 93.333 95.667 140 153 140c24 0 46.667 -9.66699 68 -29
s39.833 -45.833 55.5 -79.5s28.167 -72.667 37.5 -117s14 -91.5 14 -141.5z" />
    <glyph glyph-name="afii57448_uni0659.fin" unicode="&#xfeee;&#x659;" horiz-adv-x="713" 
d="M459 176c11.333 0 22.333 0.501953 33 1.50195s21 2.16699 31 3.5c-4 20 -10.167 38.167 -18.5 54.5s-17.5 30.166 -27.5 41.499s-20.333 20.166 -31 26.499s-20.667 9.5 -30 9.5c-59.333 0 -89 -30.667 -89 -92c0 -24.667 28.333 -39 85 -43h5
c7.33301 -0.666992 14.5 -1.16699 21.5 -1.5s13.833 -0.5 20.5 -0.5zM279 933.002c68 -2.66699 128.667 -6.33789 182 -11.0049c22.667 -2 45 -4.33301 67 -7s41.5 -5.5 58.5 -8.5s30.667 -6.5 41 -10.5s15.5 -8.66699 15.5 -14c0 -3.33301 -3.66699 -7.16602 -11 -11.499
s-19.666 -9.16602 -36.999 -14.499c-102 -11.333 -187.833 -19.166 -257.5 -23.499s-125.834 -6.5 -168.501 -6.5c-40.667 0 -70 1.83301 -88 5.5s-27 8.83398 -27 15.501c0 5.33301 6 11.666 18 18.999s28.333 14.833 49 22.5s44.667 15.334 72 23.001s56 14.834 86 21.501
zM744 -0.00195312l-141.003 0.000976562c-10 -62.667 -26 -122.834 -48 -180.501s-50.333 -112.834 -85 -165.501c-81.333 -126 -169.666 -189 -264.999 -189c-106.667 0 -223 39.667 -349 119h1c-8.66699 4.66699 -13 11.334 -13 20.001c0 10 5.66699 15 17 15
c28 -2.66699 54 -4.5 78 -5.5s47.333 -1.5 70 -1.5c78 0 147.333 10 208 30s111.334 49 152.001 87c36 36 67.667 76.833 95 122.5s47.666 93.167 60.999 142.5c-40 0.666992 -77.5 3 -112.5 7s-61.167 9.66699 -78.5 17c-25.333 12 -45.166 29.667 -59.499 53
s-21.5 52.333 -21.5 87c0 66.667 17.333 135 52 205c21.333 42 44.666 73.167 69.999 93.5s52 30.5 80 30.5c17.333 0 34 -7.83301 50 -23.5s30.833 -37.167 44.5 -64.5s25.334 -60 35.001 -98s16.834 -79.333 21.501 -124h138v-177z" />
    <glyph glyph-name="uni06CC_uni0654" unicode="&#x6cc;&#x654;" horiz-adv-x="1313" 
d="M345 993c0 -3.33301 -1.66211 -8.66895 -4.99512 -16.002s-7.5 -14.5 -12.5 -21.5s-10.333 -13.167 -16 -18.5s-10.5 -8 -14.5 -8c-2.66699 0.666992 -6.83398 1.16699 -12.501 1.5s-11.167 0.833008 -16.5 1.5c-4 0 -11 -2.5 -21 -7.5s-20.167 -10.833 -30.5 -17.5
s-19.666 -13.5 -27.999 -20.5s-12.5 -12.5 -12.5 -16.5c0 -0.666992 1.66699 -1.5 5 -2.5s7.16602 -2.33301 11.499 -4s8.66602 -3.16699 12.999 -4.5s7.5 -2.33301 9.5 -3l12 -5c28 -7.33301 49.667 -15.833 65 -25.5s23 -22.167 23 -37.5
c0 -26.667 -6.16699 -51.5 -18.5 -74.5s-29.5 -43 -51.5 -60s-47.833 -30.5 -77.5 -40.5s-61.834 -15 -96.501 -15c-27.333 1.33301 -48.833 4 -64.5 8s-27.334 8.66699 -35.001 14s-12.334 10.833 -14.001 16.5s-2.5 10.5 -2.5 14.5v7c0 6 0.333008 11.167 1 15.5
s3.16699 7.83301 7.5 10.5s11.666 4.5 21.999 5.5s25.166 1.5 44.499 1.5c7.33301 0 15 -0.333008 23 -1s17.333 -1 28 -1c17.333 0 34.833 2 52.5 6s34.334 9.16699 50.001 15.5s29.334 13.5 41.001 21.5s20.167 16.333 25.5 25c-28 4 -51 8.5 -69 13.5
s-32.167 10.333 -42.5 16s-17.333 11.834 -21 18.501s-5.5 13.334 -5.5 20.001c0 26 5.33301 51.5 16 76.5s24.5 47.333 41.5 67s36.167 35.5 57.5 47.5s43 18 65 18c35.333 0 53 -13.667 53 -41zM1157 649.997c0 -10 -2.66602 -22.6689 -7.99902 -38.002
s-11.833 -30.166 -19.5 -44.499s-15.834 -26.833 -24.501 -37.5s-16.667 -16 -24 -16c-3.33301 0 -14.5 1.5 -33.5 4.5s-42.5 5.16699 -70.5 6.5c-20.667 0 -43.334 -4.5 -68.001 -13.5s-49.5 -20.833 -74.5 -35.5s-49.167 -31.167 -72.5 -49.5s-44 -37 -62 -56
s-32.333 -37.167 -43 -54.5s-16 -32.333 -16 -45c0 -44.667 69 -81.667 207 -111c44 -8.66699 80 -18.167 108 -28.5s50.167 -22.333 66.5 -36s27.5 -29.5 33.5 -47.5s9 -39.667 9 -65c0 -64.667 -17 -127 -51 -187s-84.333 -117.667 -151 -173
c-72 -56.667 -148.5 -99.667 -229.5 -129s-168.167 -44 -261.5 -44c-69.333 0 -130.5 8.66699 -183.5 26s-97.333 42.333 -133 75s-62.5 72 -80.5 118s-27 98 -27 156c0 183.333 55.667 352.333 167 507c6 7.33301 13.333 11 22 11c9.33301 0 14 -3.33301 14 -10
c0 -4 -1.33301 -8 -4 -12c-38.667 -66 -67.667 -131 -87 -195s-29 -126 -29 -186c0 -209.333 123.333 -314 370 -314c58.667 0 116.834 5.5 174.501 16.5s113.5 26.167 167.5 45.5c33.333 13.333 64.333 29.166 93 47.499s53.834 37.333 75.501 57s38.667 38.834 51 57.501
s18.5 35 18.5 49c0 9.33301 -3 18.166 -9 26.499s-15 13.833 -27 16.5c-74.667 14.667 -134.167 27.167 -178.5 37.5s-74.833 18.5 -91.5 24.5c-82.667 29.333 -124 71.666 -124 126.999c0 136 60 270 180 402c57.333 62.667 111.833 109.334 163.5 140.001
s102.167 46 151.5 46c15.333 0 29.666 -1.83301 42.999 -5.5s25 -8.66699 35 -15s18 -13.666 24 -21.999s9 -17.166 9 -26.499z" />
    <glyph glyph-name="uni06CC_uni0654.fin" unicode="&#xfbfd;&#x654;" horiz-adv-x="1134" 
d="M1165 0l-31.9941 0.000976562c-97.333 0 -176.333 -1.33301 -237 -4s-107.834 -6.16699 -141.501 -10.5s-56.334 -9.5 -68.001 -15.5s-17.5 -12 -17.5 -18c1.33301 -11.333 13 -20.666 35 -27.999l115 -28.5c38.667 -9.66699 76.667 -19.834 114 -30.501
c57.333 -14.667 86 -48.334 86 -101.001c0 -27.333 -6.83301 -54.833 -20.5 -82.5s-31.834 -54.667 -54.501 -81s-48.834 -51.333 -78.501 -75s-60.5 -44.834 -92.5 -63.501c-60.667 -35.333 -124 -61.333 -190 -78s-136.333 -25 -211 -25c-282.667 0 -424 121.333 -424 364
c0 177.333 56.333 330.333 169 459c5.33301 5.33301 11.333 8 18 8c9.33301 0 14 -3.66699 14 -11c0 -0.666992 -0.333008 -2 -1 -4s-1.33398 -3.66699 -2.00098 -5c-40 -60.667 -69.833 -119.834 -89.5 -177.501s-29.5 -112.167 -29.5 -163.5
c0 -195.333 131.333 -293 394 -293c93.333 0 179.333 12.5 258 37.5s150 61.833 214 110.5c4 3.33301 8 7.33301 12 12s6 8.33398 6 11.001c0 3.33301 -2.33301 6.83301 -7 10.5s-10.667 6.16699 -18 7.5c-6.66699 2 -19.334 5.33301 -38.001 10l-60 14.5l-60 14
c-18.667 4.33301 -31.667 7.5 -39 9.5c-87.333 22 -131 66 -131 132c0 65.333 25.167 119.333 75.5 162s118.833 73.334 205.5 92.001c60 12 144 18 252 18h74v-177zM345.006 806.001c0 -4 -1.66211 -9.49902 -4.99512 -16.499s-7.5 -14.167 -12.5 -21.5
s-10.333 -13.666 -16 -18.999s-10.5 -8 -14.5 -8c-2.66699 0.666992 -6.83398 1.16699 -12.501 1.5s-11.167 0.833008 -16.5 1.5c-4 0 -11 -2.5 -21 -7.5s-20.167 -10.833 -30.5 -17.5s-19.666 -13.334 -27.999 -20.001s-12.5 -12 -12.5 -16
c0 -0.666992 1.66699 -1.5 5 -2.5s7.16602 -2.33301 11.499 -4s8.66602 -3.16699 12.999 -4.5s7.5 -2.33301 9.5 -3l12 -4c28 -7.33301 49.667 -16 65 -26s23 -22.667 23 -38c0 -26.667 -6.16699 -51.667 -18.5 -75s-29.5 -43.5 -51.5 -60.5s-47.833 -30.333 -77.5 -40
s-61.834 -14.5 -96.501 -14.5c-27.333 1.33301 -48.833 4 -64.5 8s-27.334 8.66699 -35.001 14s-12.334 10.833 -14.001 16.5s-2.5 10.5 -2.5 14.5v7c0 6 0.333008 11.167 1 15.5s3.16699 7.83301 7.5 10.5s11.666 4.5 21.999 5.5s25.166 1.5 44.499 1.5
c7.33301 0 15 -0.333008 23 -1s17.333 -1 28 -1c17.333 0 34.833 1.83301 52.5 5.5s34.334 8.66699 50.001 15s29.334 13.666 41.001 21.999s20.167 16.833 25.5 25.5c-28 4 -51 8.5 -69 13.5s-32.167 10.333 -42.5 16s-17.333 11.667 -21 18s-5.5 12.833 -5.5 19.5
c0 26 5.33301 51.5 16 76.5s24.5 47.333 41.5 67s36.167 35.5 57.5 47.5s43 18 65 18c17.333 0 30.5 -3 39.5 -9s13.5 -16.333 13.5 -31z" />
    <glyph glyph-name="fi" unicode="fi" horiz-adv-x="1139" 
d="M66 30c52.667 2 89.0029 12.002 109.003 30.002c20.667 18.667 31 62.667 31 132v660h-143v63h143c1.33301 72 11.166 137.333 29.499 196s46 108.667 83 150s83.333 73.166 139 95.499s121.167 33.5 196.5 33.5c31.333 0 62.333 -3.83301 93 -11.5
s58.167 -18.334 82.5 -32.001s44 -29.5 59 -47.5s22.5 -37.333 22.5 -58c0 -21.333 -7.16699 -39.5 -21.5 -54.5s-32.833 -22.5 -55.5 -22.5c-31.333 0 -67.333 28.333 -108 85c-41.333 57.333 -85.333 86 -132 86c-28.667 0 -55.334 -3.66699 -80.001 -11
s-46.5 -19.5 -65.5 -36.5s-34.667 -39.5 -47 -67.5s-20.833 -63 -25.5 -105c-0.666992 -8.66699 -1.33398 -20.334 -2.00098 -35.001s-1.33398 -31.167 -2.00098 -49.5s-1.16699 -37.5 -1.5 -57.5s-0.5 -39.333 -0.5 -58h291c11.333 0 22.833 0.166992 34.5 0.5
s24.167 0.833008 37.5 1.5h11c13.333 0.666992 24.5 1.16699 33.5 1.5s17.667 1 26 2s17.5 2.33301 27.5 4s23 4.16699 39 7.5c13.333 2.66699 23.833 4.66699 31.5 6s13.167 2 16.5 2s6.66602 -1.33301 9.99902 -4s5 -8 5 -16c0 -2.66699 -0.333008 -10.334 -1 -23.001
l-2.5 -46c-1 -18 -1.83301 -37.167 -2.5 -57.5s-1 -40.166 -1 -59.499v-534c0 -35.333 2.16699 -63.5 6.5 -84.5s12 -37.167 23 -48.5s25.5 -19.5 43.5 -24.5s40.333 -9.16699 67 -12.5v-30h-451v32c64.667 6 104.334 18 119.001 36c15.333 18.667 23 62.667 23 132v539
c0 25.333 -1.83301 45.5 -5.5 60.5s-10.667 26.167 -21 33.5s-25 12 -44 14s-44.167 3 -75.5 3c-21.333 0 -53.5 0.333008 -96.5 1s-91.167 1 -144.5 1v-671c0 -25.333 1.83301 -47 5.5 -65s10.834 -32.833 21.501 -44.5s25.667 -20.667 45 -27s44.333 -11.166 75 -14.499
v-30h-451v30z" />
    <glyph glyph-name="fl" unicode="fl" horiz-adv-x="1139" 
d="M762 1197c-4 -3.33301 -8.66797 -5.83301 -14.001 -7.5s-12.666 -2.5 -21.999 -2.5c-41.333 0 -77 24 -107 72c-30 48.667 -63 73 -99 73c-63.333 0 -104 -38.333 -122 -115c-2.66699 -11.333 -5 -27 -7 -47s-3.83301 -43.333 -5.5 -70s-3 -55.667 -4 -87
s-1.5 -64 -1.5 -98h382v282zM65.999 30c64.667 11.333 104.332 25.3398 118.999 42.0068c15.333 18.667 23 66.667 23 144v636h-142v63h143c1.33301 38.667 3.5 73 6.5 103s6.5 54.333 10.5 73c8 40 21.333 78.167 40 114.5s42 68.166 70 95.499s60.833 49.166 98.5 65.499
s79.834 24.5 126.501 24.5c20 0 41.5 -2.66699 64.5 -8s45 -11.333 66 -18l55 -18c15.667 -5.33301 25.834 -8 30.501 -8c8.66699 0 16.667 1.33301 24 4l99 38c5.33301 1.33301 9.33301 2.66602 12 3.99902s6.66699 2.66602 12 3.99902
c6 -3.33301 9.66699 -6.83301 11 -10.5s1.66602 -10.167 0.999023 -19.5l-3 -90v-1103c0 -26 1.66699 -47.167 5 -63.5s9.83301 -29.333 19.5 -39s23.167 -16.834 40.5 -21.501s40 -8.66699 68 -12v-30h-442v30c50.667 6.66699 84 16.667 100 30c25.333 20 38 58 38 114v678
h-385v-690c0 -20.667 2 -38.834 6 -54.501s11.5 -28.834 22.5 -39.501s26 -19 45 -25s43.5 -10.333 73.5 -13v-30h-458v30z" />
    <glyph glyph-name="uniFBA5" unicode="&#xe898;&#x654;" horiz-adv-x="630" arabic-form="final" 
d="M374 1204c0 -3.33301 -1.66504 -8.66602 -4.99805 -15.999s-7.5 -14.5 -12.5 -21.5s-10.167 -13.167 -15.5 -18.5s-10.333 -8 -15 -8c-2.66699 0.666992 -6.5 1.16699 -11.5 1.5s-10.167 0.833008 -15.5 1.5c-4 0 -11 -2.5 -21 -7.5s-20.333 -10.833 -31 -17.5
s-20 -13.334 -28 -20.001s-12 -12 -12 -16c0 -0.666992 1.66699 -1.66699 5 -3l11.5 -4.5c4.33301 -1.66699 8.66602 -3.16699 12.999 -4.5s7.5 -2.33301 9.5 -3l12 -4c27.333 -7.33301 48.833 -15.833 64.5 -25.5s23.5 -22.5 23.5 -38.5
c0 -26.667 -6.16699 -51.5 -18.5 -74.5s-29.5 -43 -51.5 -60s-47.833 -30.5 -77.5 -40.5s-61.834 -15 -96.501 -15c-27.333 1.33301 -48.833 4 -64.5 8s-27.334 8.66699 -35.001 14s-12.334 10.833 -14.001 16.5s-2.5 10.5 -2.5 14.5v7c0 6 0.166992 11.167 0.5 15.5
s2.83301 7.83301 7.5 10.5s12 4.5 22 5.5s24.333 1.5 43 1.5c7.33301 0 15.333 -0.333008 24 -1s17.667 -1 27 -1c18 0 35.833 2 53.5 6s34.334 9.16699 50.001 15.5s29.334 13.5 41.001 21.5s19.834 16.333 24.501 25c-28 4 -50.833 8.66699 -68.5 14
s-31.5 10.833 -41.5 16.5s-16.833 11.667 -20.5 18s-5.5 12.833 -5.5 19.5c0 26 5.16699 51.5 15.5 76.5s24 47.333 41 67s36.167 35.5 57.5 47.5s42.666 18 63.999 18c35.333 0 53 -13.667 53 -41zM322.002 504c-12.667 -17.333 -29.3291 -34.333 -49.9961 -51
s-43.334 -31.667 -68.001 -45c-22 -13.333 -41.5 -26 -58.5 -38s-28.5 -22.667 -34.5 -32c7.33301 -7.33301 23.166 -13.833 47.499 -19.5s54.833 -8.5 91.5 -8.5c17.333 0 32.666 2 45.999 6s23.666 9.33301 30.999 16zM662.007 0l-74 0.00195312
c-124.667 0 -202.334 75.333 -233.001 226c-13.333 -26.667 -27.166 -46 -41.499 -58s-30.5 -18 -48.5 -18c-30.667 0 -61.834 2.5 -93.501 7.5s-60.167 12.167 -85.5 21.5s-46 20.666 -62 33.999s-24 28.333 -24 45c0 6.66699 2.16699 17.834 6.5 33.501s9.5 32 15.5 49
s12.167 33.167 18.5 48.5s11.5 26.333 15.5 33c13.333 14.667 32.333 30.5 57 47.5s54.667 35.5 90 55.5c26 13.333 46.333 25.166 61 35.499s25.834 20.5 33.501 30.5s12.334 21 14.001 33s2.5 26.333 2.5 43v34c65.333 78 99.666 117 102.999 117
c0 -128.667 3.33301 -237.667 10 -327s16.667 -157.333 30 -204c8 -20.667 16.333 -38 25 -52s19.5 -25.333 32.5 -34s28.667 -14.834 47 -18.501s40.833 -5.5 67.5 -5.5h33v-177z" />
    <glyph glyph-name="uniFBB1" unicode="&#xfbaf;&#x654;" horiz-adv-x="1561" arabic-form="final" 
d="M1278 543c-36 -6.66699 -66 -12.502 -90 -17.502s-42.333 -9.83301 -55 -14.5c-31.333 -12 -61.166 -24.5 -89.499 -37.5s-53.833 -27.5 -76.5 -43.5c-1.33301 -0.666992 -2.83301 -1.33398 -4.5 -2.00098s-3.16699 -1 -4.5 -1c-6 0 -9 3.66699 -9 11c0 4 3 10 9 18
s13.667 17 23 27s20.166 21 32.499 33l37.5 36c-56.667 23.333 -85 54.666 -85 93.999c0 12 3.33301 25.167 10 39.5s15.834 28.833 27.501 43.5s24.834 28.834 39.501 42.501s30 25.834 46 36.501s32 19.167 48 25.5s30.667 9.5 44 9.5c8 0 16.167 -1.16699 24.5 -3.5
s16 -5.66602 23 -9.99902s12.667 -9.5 17 -15.5s6.5 -12.667 6.5 -20s-1.33301 -15.333 -4 -24s-6 -16.834 -10 -24.501s-8.5 -14.167 -13.5 -19.5s-10.167 -8 -15.5 -8c-2.66699 0 -6.33398 2.33301 -11.001 7s-10.167 9.83398 -16.5 15.501s-14 10.834 -23 15.501
s-19.167 7 -30.5 7c-10 0 -20.167 -2.33301 -30.5 -7s-19.833 -10.5 -28.5 -17.5s-15.834 -14.5 -21.501 -22.5s-8.5 -15.667 -8.5 -23c0 -12 3.66699 -23.167 11 -33.5s17.166 -19.333 29.499 -27s26.333 -13.5 42 -17.5s31.5 -6 47.5 -6c2.66699 0 11.167 1.5 25.5 4.5
l46.5 10l47 10c14.667 3 23.334 4.5 26.001 4.5zM88 -588.002c0 -4 12.999 -7.83008 38.999 -11.4971s61.167 -7 105.5 -10s95.666 -5.66699 153.999 -8s120 -4.33301 185 -6s131.333 -3 199 -4s132.834 -1.5 195.501 -1.5c146 0 269.167 1.5 369.5 4.5
s174.5 7.5 222.5 13.5c-4 -49.333 -28.333 -87.5 -73 -114.5s-103 -44.5 -175 -52.5h1c-34 -2.66699 -73.5 -4.83398 -118.5 -6.50098s-92.5 -3.16699 -142.5 -4.5s-101.5 -2.33301 -154.5 -3s-104.5 -1 -154.5 -1c-130 0 -247 0.833008 -351 2.5
s-192.667 7.16699 -266 16.5s-129.666 24.166 -168.999 44.499s-59 49.5 -59 87.5c0 32 6.66699 60 20 84s31.833 45.5 55.5 64.5s51.834 35.833 84.501 50.5s68.167 29 106.5 43l121.5 42.5c42.667 14.333 85.667 30.166 129 47.499c92.667 30 173.5 60.5 242.5 91.5
s129 61.5 180 91.5s94.333 59.167 130 87.5s67 55 94 80s50.667 48 71 69s40.5 39 60.5 54s41.5 26.667 64.5 35s50.167 12.5 81.5 12.5h-1c0 -0.666992 8 -2.83398 24 -6.50098s35.667 -7.5 59 -11.5s48 -7.66699 74 -11s48.667 -5 68 -5h31v-177h-73
c-18 0 -34.833 1.5 -50.5 4.5s-31.334 6.5 -47.001 10.5s-31.5 7.5 -47.5 10.5s-33.333 4.5 -52 4.5c-34 0 -61.667 -2.5 -83 -7.5s-40.5 -12.667 -57.5 -23s-33.333 -23 -49 -38s-34.834 -32.167 -57.501 -51.5s-50.5 -41.166 -83.5 -65.499s-75.167 -50.833 -126.5 -79.5
s-113.666 -59.5 -186.999 -92.5s-161.333 -67.833 -264 -104.5l-123 -42c-39.333 -14 -74 -27.833 -104 -41.5s-54 -26.667 -72 -39s-27 -23.5 -27 -33.5z" />
    <glyph glyph-name="uniFBD8" unicode="&#xfeee;&#x64f;" horiz-adv-x="713" arabic-form="final" 
d="M360 1016c-5.33301 0 -12.665 -2.16797 -21.998 -6.50098s-18.666 -9.83301 -27.999 -16.5s-17.333 -13.667 -24 -21s-10 -13.666 -10 -18.999c0 -8 1.83301 -16.5 5.5 -25.5s8.16699 -17.333 13.5 -25s11.5 -14.167 18.5 -19.5s13.5 -8 19.5 -8
c7.33301 0 14.166 3.33301 20.499 10s11.666 15.167 15.999 25.5s7.66602 21.5 9.99902 33.5s3.5 23.333 3.5 34c0 25.333 -7.66699 38 -23 38zM459.001 175.999c11.333 0 22.333 0.501953 33 1.50195s21 2.16699 31 3.5c-4 20 -10.167 38.167 -18.5 54.5
s-17.5 30.166 -27.5 41.499s-20.333 20.166 -31 26.499s-20.667 9.5 -30 9.5c-59.333 0 -89 -30.667 -89 -92c0 -24.667 28.333 -39 85 -43h5c7.33301 -0.666992 14.5 -1.16699 21.5 -1.5s13.833 -0.5 20.5 -0.5zM463.001 1011c0 -35.333 -6.16797 -68.334 -18.501 -99.001
s-30.166 -58 -53.499 -82c6 -4 13.833 -8.83301 23.5 -14.5s21.167 -11.167 34.5 -16.5l-6 -99c-28 9.33301 -53.167 19.333 -75.5 30s-41.833 23.667 -58.5 39c-56.667 -48.667 -110.167 -85.5 -160.5 -110.5s-97.5 -37.5 -141.5 -37.5c-36 0 -54.333 16 -55 48
c67.333 23.333 126.333 47.333 177 72s91 48.334 121 71.001c-17.333 17.333 -30.5 35.333 -39.5 54s-13.5 37.667 -13.5 57c0 36.667 22 77 66 121c46.667 46.667 86.667 70 120 70c53.333 0 80 -34.333 80 -103zM744 0l-141.003 0.000976562
c-10 -62.667 -26 -122.834 -48 -180.501s-50.333 -112.834 -85 -165.501c-81.333 -126 -169.666 -189 -264.999 -189c-106.667 0 -223 39.667 -349 119h1c-8.66699 4.66699 -13 11.334 -13 20.001c0 10 5.66699 15 17 15c28 -2.66699 54 -4.5 78 -5.5s47.333 -1.5 70 -1.5
c78 0 147.333 10 208 30s111.334 49 152.001 87c36 36 67.667 76.833 95 122.5s47.666 93.167 60.999 142.5c-40 0.666992 -77.5 3 -112.5 7s-61.167 9.66699 -78.5 17c-25.333 12 -45.166 29.667 -59.499 53s-21.5 52.333 -21.5 87c0 66.667 17.333 135 52 205
c21.333 42 44.666 73.167 69.999 93.5s52 30.5 80 30.5c17.333 0 34 -7.83301 50 -23.5s30.833 -37.167 44.5 -64.5s25.334 -60 35.001 -98s16.834 -79.333 21.501 -124h138v-177z" />
    <glyph glyph-name="uniFBDC" unicode="&#xfeee;&#x670;" horiz-adv-x="713" arabic-form="final" 
d="M459 176c11.333 0 22.333 0.501953 33 1.50195s21 2.16699 31 3.5c-4 20 -10.167 38.167 -18.5 54.5s-17.5 30.166 -27.5 41.499s-20.333 20.166 -31 26.499s-20.667 9.5 -30 9.5c-59.333 0 -89 -30.667 -89 -92c0 -24.667 28.333 -39 85 -43h5
c7.33301 -0.666992 14.5 -1.16699 21.5 -1.5s13.833 -0.5 20.5 -0.5zM744 0.00195312l-141.003 0.000976562c-10 -62.667 -26 -122.834 -48 -180.501s-50.333 -112.834 -85 -165.501c-81.333 -126 -169.666 -189 -264.999 -189c-106.667 0 -223 39.667 -349 119h1
c-8.66699 4.66699 -13 11.334 -13 20.001c0 10 5.66699 15 17 15c28 -2.66699 54 -4.5 78 -5.5s47.333 -1.5 70 -1.5c78 0 147.333 10 208 30s111.334 49 152.001 87c36 36 67.667 76.833 95 122.5s47.666 93.167 60.999 142.5c-40 0.666992 -77.5 3 -112.5 7
s-61.167 9.66699 -78.5 17c-25.333 12 -45.166 29.667 -59.499 53s-21.5 52.333 -21.5 87c0 66.667 17.333 135 52 205c21.333 42 44.666 73.167 69.999 93.5s52 30.5 80 30.5c17.333 0 34 -7.83301 50 -23.5s30.833 -37.167 44.5 -64.5s25.334 -60 35.001 -98
s16.834 -79.333 21.501 -124h138v-177zM430.997 823.003c-6.66699 -30 -16.335 -52.666 -29.002 -67.999s-22 -23 -28 -23c-4.66699 0 -7 8.33301 -7 25c1.33301 3.33301 2 7 2 11v12c0 10.667 -1.33301 25.834 -4 45.501s-6.16699 41.5 -10.5 65.5l-14 74l-14 71
c-4.33301 22 -7.83301 40.833 -10.5 56.5s-4 25.5 -4 29.5c2 3.33301 6.16699 9 12.5 17s13.333 16.167 21 24.5s15.667 15.666 24 21.999s15.833 9.5 22.5 9.5c2 0 3 -2.66699 3 -8c0 -6.66699 -0.333008 -12.834 -1 -18.501s-1 -12.5 -1 -20.5c0 -10 1 -23.667 3 -41
s4.33301 -36.333 7 -57s5.83398 -42 9.50098 -64s6.83398 -42.5 9.50098 -61.5l7 -49.5c2 -14 3 -23.667 3 -29v-12.5c0 -3.66699 -0.333008 -7.16699 -1 -10.5z" />
    <glyph glyph-name="uniFC32" unicode="&#x20;&#xfed3;&#xfef2;" horiz-adv-x="2276" arabic-form="isolated" 
d="M620 369c-0.666992 6.66699 -0.828125 13.5068 -0.495117 20.5068s-0.166992 14.5 -1.5 22.5c-26 -26 -55.833 -46.667 -89.5 -62s-69.5 -23 -107.5 -23c-20.667 0 -40.167 4.66699 -58.5 14s-34.333 22.333 -48 39s-24.5 36 -32.5 58s-12 46 -12 72
c0 24.667 2.83301 50.667 8.5 78s13.5 54.333 23.5 81s21.833 52.167 35.5 76.5s28.167 45.666 43.5 63.999s31.166 33 47.499 44s32.5 16.5 48.5 16.5c18.667 0 36.834 -7.83301 54.501 -23.5s34.167 -36.834 49.5 -63.501s29.666 -57.334 42.999 -92.001
s25.333 -71 36 -109s19.834 -76.5 27.501 -115.5s13.5 -75.5 17.5 -109.5c0 -2 0.333008 -5.83301 1 -11.5s1.16699 -11.834 1.5 -18.501s0.666016 -12.834 0.999023 -18.501s0.5 -9.5 0.5 -11.5c0 -52.667 -8.5 -96.334 -25.5 -131.001s-39.5 -62.834 -67.5 -84.501
s-59.833 -38.5 -95.5 -50.5s-72.167 -21.5 -109.5 -28.5s-73.833 -13 -109.5 -18s-67.5 -11.833 -95.5 -20.5s-50.5 -20.167 -67.5 -34.5s-25.5 -34.5 -25.5 -60.5c0 -20.667 16.167 -37.167 48.5 -49.5s74.833 -21.833 127.5 -28.5s112.667 -11.167 180 -13.5
s135.666 -3.5 204.999 -3.5c57.333 0 115.166 0.333008 173.499 1s115.166 1 170.499 1c48.667 0 103.5 0.166992 164.5 0.5s123.833 0.833008 188.5 1.5s129 1.66699 193 3s122.833 2.66602 176.5 3.99902s100.334 2.83301 140.001 4.5s67.5 3.5 83.5 5.5
c-2 -24.667 -9.33301 -46.5 -22 -65.5s-29.834 -35.333 -51.501 -49s-47.167 -25 -76.5 -34s-62 -15.5 -98 -19.5h1c-22.667 -2 -56.667 -3.66699 -102 -5s-96.666 -2.5 -153.999 -3.5s-118.166 -1.83301 -182.499 -2.5s-126.833 -1.16699 -187.5 -1.5
s-117.167 -0.666016 -169.5 -0.999023s-95.166 -0.5 -128.499 -0.5h-166c-105.333 0 -200 1.83301 -284 5.5s-155.167 13.834 -213.5 30.501s-103.166 41.667 -134.499 75s-47 79.666 -47 138.999c0 40 9.66699 74 29 102s44.666 52 75.999 72s67.166 37 107.499 51
s81.666 27.167 123.999 39.5l124 37.5c40.333 12.667 76.166 27.334 107.499 44.001s56.666 36.667 75.999 60s29 51.666 29 84.999c0 6.66699 -0.333008 11.667 -1 15zM560.006 1202.01c0 -24 -43.666 -69.3311 -130.999 -135.998
c-15.333 23.333 -33.833 45.666 -55.5 66.999s-46.834 42.333 -75.501 63l129 137c12.667 -6.66699 26.667 -16.5 42 -29.5s29.833 -26.333 43.5 -40s25 -26.334 34 -38.001s13.5 -19.5 13.5 -23.5zM558.007 542.009c-30 99.333 -64.002 148.997 -102.002 148.997
c-10.667 0 -21.167 -3.66699 -31.5 -11s-19.666 -16.666 -27.999 -27.999s-15.166 -23.666 -20.499 -36.999s-8 -25.666 -8 -36.999c0 -54 24 -81 72 -81c46.667 0 86 15 118 45zM801.005 -656.994c0 -19.333 -40.0029 -59.001 -120.003 -119.001
c-12.667 14 -28.667 30 -48 48s-42 37.667 -68 59l-20 -20c-13.333 -11.333 -28.166 -25.833 -44.499 -43.5s-34.166 -35.167 -53.499 -52.5c-33.333 48.667 -74.333 89.334 -123 122.001l120 128c34.667 -19.333 75.667 -58.333 123 -117l55 59l54 58
c12 -5.33301 25.333 -14 40 -26s28.334 -24.5 41.001 -37.5s23.167 -25 31.5 -36s12.5 -18.5 12.5 -22.5z" />
    <glyph glyph-name="uniFC5D" unicode="&#x649;&#x670;" horiz-adv-x="1313" arabic-form="isolated" 
d="M424 765c-3.33301 -14.667 -7.66699 -27.668 -13 -39.001s-10.833 -20.666 -16.5 -27.999s-11 -13 -16 -17s-8.83301 -6 -11.5 -6c-4.66699 0 -7 8.33301 -7 25c1.33301 3.33301 2 6.83301 2 10.5v12.5c0 10.667 -1.33301 25.834 -4 45.501s-6.16699 41.5 -10.5 65.5
l-14 74l-14 71c-4.33301 22 -7.83301 40.667 -10.5 56s-4 25.333 -4 30c2 3.33301 6.16699 9 12.5 17s13.333 16.167 21 24.5s15.5 15.666 23.5 21.999s15.333 9.5 22 9.5c2 0 3 -3 3 -9s-0.333008 -12 -1 -18s-1 -12.667 -1 -20c0 -10 1 -23.667 3 -41s4.5 -36.333 7.5 -57
l9.5 -64l9.5 -62l7.5 -50c2 -14 3 -23.333 3 -28v-12.5c0 -3.66699 -0.333008 -7.5 -1 -11.5zM1157 649.999c0 -10 -2.66602 -22.6689 -7.99902 -38.002s-11.833 -30.166 -19.5 -44.499s-15.834 -26.833 -24.501 -37.5s-16.667 -16 -24 -16c-3.33301 0 -14.5 1.5 -33.5 4.5
s-42.5 5.16699 -70.5 6.5c-20.667 0 -43.334 -4.5 -68.001 -13.5s-49.5 -20.833 -74.5 -35.5s-49.167 -31.167 -72.5 -49.5s-44 -37 -62 -56s-32.333 -37.167 -43 -54.5s-16 -32.333 -16 -45c0 -44.667 69 -81.667 207 -111c44 -8.66699 80 -18.167 108 -28.5
s50.167 -22.333 66.5 -36s27.5 -29.5 33.5 -47.5s9 -39.667 9 -65c0 -64.667 -17 -127 -51 -187s-84.333 -117.667 -151 -173c-72 -56.667 -148.5 -99.667 -229.5 -129s-168.167 -44 -261.5 -44c-69.333 0 -130.5 8.66699 -183.5 26s-97.333 42.333 -133 75
s-62.5 72 -80.5 118s-27 98 -27 156c0 183.333 55.667 352.333 167 507c6 7.33301 13.333 11 22 11c9.33301 0 14 -3.33301 14 -10c0 -4 -1.33301 -8 -4 -12c-38.667 -66 -67.667 -131 -87 -195s-29 -126 -29 -186c0 -209.333 123.333 -314 370 -314
c58.667 0 116.834 5.5 174.501 16.5s113.5 26.167 167.5 45.5c33.333 13.333 64.333 29.166 93 47.499s53.834 37.333 75.501 57s38.667 38.834 51 57.501s18.5 35 18.5 49c0 9.33301 -3 18.166 -9 26.499s-15 13.833 -27 16.5c-74.667 14.667 -134.167 27.167 -178.5 37.5
s-74.833 18.5 -91.5 24.5c-82.667 29.333 -124 71.666 -124 126.999c0 136 60 270 180 402c57.333 62.667 111.833 109.334 163.5 140.001s102.167 46 151.5 46c15.333 0 29.666 -1.83301 42.999 -5.5s25 -8.66699 35 -15s18 -13.666 24 -21.999s9 -17.166 9 -26.499z" />
    <glyph glyph-name="uniFC90" unicode="&#xfbfd;&#x670;" horiz-adv-x="1134" arabic-form="final" 
d="M1165 0l-31.9941 0.000976562c-97.333 0 -176.333 -1.33301 -237 -4s-107.834 -6.16699 -141.501 -10.5s-56.334 -9.5 -68.001 -15.5s-17.5 -12 -17.5 -18c1.33301 -11.333 13 -20.666 35 -27.999l115 -28.5c38.667 -9.66699 76.667 -19.834 114 -30.501
c57.333 -14.667 86 -48.334 86 -101.001c0 -27.333 -6.83301 -54.833 -20.5 -82.5s-31.834 -54.667 -54.501 -81s-48.834 -51.333 -78.501 -75s-60.5 -44.834 -92.5 -63.501c-60.667 -35.333 -124 -61.333 -190 -78s-136.333 -25 -211 -25c-282.667 0 -424 121.333 -424 364
c0 177.333 56.333 330.333 169 459c5.33301 5.33301 11.333 8 18 8c9.33301 0 14 -3.66699 14 -11c0 -0.666992 -0.333008 -2 -1 -4s-1.33398 -3.66699 -2.00098 -5c-40 -60.667 -69.833 -119.834 -89.5 -177.501s-29.5 -112.167 -29.5 -163.5
c0 -195.333 131.333 -293 394 -293c93.333 0 179.333 12.5 258 37.5s150 61.833 214 110.5c4 3.33301 8 7.33301 12 12s6 8.33398 6 11.001c0 3.33301 -2.33301 6.83301 -7 10.5s-10.667 6.16699 -18 7.5c-6.66699 2 -19.334 5.33301 -38.001 10l-60 14.5l-60 14
c-18.667 4.33301 -31.667 7.5 -39 9.5c-87.333 22 -131 66 -131 132c0 65.333 25.167 119.333 75.5 162s118.833 73.334 205.5 92.001c60 12 144 18 252 18h74v-177zM430.006 520.001c-6.66699 -30 -16.335 -52.666 -29.002 -67.999s-22 -23 -28 -23
c-4.66699 0 -7 8.33301 -7 25c1.33301 4 2 7.83301 2 11.5v11.5c0 10.667 -1.33301 25.834 -4 45.501s-6.16699 41.5 -10.5 65.5l-14 74l-14 71c-4.33301 22 -7.83301 40.833 -10.5 56.5s-4 25.5 -4 29.5c2 3.33301 6.16699 9 12.5 17s13.333 16.167 21 24.5
s15.667 15.666 24 21.999s15.833 9.5 22.5 9.5c2 0 3 -2.66699 3 -8c0 -6.66699 -0.333008 -12.834 -1 -18.501s-1 -12.5 -1 -20.5c0 -10 1 -23.667 3 -41s4.33301 -36.333 7 -57s5.83398 -42 9.50098 -64s6.83398 -42.5 9.50098 -61.5l7 -49.5c2 -14 3 -23.667 3 -29v-12.5
c0 -3.66699 -0.333008 -7.16699 -1 -10.5z" />
    <glyph glyph-name="uniFE82" unicode="&#xfe8e;&#x653;" horiz-adv-x="518" arabic-form="final" 
d="M550 0h-75c-53.333 0 -97.833 8.66699 -133.5 26s-63.5 44.666 -83.5 81.999v-1c-19.333 30 -35.5 76.5 -48.5 139.5s-23.167 143.5 -30.5 241.5c-9.33301 125.333 -16 225 -20 299s-8.33301 123 -13 147c-6 62.667 -12.5 120.167 -19.5 172.5s-14.5 101.5 -22.5 147.5
l95 166c7.33301 12 12.333 18 15 18c3.33301 0 6.5 -10.167 9.5 -30.5s6.16699 -48.666 9.5 -84.999s6.66602 -79.333 9.99902 -129l10.5 -162c3.66699 -58.333 7.33398 -119.833 11.001 -184.5l11.5 -196c8.66699 -94 17.167 -173.333 25.5 -238s16.833 -109.667 25.5 -135
c14 -32 36.833 -56.833 68.5 -74.5s72.167 -26.5 121.5 -26.5h33v-177zM539 1804c-77.333 -127.333 -197.001 -190.996 -359.001 -190.996h-20.5c-6.33301 0 -13.166 0.333008 -20.499 1c-17.333 1.33301 -37.833 4.33301 -61.5 9s-46 9.66699 -67 15s-38.5 10 -52.5 14
s-20.333 6 -19 6c-18 0 -40.333 -12.333 -67 -37c-8 -7.33301 -14.5 -13 -19.5 -17s-9.16699 -6 -12.5 -6c-5.33301 0 -8 5 -8 15c0 19.333 4.33301 39.166 13 59.499s19.834 39.166 33.501 56.499s29.167 31.5 46.5 42.5s34.666 16.5 51.999 16.5
c2.66699 0 11.667 -3 27 -9s34.5 -12.333 57.5 -19s48.667 -12.834 77 -18.501s57.5 -8.5 87.5 -8.5c110.667 0 206.667 34.667 288 104c24 20 38.667 30 44 30c4 -0.666992 6 -3.33398 6 -8.00098c0 -4 -1.66699 -10.333 -5 -19s-10 -20.667 -20 -36z" />
    <glyph glyph-name="uniFE84" unicode="&#xfe8e;&#x654;" horiz-adv-x="518" arabic-form="final" 
d="M370 1689c-11.333 -30.667 -19.335 -47.0059 -24.002 -49.0059c-36.667 -7.33301 -67.667 -13.833 -93 -19.5s-43.666 -10.167 -54.999 -13.5c-32.667 -9.33301 -63.334 -20.666 -92.001 -33.999s-53.667 -28.333 -75 -45c-2.66699 0 -6 -0.666992 -10 -2
c-5.33301 0 -8 3 -8 9c0 4.66699 2.83301 10.834 8.5 18.501s13.334 16.334 23.001 26.001l33 31.5l38.5 35c-56.667 26.667 -85 59 -85 97c0 35.333 25 77 75 125c50.667 48.667 97.334 73 140.001 73c8 0 16.167 -1.16699 24.5 -3.5s15.833 -5.83301 22.5 -10.5
s12.167 -10 16.5 -16s6.5 -12.667 6.5 -20c0 -9.33301 -1.16699 -18.666 -3.5 -27.999s-5.5 -17.666 -9.5 -24.999s-8.5 -13.333 -13.5 -18s-10.5 -7 -16.5 -7c-3.33301 0 -7.16602 2.33301 -11.499 7s-9.5 9.66699 -15.5 15s-13.167 10.333 -21.5 15s-18.5 7 -30.5 7
c-8.66699 0 -18.334 -2.33301 -29.001 -7s-20.667 -10.334 -30 -17.001s-17 -14 -23 -22s-9 -15.333 -9 -22c0 -11.333 3.66699 -22 11 -32s17 -18.667 29 -26s26 -13 42 -17s33 -6 51 -6c3.33301 0 12 1.33301 26 4s29.333 5.83398 46 9.50098s32.167 6.83398 46.5 9.50098
s22.833 4 25.5 4zM549.998 -0.00585938h-75c-53.333 0 -97.833 8.66699 -133.5 26s-63.5 44.666 -83.5 81.999v-1c-19.333 30 -35.5 76.5 -48.5 139.5s-23.167 143.5 -30.5 241.5c-9.33301 125.333 -16 225 -20 299s-8.33301 123 -13 147
c-6 62.667 -12.5 120.167 -19.5 172.5s-14.5 101.5 -22.5 147.5l95 166c7.33301 12 12.333 18 15 18c3.33301 0 6.5 -10.167 9.5 -30.5s6.16699 -48.666 9.5 -84.999s6.66602 -79.333 9.99902 -129l10.5 -162c3.66699 -58.333 7.33398 -119.833 11.001 -184.5l11.5 -196
c8.66699 -94 17.167 -173.333 25.5 -238s16.833 -109.667 25.5 -135c14 -32 36.833 -56.833 68.5 -74.5s72.167 -26.5 121.5 -26.5h33v-177z" />
    <glyph glyph-name="uniFE86" unicode="&#xfeee;&#x654;" horiz-adv-x="713" arabic-form="final" 
d="M459 176c11.333 0 22.333 0.501953 33 1.50195s21 2.16699 31 3.5c-4 20 -10.167 38.167 -18.5 54.5s-17.5 30.166 -27.5 41.499s-20.333 20.166 -31 26.499s-20.667 9.5 -30 9.5c-59.333 0 -89 -30.667 -89 -92c0 -24.667 28.333 -39 85 -43h5
c7.33301 -0.666992 14.5 -1.16699 21.5 -1.5s13.833 -0.5 20.5 -0.5zM528 884.002c0 -3.33301 -1.50293 -10.0029 -4.50293 -20.0029s-6.66699 -20.5 -11 -31.5s-8.66602 -20.833 -12.999 -29.5s-7.83301 -13.334 -10.5 -14.001c-35.333 -7.33301 -65.5 -13.833 -90.5 -19.5
s-43.167 -10.167 -54.5 -13.5c-68 -20 -124.667 -46 -170 -78c-3.33301 -1.33301 -5.33301 -2.16602 -6 -2.49902s-1.33398 -0.5 -2.00098 -0.5c-5.33301 0 -8 3 -8 9c0 7.33301 9.33301 20.833 28 40.5s43.667 43.167 75 70.5c-58 27.333 -87 60 -87 98
c0 34.667 25.667 76 77 124c50.667 48.667 97.334 73 140.001 73c16 0 31.5 -4.66699 46.5 -14s22.5 -21.333 22.5 -36c0 -9.33301 -1.16699 -18.666 -3.5 -27.999s-5.5 -17.666 -9.5 -24.999s-8.5 -13.166 -13.5 -17.499s-10.167 -6.5 -15.5 -6.5
c-4 0 -8.16699 2.33301 -12.5 7s-9.66602 9.66699 -15.999 15s-13.833 10.333 -22.5 15s-18.667 7 -30 7c-8 0 -17.167 -2.16699 -27.5 -6.5s-20.166 -10 -29.499 -17s-17.166 -14.333 -23.499 -22s-9.5 -15.167 -9.5 -22.5c0 -12 3.83301 -23 11.5 -33
s17.667 -18.667 30 -26s26.5 -13 42.5 -17s32 -6 48 -6c3.33301 0 12.166 1.5 26.499 4.5l46.5 9.5l47 9.5c14.667 3 24 4.5 28 4.5zM743.997 -0.000976562l-141.003 0.000976562c-10 -62.667 -26 -122.834 -48 -180.501s-50.333 -112.834 -85 -165.501
c-81.333 -126 -169.666 -189 -264.999 -189c-106.667 0 -223 39.667 -349 119h1c-8.66699 4.66699 -13 11.334 -13 20.001c0 10 5.66699 15 17 15c28 -2.66699 54 -4.5 78 -5.5s47.333 -1.5 70 -1.5c78 0 147.333 10 208 30s111.334 49 152.001 87
c36 36 67.667 76.833 95 122.5s47.666 93.167 60.999 142.5c-40 0.666992 -77.5 3 -112.5 7s-61.167 9.66699 -78.5 17c-25.333 12 -45.166 29.667 -59.499 53s-21.5 52.333 -21.5 87c0 66.667 17.333 135 52 205c21.333 42 44.666 73.167 69.999 93.5s52 30.5 80 30.5
c17.333 0 34 -7.83301 50 -23.5s30.833 -37.167 44.5 -64.5s25.334 -60 35.001 -98s16.834 -79.333 21.501 -124h138v-177z" />
    <glyph glyph-name="uniFE88" unicode="&#xfe8e;&#x655;" horiz-adv-x="518" arabic-form="final" 
d="M418 -384c-9.33301 -31.333 -18.335 -47.998 -27.002 -49.998c-4.66699 -1.33301 -14.5 -3.5 -29.5 -6.5l-47.5 -10l-45 -10c-13.333 -3 -20.666 -4.83301 -21.999 -5.5c-31.333 -10.667 -61.666 -22.5 -90.999 -35.5s-54.666 -27.167 -75.999 -42.5
c-1.33301 -1.33301 -4.33301 -2 -9 -2c-1.33301 0 -3.33301 1 -6 3s-4 3.66699 -4 5l4 9c7.33301 10.667 19.333 24.667 36 42s37.667 36.666 63 57.999c-56 28.667 -84 62 -84 100c0 34.667 24.333 76.334 73 125.001c48 48 95.667 72 143 72
c7.33301 0 14.833 -1.33301 22.5 -4s15 -6.33398 22 -11.001s12.667 -10 17 -16s6.5 -12.333 6.5 -19c0 -9.33301 -1.16699 -18.5 -3.5 -27.5s-5.66602 -17.167 -9.99902 -24.5s-9.16602 -13.333 -14.499 -18s-11 -7 -17 -7c-1.33301 0 -4 2.5 -8 7.5
s-9.33301 10.333 -16 16s-14.334 11 -23.001 16s-18 7.5 -28 7.5c-10.667 0 -21.334 -2.66699 -32.001 -8s-20.5 -11.833 -29.5 -19.5s-16.333 -15.667 -22 -24s-8.5 -15.833 -8.5 -22.5c0 -12 4.16699 -22.833 12.5 -32.5s18.833 -18 31.5 -25s26.667 -12.5 42 -16.5
s30 -6 44 -6c3.33301 0 12 1.5 26 4.5l45.5 9.5c16.333 3.33301 31.666 6.66602 45.999 9.99902s23.5 5 27.5 5zM549.998 0.00195312h-75c-53.333 0 -97.833 8.66699 -133.5 26s-63.5 44.666 -83.5 81.999v-1c-19.333 30 -35.5 76.5 -48.5 139.5s-23.167 143.5 -30.5 241.5
c-9.33301 125.333 -16 225 -20 299s-8.33301 123 -13 147c-6 62.667 -12.5 120.167 -19.5 172.5s-14.5 101.5 -22.5 147.5l95 166c7.33301 12 12.333 18 15 18c3.33301 0 6.5 -10.167 9.5 -30.5s6.16699 -48.666 9.5 -84.999s6.66602 -79.333 9.99902 -129l10.5 -162
c3.66699 -58.333 7.33398 -119.833 11.001 -184.5l11.5 -196c8.66699 -94 17.167 -173.333 25.5 -238s16.833 -109.667 25.5 -135c14 -32 36.833 -56.833 68.5 -74.5s72.167 -26.5 121.5 -26.5h33v-177z" />
    <glyph glyph-name="uniFE8A" unicode="&#xfef2;&#x654;" horiz-adv-x="1134" arabic-form="final" 
d="M281 395c-42 -7.33301 -77.9932 -14.832 -107.993 -22.499s-56.833 -15.834 -80.5 -24.501s-45 -18.334 -64 -29.001s-38.5 -22.667 -58.5 -36l-4 -2c-1.33301 -0.666992 -2.66602 -1 -3.99902 -1s-3.16602 0.833008 -5.49902 2.5s-3.5 4.16699 -3.5 7.5c0 4 3 10 9 18
s13.667 17 23 27s20.166 20.667 32.499 32l37.5 33c-57.333 28 -86 61.333 -86 100c0 16 7.33301 35.333 22 58s33 44.167 55 64.5s45.5 37.833 70.5 52.5s47.833 22 68.5 22c8 0 16 -1.33301 24 -4s15.5 -6.33398 22.5 -11.001s12.667 -10 17 -16s6.5 -12.333 6.5 -19
c0 -7.33301 -1.33301 -15.5 -4 -24.5s-6 -17.333 -10 -25s-8.5 -14.167 -13.5 -19.5s-10.167 -8 -15.5 -8c-2.66699 0 -6.33398 2.16699 -11.001 6.5s-10.334 9.33301 -17.001 15s-14.334 10.667 -23.001 15s-18 6.5 -28 6.5c-9.33301 0 -19.333 -2.16699 -30 -6.5
s-20.334 -10 -29.001 -17s-15.834 -14.5 -21.501 -22.5s-8.5 -15.667 -8.5 -23c0 -12 3.83301 -22.833 11.5 -32.5s17.667 -18.167 30 -25.5s26.166 -13 41.499 -17s30.666 -6 45.999 -6c3.33301 0 12.166 1.33301 26.499 4s29.833 5.83398 46.5 9.50098
s32 6.83398 46 9.50098s22.333 4 25 4zM1165.01 0.000976562l-31.9941 0.000976562c-97.333 0 -176.333 -1.33301 -237 -4s-107.834 -6.16699 -141.501 -10.5s-56.334 -9.5 -68.001 -15.5s-17.5 -12 -17.5 -18c1.33301 -11.333 13 -20.666 35 -27.999l115 -28.5
c38.667 -9.66699 76.667 -19.834 114 -30.501c57.333 -14.667 86 -48.334 86 -101.001c0 -27.333 -6.83301 -54.833 -20.5 -82.5s-31.834 -54.667 -54.501 -81s-48.834 -51.333 -78.501 -75s-60.5 -44.834 -92.5 -63.501c-60.667 -35.333 -124 -61.333 -190 -78
s-136.333 -25 -211 -25c-282.667 0 -424 121.333 -424 364c0 177.333 56.333 330.333 169 459c5.33301 5.33301 11.333 8 18 8c9.33301 0 14 -3.66699 14 -11c0 -0.666992 -0.333008 -2 -1 -4s-1.33398 -3.66699 -2.00098 -5c-40 -60.667 -69.833 -119.834 -89.5 -177.501
s-29.5 -112.167 -29.5 -163.5c0 -195.333 131.333 -293 394 -293c93.333 0 179.333 12.5 258 37.5s150 61.833 214 110.5c4 3.33301 8 7.33301 12 12s6 8.33398 6 11.001c0 3.33301 -2.33301 6.83301 -7 10.5s-10.667 6.16699 -18 7.5
c-6.66699 2 -19.334 5.33301 -38.001 10l-60 14.5l-60 14c-18.667 4.33301 -31.667 7.5 -39 9.5c-87.333 22 -131 66 -131 132c0 65.333 25.167 119.333 75.5 162s118.833 73.334 205.5 92.001c60 12 144 18 252 18h74v-177z" />
    <glyph glyph-name="uniFE8B" unicode="&#xfef3;&#x654;" horiz-adv-x="528" arabic-form="initial" 
d="M394 879c-14 -32 -22.6699 -48.3359 -26.0029 -49.0029c-4 -0.666992 -13.5 -2.66699 -28.5 -6l-47.5 -11l-45.5 -11c-13.667 -3.33301 -21.5 -5.33301 -23.5 -6c-32.667 -9.33301 -63.5 -20.5 -92.5 -33.5s-54.167 -27.833 -75.5 -44.5
c-0.666992 -0.666992 -2.66699 -1 -6 -1c-6.66699 0 -10 3 -10 9c0 6.66699 10 20.334 30 41.001s44.667 44 74 70c-58.667 26.667 -88 59 -88 97c0 17.333 7.5 37.333 22.5 60s33.5 44.167 55.5 64.5s45.5 37.5 70.5 51.5s47.5 21 67.5 21c8 0 16 -1.16699 24 -3.5
s15.333 -5.66602 22 -9.99902s12.167 -9.5 16.5 -15.5s6.5 -12.667 6.5 -20c0 -8.66699 -1.16699 -17.667 -3.5 -27s-5.5 -17.833 -9.5 -25.5s-8.5 -14 -13.5 -19s-10.167 -7.5 -15.5 -7.5c-3.33301 0 -7.16602 2.33301 -11.499 7s-9.66602 10 -15.999 16
s-13.833 11.333 -22.5 16s-19 7 -31 7c-8.66699 0 -18.5 -2.33301 -29.5 -7s-21 -10.5 -30 -17.5s-16.667 -14.5 -23 -22.5s-9.5 -15.667 -9.5 -23c0 -11.333 4.33301 -22 13 -32s19.667 -18.667 33 -26s27.833 -13.166 43.5 -17.499s30.834 -6.5 45.501 -6.5
c2 0 9.83301 1.5 23.5 4.5l45.5 10.5c16.667 4 32.5 7.5 47.5 10.5s24.5 4.5 28.5 4.5zM371.997 298.997c0 -42.667 -4.83398 -82.332 -14.501 -118.999s-26.834 -68.334 -51.501 -95.001s-58.167 -47.5 -100.5 -62.5s-96.5 -22.5 -162.5 -22.5h-75v177h33
c82 0 148.333 4.16699 199 12.5s85.334 20.166 104.001 35.499c-0.666992 10 -4 22.167 -10 36.5s-13.833 29 -23.5 44s-20.667 29.333 -33 43s-25.166 24.834 -38.499 33.501l65 188c2 6.66699 5 10 9 10c2 0 5.33301 -1.66699 10 -5c59.333 -69.333 89 -161.333 89 -276z
" />
    <glyph glyph-name="uniFE8C" unicode="&#xfef4;&#x654;" horiz-adv-x="588" arabic-form="medial" 
d="M392 807c-14.667 -32 -23.332 -48.335 -25.999 -49.002c-4 -0.666992 -13.667 -2.66699 -29 -6s-31.333 -7 -48 -11l-45.5 -10.5c-13.667 -3 -21.167 -4.83301 -22.5 -5.5c-32.667 -10 -63.5 -21.5 -92.5 -34.5s-54.167 -28.167 -75.5 -45.5
c-0.666992 -0.666992 -2.66699 -1 -6 -1c-6.66699 0 -10 3.33301 -10 10c0 7.33301 10 21.166 30 41.499s44.667 43.5 74 69.5c-58.667 26.667 -88 59 -88 97c0 18 7.5 38.5 22.5 61.5s33.5 44.5 55.5 64.5s45.5 37 70.5 51s47.5 21 67.5 21c8 0 16 -1.16699 24 -3.5
s15.167 -5.83301 21.5 -10.5s11.666 -10 15.999 -16s6.5 -12.667 6.5 -20c0 -8 -1.16699 -16.667 -3.5 -26s-5.33301 -17.666 -9 -24.999s-8 -13.5 -13 -18.5s-10.167 -7.5 -15.5 -7.5c-3.33301 0 -7 2.33301 -11 7s-9.16699 9.83398 -15.5 15.501
s-13.833 10.834 -22.5 15.501s-19.334 7 -32.001 7c-9.33301 0 -19.5 -2.33301 -30.5 -7s-21 -10.5 -30 -17.5s-16.5 -14.5 -22.5 -22.5s-9 -15.667 -9 -23c0 -12 4.33301 -23 13 -33s19.667 -18.667 33 -26s27.833 -13 43.5 -17s30.834 -6 45.501 -6
c2 0 9.83301 1.5 23.5 4.5l45.5 10l47.5 10c15 3 24.5 4.5 28.5 4.5zM619.002 -0.00195312l-74.002 -0.000976562c-131.333 0 -208 41 -230 123c-22 -42 -55.5 -73 -100.5 -93s-102.167 -30 -171.5 -30h-75v177h33c172.667 0 283.334 61.333 332.001 184
c22.667 17.333 35.334 26 38.001 26v-2c-1.33301 0 -2 -0.666992 -2 -2c0 -3.33301 4 -11.666 12 -24.999c-2 -22 -3 -41.667 -3 -59c0 -44.667 9 -72.667 27 -84c25.333 -16.667 53 -27.167 83 -31.5s63 -6.5 99 -6.5h32v-177z" />
    <glyph glyph-name="uniFEF5" unicode="&#xe80a;&#xe800;" horiz-adv-x="907" arabic-form="isolated" 
d="M743 528c-35.333 -366.667 -173.998 -549.995 -415.998 -549.995c-61.333 0 -116 13.667 -164 41s-88.333 66 -121 116c-2 3.33301 -3.83301 7.16602 -5.5 11.499s-2.5 7.83301 -2.5 10.5c0 7.33301 3.66699 11 11 11c1.33301 0 2.66602 -0.333008 3.99902 -1
s2.66602 -1 3.99902 -1c61.333 -12 125 -18 191 -18c16 0 32.833 0.5 50.5 1.5s35.167 2.16699 52.5 3.5c2.66699 8.66699 4 21.667 4 39c0 70 -26.667 189 -80 357c-37.333 129.333 -128 311.666 -272 546.999l70 238c2 5.33301 4.33301 9.16602 7 11.499s5 3.5 7 3.5
c4.66699 0 8 -4.66699 10 -14c3.33301 -6.66699 8.33301 -17.334 15 -32.001l22.5 -50l26 -59.5l26 -60l22 -50.5c6.33301 -14.667 10.833 -25.667 13.5 -33l55.5 -134.5c17.667 -44.333 31.167 -85.5 40.5 -123.5c32.667 -118 57.5 -221.833 74.5 -311.5
s25.167 -166.5 24.5 -230.5c0 -20 -1 -38 -3 -54s-5 -29 -9 -39c161.333 36 242 163 242 381c0 18 -1 35 -3 51l-37 678c0 12 9.66699 34 29 66s47 71 83 117c1.33301 2 3.33301 4 6 6s4.66699 3 6 3c7.33301 0 11 -5.33301 11 -16
c-1.33301 -23.333 -2.33301 -46.5 -3 -69.5s-1 -46.833 -1 -71.5c0 -8 0.5 -26.833 1.5 -56.5s2 -64.667 3 -105s2.33301 -83.333 4 -129s3 -88.334 4 -128.001s2 -73.667 3 -102s1.5 -45.5 1.5 -51.5c0 -36 -0.666992 -70.5 -2 -103.5s-3.33301 -65.833 -6 -98.5z
M424.002 1659c-38 -64.667 -86.998 -112.665 -146.998 -143.998s-130.667 -47 -212 -47h-20c-6.66699 0 -14 0.333008 -22 1c-16.667 1.33301 -36.334 4.16602 -59.001 8.49902s-44.334 9 -65.001 14s-38.167 9.66699 -52.5 14l-21.5 6.5
c-9.33301 0 -19.5 -2.83301 -30.5 -8.5s-23.5 -15.167 -37.5 -28.5c-14.667 -14.667 -25 -22 -31 -22s-9 5 -9 15c0 18.667 4.33301 38.334 13 59.001s20 39.5 34 56.5s29.5 31 46.5 42s33.833 16.5 50.5 16.5c3.33301 0 12.666 -3 27.999 -9s34.5 -12.333 57.5 -19
s48.833 -12.834 77.5 -18.501s58 -8.5 88 -8.5c109.333 0 205.333 34.667 288 104c22.667 20.667 37.334 31 44.001 31c4 -0.666992 6 -3.33398 6 -8.00098c0 -4 -1.66699 -10.333 -5 -19s-10.333 -20.667 -21 -36z" />
    <glyph glyph-name="uniFEF6" unicode="&#xe80e;&#xe801;" horiz-adv-x="1033" arabic-form="final" 
d="M1064 0l-74.001 0.00195312c-158.667 0 -258.667 112.333 -300 337c-63.333 -250.667 -183.666 -376 -360.999 -376c-26.667 0 -53.667 3.83301 -81 11.5s-53.5 18.334 -78.5 32.001s-48.167 30 -69.5 49s-39.666 40.167 -54.999 63.5c-4 6 -6.66699 11.667 -8 17l-3 12
c0 6.66699 5 10 15 10h4c40 -5.33301 77.333 -9.83301 112 -13.5s67.667 -5.5 99 -5.5c15.333 0 29.833 0.5 43.5 1.5s27.167 2.16699 40.5 3.5c1.33301 4.66699 2.16602 10.334 2.49902 17.001s0.5 13.667 0.5 21c0 71.333 -26.667 190.666 -80 357.999
c-18 65.333 -49.833 142.833 -95.5 232.5s-104.167 193.834 -175.5 312.501l70 240c4 9.33301 9 14 15 14c0.666992 0 3.66699 -5.66699 9 -17l21 -44.5l28 -61.5l30 -68l27 -63.5c8 -19.667 14.333 -35.834 19 -48.501c20 -44.667 38.167 -88.334 54.5 -131.001
s30.166 -83.334 41.499 -122.001c34.667 -118.667 59.334 -222.834 74.001 -312.501s22.667 -168.167 24 -235.5c0 -20 -0.833008 -37.667 -2.5 -53s-4.5 -28.333 -8.5 -39c166 29.333 249 156 249 380v52c-8.66699 111.333 -17 224.666 -25 339.999l-23 340
c0 25.333 37.667 87 113 185c6.66699 8.66699 12 13 16 13c5.33301 0 8 -6 8 -18c0 -113.333 3 -246.666 9 -399.999l19 -506c12 -233.333 100 -350 264 -350h32v-177zM423.999 1659c-38 -64.667 -86.998 -112.665 -146.998 -143.998s-130.667 -47 -212 -47h-20
c-6.66699 0 -14 0.333008 -22 1c-16.667 1.33301 -36.334 4.16602 -59.001 8.49902s-44.334 9 -65.001 14s-38.167 9.66699 -52.5 14l-21.5 6.5c-9.33301 0 -19.5 -2.83301 -30.5 -8.5s-23.5 -15.167 -37.5 -28.5c-14.667 -14.667 -25 -22 -31 -22s-9 5 -9 15
c0 18.667 4.33301 38.334 13 59.001s20 39.5 34 56.5s29.5 31 46.5 42s33.833 16.5 50.5 16.5c3.33301 0 12.666 -3 27.999 -9s34.5 -12.333 57.5 -19s48.833 -12.834 77.5 -18.501s58 -8.5 88 -8.5c109.333 0 205.333 34.667 288 104c22.667 20.667 37.334 31 44.001 31
c4 -0.666992 6 -3.33398 6 -8.00098c0 -4 -1.66699 -10.333 -5 -19s-10.333 -20.667 -21 -36z" />
    <glyph glyph-name="uniFEF7" unicode="&#xe80a;&#xe802;" horiz-adv-x="907" arabic-form="isolated" 
d="M274 1622c2 0 2.99609 -1.33301 2.99609 -4c0 -5.33301 -1.66699 -13 -5 -23s-7 -20 -11 -30s-7.83301 -18.667 -11.5 -26s-6.16699 -11 -7.5 -11l-91 -19.5c-27.333 -5.66699 -46.333 -10.5 -57 -14.5c-32 -10 -62.5 -21.833 -91.5 -35.5s-54.5 -28.5 -76.5 -44.5
c-2.66699 0 -4.5 -0.5 -5.5 -1.5s-2.16699 -1.5 -3.5 -1.5c-5.33301 0 -8 3 -8 9c0 4 2.83301 10 8.5 18s13.167 17 22.5 27s20.333 20.833 33 32.5l39 35.5c-56 25.333 -84 57.333 -84 96c0 36.667 24.667 78.334 74 125.001c51.333 49.333 97 74 137 74
c9.33301 0 18.333 -1.33301 27 -4s16.334 -6.33398 23.001 -11.001s12.167 -10 16.5 -16s6.5 -12 6.5 -18c0 -8 -1.33301 -16.667 -4 -26s-6.16699 -18 -10.5 -26s-9.16602 -14.667 -14.499 -20s-10.666 -8 -15.999 -8c-3.33301 0 -7 2.16699 -11 6.5l-14.5 15
c-5.66699 5.66699 -12.667 10.667 -21 15s-18.166 6.5 -29.499 6.5c-9.33301 0 -19.5 -2.16699 -30.5 -6.5s-21.333 -9.83301 -31 -16.5s-17.667 -13.834 -24 -21.501s-9.5 -14.5 -9.5 -20.5c0 -12 4 -23.167 12 -33.5s18.333 -19.166 31 -26.499s27 -13 43 -17
s31.667 -6 47 -6c4 0 13 1.5 27 4.5l45 9.5l45.5 9.5c14.333 3 23.5 4.5 27.5 4.5zM742.996 528c-36 -366.667 -174.33 -550 -414.997 -550c-62 0 -117 13.667 -165 41s-88.333 66 -121 116c-4.66699 8 -7 15.333 -7 22c0 7.33301 3 11 9 11
c1.33301 0 2.83301 -0.333008 4.5 -1s3.16699 -1 4.5 -1c61.333 -12 125.666 -18 192.999 -18c16 0 32.833 0.5 50.5 1.5s35.5 2.16699 53.5 3.5c0.666992 5.33301 1.16699 11.333 1.5 18s0.5 13.667 0.5 21c0 70 -26.667 189 -80 357c-20 64.667 -52.333 142.5 -97 233.5
s-103.334 195.5 -176.001 313.5l71 238c2 5.33301 4.33301 9.16602 7 11.499s5 3.5 7 3.5c3.33301 0 6.66602 -4.66699 9.99902 -14l62 -142l65 -143c20 -46.667 37.833 -91.5 53.5 -134.5s29.167 -84.167 40.5 -123.5c34 -118 58.833 -221.667 74.5 -311
s23.5 -166.333 23.5 -231c0 -41.333 -3.33301 -72.333 -10 -93c160.667 36 241 161.667 241 377c0 10 -0.166992 19.5 -0.5 28.5s-0.833008 17.833 -1.5 26.5l-38 678c0 12 9.83301 34 29.5 66s47.167 71 82.5 117c1.33301 2 3.33301 4 6 6s4.66699 3 6 3
c5.33301 0 8 -3.66699 8 -11v-5c-0.666992 -23.333 -1 -46.5 -1 -69.5v-71.5c0 -46 0.5 -95.167 1.5 -147.5s3.16699 -109.5 6.5 -171.5c2.66699 -58.667 4.66699 -109.667 6 -153s2 -76.666 2 -99.999c0 -36 -0.666992 -70.5 -2 -103.5s-3.33301 -65.833 -6 -98.5z" />
    <glyph glyph-name="uniFEF8" unicode="&#xe80e;&#xe803;" horiz-adv-x="1033" arabic-form="final" 
d="M300 1651c2 0 3 -1.33789 3 -4.00488c0 -8 -2 -17.333 -6 -28s-8.33301 -20.667 -13 -30s-9.16699 -17.166 -13.5 -23.499l-6.5 -9.5l-90 -18.5c-24.667 -5 -43.667 -9.16699 -57 -12.5c-66.667 -19.333 -121.667 -46.666 -165 -81.999
c-2.66699 -1.33301 -5.66699 -2 -9 -2s-5.66602 1.16699 -6.99902 3.5s-2 4.16602 -2 5.49902c0 3.33301 1.33301 6 4 8v-1c14 25.333 48 60.666 102 105.999c-60 25.333 -90 57.333 -90 96c0 36 25.667 78 77 126c49.333 47.333 95 71 137 71c8 0 16 -1.33301 24 -4
s15.333 -6.16699 22 -10.5s12.167 -9.33301 16.5 -15s6.5 -11.5 6.5 -17.5c0 -9.33301 -1.16699 -18.666 -3.5 -27.999s-5.33301 -17.666 -9 -24.999s-8 -13.333 -13 -18s-10.167 -7 -15.5 -7c-2 0 -5.16699 2.33301 -9.5 7s-9.83301 9.66699 -16.5 15
s-14.334 10.333 -23.001 15s-18.667 7 -30 7c-7.33301 0 -16.333 -2.16699 -27 -6.5s-20.834 -9.83301 -30.501 -16.5s-17.834 -14 -24.501 -22s-10 -15.667 -10 -23c0 -12 4.16699 -23.167 12.5 -33.5s19 -19.166 32 -26.499s27.333 -13 43 -17s30.834 -6 45.501 -6
c2.66699 0 11 1.33301 25 4s29.333 5.83398 46 9.50098s32.334 6.83398 47.001 9.50098s24 4 28 4zM1064 -0.00488281l-74 0.00292969c-158.667 0 -258.667 112.333 -300 337c-63.333 -250.667 -183.666 -376 -360.999 -376c-26.667 0 -53.667 3.83301 -81 11.5
s-53.333 18.334 -78 32.001s-47.667 30 -69 49s-39.666 40.167 -54.999 63.5c-4 6 -6.66699 11.667 -8 17l-3 12c0 6.66699 5 10 15 10h4c40 -5.33301 77.167 -9.83301 111.5 -13.5s67.166 -5.5 98.499 -5.5c15.333 0 29.833 0.5 43.5 1.5s27.167 2.16699 40.5 3.5
c1.33301 4.66699 2.16602 10.334 2.49902 17.001s0.5 13.667 0.5 21c0 71.333 -26.667 190.666 -80 357.999c-18 65.333 -49.833 142.833 -95.5 232.5s-104.167 193.834 -175.5 312.501l71 240c4 9.33301 9 14 15 14c0.666992 0 3.66699 -5.66699 9 -17l20.5 -44.5l28 -61.5
l30 -68l26.5 -63.5c8 -19.667 14.333 -35.834 19 -48.501c20 -44.667 38.167 -88.334 54.5 -131.001s30.166 -83.334 41.499 -122.001c34.667 -118.667 59.334 -222.834 74.001 -312.501s22.667 -168.167 24 -235.5c0 -20 -0.833008 -37.667 -2.5 -53s-4.5 -28.333 -8.5 -39
c166 29.333 249 156 249 380v52c-8.66699 111.333 -17 224.666 -25 339.999l-23 340c0 25.333 37.667 87 113 185c6.66699 8.66699 12 13 16 13c5.33301 0 8 -6 8 -18c0 -114 3.16699 -247.5 9.5 -400.5s12.833 -321.5 19.5 -505.5c12 -233.333 99.667 -350 263 -350h32
v-177z" />
    <glyph glyph-name="uniFEF9" unicode="&#xe80a;&#xe804;" horiz-adv-x="907" arabic-form="isolated" 
d="M343 -384c-5.33301 -12.667 -10.332 -23.8359 -14.999 -33.5029s-8.66699 -15.167 -12 -16.5c-36.667 -7.33301 -66.834 -13.666 -90.501 -18.999s-41.834 -9.66602 -54.501 -12.999c-35.333 -11.333 -67.166 -23.666 -95.499 -36.999s-54.5 -27.666 -78.5 -42.999
c-6 0 -9 2.66699 -9 8c0 7.33301 9.66699 20.5 29 39.5l74 69.5c-58 28 -87 61.333 -87 100c0 33.333 25 75 75 125c23.333 24.667 46.833 42.834 70.5 54.501s47.167 17.5 70.5 17.5c7.33301 0 15.166 -1.33301 23.499 -4s15.833 -6.33398 22.5 -11.001
s12.167 -10 16.5 -16s6.5 -12.333 6.5 -19c0 -9.33301 -1.33301 -18.5 -4 -27.5s-6.16699 -17.167 -10.5 -24.5s-9 -13.333 -14 -18s-9.83301 -7 -14.5 -7c-2 0 -5.33301 2.5 -10 7.5s-10.167 10.333 -16.5 16s-14 11 -23 16s-19.167 7.5 -30.5 7.5
c-10 0 -20.5 -2.66699 -31.5 -8s-21 -11.833 -30 -19.5s-16.333 -15.667 -22 -24s-8.5 -15.833 -8.5 -22.5c0 -12 4.33301 -22.833 13 -32.5s19.5 -18 32.5 -25s27.333 -12.5 43 -16.5s30.5 -6 44.5 -6c2.66699 0 11 1.5 25 4.5l46 9.5
c16.667 3.33301 32.334 6.66602 47.001 9.99902s24 5 28 5zM743.001 527.998c-35.333 -366.667 -173.664 -549.998 -414.997 -549.998c-62 0 -117 13.667 -165 41s-88.333 66 -121 116c-4.66699 8 -7 15.333 -7 22c0 7.33301 3 11 9 11c1.33301 0 2.83301 -0.333008 4.5 -1
s3.16699 -1 4.5 -1c61.333 -12 125.666 -18 192.999 -18c16 0 32.833 0.5 50.5 1.5s35.5 2.16699 53.5 3.5c0.666992 5.33301 1.16699 11.333 1.5 18s0.5 13.667 0.5 21c0 70 -26.667 189 -80 357c-20 64.667 -52.333 142.5 -97 233.5s-103.334 195.5 -176.001 313.5l71 238
c2 5.33301 4.33301 9.16602 7 11.499s5 3.5 7 3.5c3.33301 0 6.66602 -4.66699 9.99902 -14l62 -142l65 -143c20 -46.667 37.833 -91.5 53.5 -134.5s29.167 -84.167 40.5 -123.5c34 -118 58.833 -221.667 74.5 -311s23.5 -166.333 23.5 -231
c0 -41.333 -3.33301 -72.333 -10 -93c160.667 36 241 161.667 241 377c0 10 -0.166992 19.5 -0.5 28.5s-0.833008 17.833 -1.5 26.5l-38 678c0 12 9.83301 34 29.5 66s47.5 71 83.5 117c1.33301 2 3.33301 4 6 6s4.66699 3 6 3c5.33301 0 8 -3.66699 8 -11v-5
c-0.666992 -23.333 -1 -46.5 -1 -69.5v-71.5c0 -8 0.333008 -26.833 1 -56.5s1.66699 -64.667 3 -105s2.5 -83.333 3.5 -129s2.16699 -88.334 3.5 -128.001s2.33301 -73.667 3 -102s1 -45.5 1 -51.5c0 -36 -0.666992 -70.5 -2 -103.5s-3.33301 -65.833 -6 -98.5z" />
    <glyph glyph-name="uniFEFA" unicode="&#xe80e;&#xe805;" horiz-adv-x="1033" arabic-form="final" 
d="M318 -384c-3.33301 -11.333 -7.50293 -22.1641 -12.5029 -32.4971s-9.16699 -16.166 -12.5 -17.499c-75.333 -14.667 -123.666 -25.334 -144.999 -32.001c-64 -20 -119 -45.333 -165 -76c-5.33301 -2.66699 -9.33301 -4 -12 -4c-2 0 -4.16699 1 -6.5 3
s-3.5 3.66699 -3.5 5c0 6.66699 10 20.167 30 40.5s45 43.166 75 68.499c-57.333 27.333 -86 60.666 -86 99.999c0 34.667 24.667 76.334 74 125.001c48 48 95 72 141 72c7.33301 0 15 -1.33301 23 -4s15.5 -6.33398 22.5 -11.001s12.833 -10 17.5 -16s7 -12.333 7 -19
c0 -9.33301 -1.16699 -18.5 -3.5 -27.5s-5.66602 -17.167 -9.99902 -24.5s-9.16602 -13.333 -14.499 -18s-11 -7 -17 -7c-2 0 -5.16699 2.5 -9.5 7.5s-9.83301 10.333 -16.5 16s-14.167 11 -22.5 16s-17.5 7.5 -27.5 7.5s-20.333 -2.66699 -31 -8
s-20.5 -11.666 -29.5 -18.999s-16.333 -15.333 -22 -24s-8.5 -16.334 -8.5 -23.001c0 -11.333 4 -21.833 12 -31.5s18.333 -18.167 31 -25.5s26.667 -13 42 -17s30.333 -6 45 -6c2 0 10 1.5 24 4.5l46 9.5c16.667 3.33301 32.5 6.66602 47.5 9.99902s24.5 5 28.5 5z
M1064 0.00195312l-74 0.00292969c-158.667 0 -258.667 112.333 -300 337c-63.333 -250.667 -183.666 -376 -360.999 -376c-26.667 0 -53.667 3.83301 -81 11.5s-53.333 18.334 -78 32.001s-47.667 30 -69 49s-39.666 40.167 -54.999 63.5c-4 6 -6.66699 11.667 -8 17l-3 12
c0 6.66699 5 10 15 10h4c40 -5.33301 77.167 -9.83301 111.5 -13.5s67.166 -5.5 98.499 -5.5c15.333 0 29.833 0.5 43.5 1.5s27.167 2.16699 40.5 3.5c1.33301 4.66699 2.16602 10.334 2.49902 17.001s0.5 13.667 0.5 21c0 71.333 -26.667 190.666 -80 357.999
c-18 65.333 -49.833 142.833 -95.5 232.5s-104.167 193.834 -175.5 312.501l71 240c4 9.33301 9 14 15 14c0.666992 0 3.66699 -5.66699 9 -17l20.5 -44.5l28 -61.5l30 -68l26.5 -63.5c8 -19.667 14.333 -35.834 19 -48.501c20 -44.667 38.167 -88.334 54.5 -131.001
s30.166 -83.334 41.499 -122.001c34.667 -118.667 59.334 -222.834 74.001 -312.501s22.667 -168.167 24 -235.5c0 -20 -0.833008 -37.667 -2.5 -53s-4.5 -28.333 -8.5 -39c166 29.333 249 156 249 380v52c-8.66699 111.333 -17 224.666 -25 339.999l-23 340
c0 25.333 37.667 87 113 185c6.66699 8.66699 12 13 16 13c5.33301 0 8 -6 8 -18c0 -114 3.16699 -247.5 9.5 -400.5s12.833 -321.5 19.5 -505.5c12 -233.333 99.667 -350 263 -350h32v-177z" />
    <glyph glyph-name="uniFEFB" unicode="&#xe80a;&#xe806;" horiz-adv-x="907" arabic-form="isolated" 
d="M744 528c-36 -366.667 -174.665 -549.998 -415.998 -549.998c-62 0 -117 13.667 -165 41s-88.333 66 -121 116c-4.66699 8 -7 15.333 -7 22c0 7.33301 3 11 9 11c1.33301 0 2.83301 -0.333008 4.5 -1s3.16699 -1 4.5 -1c61.333 -12 125.666 -18 192.999 -18
c16 0 32.833 0.5 50.5 1.5s35.5 2.16699 53.5 3.5c0.666992 5.33301 1.16699 11.333 1.5 18s0.5 13.667 0.5 21c0 70 -26.667 189 -80 357c-20 64.667 -52.333 142.5 -97 233.5s-103 195.5 -175 313.5l70 238c2 5.33301 4.33301 9.16602 7 11.499s5 3.5 7 3.5
c3.33301 0 6.66602 -4.66699 9.99902 -14l62 -142l65 -143c20 -46.667 37.833 -91.5 53.5 -134.5s29.167 -84.167 40.5 -123.5c34 -118 58.833 -221.667 74.5 -311s23.5 -166.333 23.5 -231c0 -41.333 -3.33301 -72.333 -10 -93c160.667 36 241 161.667 241 377
c0 10 -0.166992 19.5 -0.5 28.5s-0.833008 17.833 -1.5 26.5l-38 678c0 12 9.83301 34 29.5 66s47.5 71 83.5 117c1.33301 2 3.33301 4 6 6s4.66699 3 6 3c5.33301 0 8 -3.66699 8 -11v-5c-0.666992 -23.333 -1 -46.5 -1 -69.5v-71.5c0 -8 0.333008 -26.833 1 -56.5
s1.66699 -64.667 3 -105s2.5 -83.333 3.5 -129s2.16699 -88.334 3.5 -128.001s2.33301 -73.667 3 -102s1 -45.5 1 -51.5c0 -36 -0.666992 -70.5 -2 -103.5s-3 -65.833 -5 -98.5z" />
    <glyph glyph-name="uniFEFC" unicode="&#xe80e;&#xe807;" horiz-adv-x="1033" arabic-form="final" 
d="M1064 0l-74 0.00292969c-158.667 0 -258.667 112.333 -300 337c-63.333 -250.667 -183.666 -376 -360.999 -376c-26.667 0 -53.667 3.83301 -81 11.5s-53.333 18.334 -78 32.001s-47.667 30 -69 49s-39.666 40.167 -54.999 63.5c-4 6 -6.66699 11.667 -8 17l-3 12
c0 6.66699 5 10 15 10h4c40 -5.33301 77.167 -9.83301 111.5 -13.5s67.166 -5.5 98.499 -5.5c15.333 0 29.833 0.5 43.5 1.5s27.167 2.16699 40.5 3.5c1.33301 4.66699 2.16602 10.334 2.49902 17.001s0.5 13.667 0.5 21c0 71.333 -26.667 190.666 -80 357.999
c-18 65.333 -49.667 142.833 -95 232.5s-104 193.834 -176 312.501l71 240c4 9.33301 9 14 15 14c0.666992 0 3.66699 -5.66699 9 -17l20.5 -44.5l28 -61.5l30 -68l26.5 -63.5c8 -19.667 14.333 -35.834 19 -48.501c20 -44.667 38.167 -88.334 54.5 -131.001
s30.166 -83.334 41.499 -122.001c34.667 -118.667 59.334 -222.834 74.001 -312.501s22.667 -168.167 24 -235.5c0 -20 -0.833008 -37.667 -2.5 -53s-4.5 -28.333 -8.5 -39c166 29.333 249 156 249 380v52c-8.66699 111.333 -17 224.666 -25 339.999l-23 340
c0 25.333 37.667 87 113 185c6.66699 8.66699 12 13 16 13c5.33301 0 8 -6 8 -18c0 -114 3.16699 -247.5 9.5 -400.5s12.833 -321.5 19.5 -505.5c12 -233.333 99.667 -350 263 -350h32v-177z" />
    <glyph glyph-name="uniFDFA" unicode="&#xfdfa;" horiz-adv-x="2759" arabic-form="isolated" 
d="M2455 -407h1l-1 -1v1zM1953 340h-2.00098c0.666992 0 1.33398 0.333008 2.00098 1v-1zM1304 793c-1.33301 0 -2.16699 -0.166992 -2.5 -0.5s-0.833008 -0.5 -1.5 -0.5v2h4v-1zM2403 -281c-17.333 14 -31.5 23.832 -42.5 29.499s-22.167 8.5 -33.5 8.5
c-6.66699 0 -13.834 -1.66699 -21.5 -5c-7.66699 -3.33301 -11.5 -8.66602 -11.5 -15.999c0 -6 3.33301 -10 10 -12zM648.998 1776c2 -10 3.33398 -21.668 4.00098 -35.001s1 -28.666 1 -45.999c0 -22.667 -2.16699 -44.167 -6.5 -64.5s-16.166 -41.166 -35.499 -62.499
c0 13.333 0.833008 27.5 2.5 42.5s2.5 27.833 2.5 38.5c0 14 -0.333008 26.833 -1 38.5s-2.83398 23 -6.50098 34s-8.83398 21.667 -15.501 32s-16 20.833 -28 31.5v95c15.333 -10.667 28 -20.667 38 -30s18 -18.333 24 -27s10.5 -16.834 13.5 -24.501
s5.5 -15.167 7.5 -22.5zM1511 -174.002c-11.333 -15.333 -23 -31.999 -35 -49.999l-35 -52l-83 60c-13.333 -11.333 -25.333 -25 -36 -41l-30 -46c-16.667 13.333 -34.5 26.833 -53.5 40.5s-37.833 26.167 -56.5 37.5c12 17.333 23.667 35.166 35 53.499s23 35.5 35 51.5
l81 -67c14 15.333 26.333 30.333 37 45s21.667 27.667 33 39zM1535 -622.001c0.666992 -1.33301 0.998047 -3.83301 0.998047 -7.5v-12.5c0 -8 -1.83301 -17 -5.5 -27s-8.5 -19.333 -14.5 -28s-12.667 -16 -20 -22s-14.666 -9 -21.999 -9c-8 0 -23.333 8 -46 24
c-19.333 -18.667 -35.333 -31.834 -48 -39.501s-26 -11.5 -40 -11.5c-7.33301 0 -14.333 1.33301 -21 4l-22 7l-67.5 -63.5l-56 -48.5c-17 -14 -33.167 -26.333 -48.5 -37l-45 -31h1c-28 -14 -64.667 -27.667 -110 -41s-102.333 -27 -171 -41l-2 10
c73.333 28.667 138.5 58.167 195.5 88.5s104.5 57.833 142.5 82.5c22.667 14.667 50 35 82 61s66 56 102 90c14 -11.333 24.667 -18.333 32 -21s12.666 -4 15.999 -4c10.667 0 22.334 3.83301 35.001 11.5s27.334 21.5 44.001 41.5c6 -8 12.333 -14.5 19 -19.5
s11.667 -8.16699 15 -9.5c4 0.666992 8.5 3.33398 13.5 8.00098s9.66699 10 14 16s8.33301 11.833 12 17.5l7.5 11.5h7zM783.997 1412l-1.00098 1.00098c-10.667 -37.333 -31.334 -56 -62.001 -56c-11.333 0 -21.833 3.5 -31.5 10.5s-19.5 18.5 -29.5 34.5
c-10.667 -17.333 -19.834 -30.166 -27.501 -38.499s-18.167 -12.5 -31.5 -12.5c-11.333 0 -20.666 2.83301 -27.999 8.5s-13.166 12.834 -17.499 21.501s-7.33301 17.667 -9 27s-2.5 18 -2.5 26v33h-2c-2.66699 -4 -6.66699 -9 -12 -15l-13 -15l-2 -2
c-6.66699 5.33301 -10 9.66602 -10 12.999c0 10.667 20.333 44.667 61 102c6 -0.666992 11.167 -3 15.5 -7s7.83301 -10.833 10.5 -20.5s4.5 -22.5 5.5 -38.5s1.5 -36.333 1.5 -61c0 -2.66699 1 -4 3 -4c6.66699 0 13.667 2.83301 21 8.5s13 13.5 17 23.5
c-2.66699 15.333 -4.66699 30.166 -6 44.499s-3.33301 27.166 -6 38.499c8.66699 7.33301 17.334 15.333 26.001 24l26 26c1.33301 -52.667 6 -90.5 14 -113.5s19.667 -34.5 35 -34.5c3.33301 0 8 1.33301 14 4s9 6.33398 9 11.001c0 7.33301 -2.5 17 -7.5 29
s-11.833 24.667 -20.5 38c6 13.333 11.667 26.666 17 39.999s10.333 27 15 41c14 -31.333 23.833 -58.5 29.5 -81.5s8.5 -43.833 8.5 -62.5zM2264 1770c0 -0.666992 0.331055 -3.16797 0.998047 -7.50098s1.33398 -9.16602 2.00098 -14.499l2 -20
c-1.33301 -83.333 -49 -135 -143 -155c-9.33301 -2.66699 -24.5 -7.66699 -45.5 -15l-71 -24.5l-83 -28.5l-81 -28.5c-25 -9 -46.667 -16.5 -65 -22.5s-29.833 -10 -34.5 -12c-9.33301 -8 -19.5 -17.333 -30.5 -28s-20.5 -21.334 -28.5 -32.001h1
c-13.333 -5.33301 -26.166 -11.166 -38.499 -17.499l-36.5 -18.5c8.66699 44 21.5 79 38.5 105s39.167 48 66.5 66h-1l427 148c24 9.33301 46.167 23 66.5 41s34.166 40.667 41.5 68zM2418.99 876.999c28 19.333 49.833 35.3301 65.5 47.9971s26.167 22.334 31.5 29.001
c-8.66699 12.667 -19.667 25 -33 37s-28.166 22.667 -44.5 32c-16.333 9.33301 -33.666 16.833 -52 22.5c-18.333 5.66699 -37.166 8.5 -56.5 8.5c-42 0 -87.333 -20.833 -136 -62.5s-102.667 -105.167 -162 -190.5c23.333 -3.33301 47 -5.33301 71 -6s44 -1 60 -1
c22 0 42.833 1.5 62.5 4.5s39.5 7.83301 59.5 14.5s40.833 15.334 62.5 26.001s45.5 23.334 71.5 38.001zM1171.99 689.996c0 -28 -2.33301 -63 -7 -105s-12.667 -85.667 -24 -131h-26l-24 338l-7.5 71.5l-13 119l-16 142.5l-16 142l-13.5 117.5
c-4 33.667 -6.66699 56.834 -8 69.501c-3.33301 17.333 -7.16602 35.166 -11.499 53.499l-12.5 54c-4 17.667 -8 34.167 -12 49.5s-7.33301 29 -10 41c7.33301 20.667 15.166 41 23.499 61l26.5 61l61.5 -130.5l61.5 -129.5v-66l-57 72l-5 -4l40.5 -361l41.5 -359z
M1704.99 707.996c-60.667 1.33301 -106.332 18.3291 -136.999 50.9961s-48.334 77 -53.001 133h-2c-7.33301 -21.333 -18 -43 -32 -65s-35 -47.667 -63 -77c37.333 -14 65.833 -25.833 85.5 -35.5s34 -18.667 43 -27s14.167 -16.666 15.5 -24.999s2 -17.833 2 -28.5
c0 -23.333 -1.66699 -44.5 -5 -63.5s-8 -33.5 -14 -43.5c-11.333 -25.333 -34.333 -53 -69 -83s-75.5 -59 -122.5 -87s-97.5 -53 -151.5 -75s-106.333 -37.333 -157 -46c4.66699 -36 9 -71 13 -105s8.33301 -69 13 -105c60.667 12.667 124.5 34.834 191.5 66.501
s138.833 72.834 215.5 123.501c9.33301 -32.667 18 -60.334 26 -83.001s16.667 -41 26 -55s19.5 -24 30.5 -30s23.833 -9 38.5 -9c24.667 0 46.5 6.83301 65.5 20.5s32.833 31.834 41.5 54.501c2.66699 6.66699 8.66699 22.834 18 48.501s18 60.5 26 104.5zM1951 339.992
c0 -12 4.15918 -25.167 12.4922 -39.5s19.333 -28.833 33 -43.5s29.5 -28.834 47.5 -42.501s36.667 -25.667 56 -36s38.666 -18.666 58 -24.999c19.333 -6.33301 37.333 -9.5 54 -9.5c14.667 0 31 2.16699 49 6.5s39 11.5 63 21.5s51.167 23.167 81.5 39.5
s65.166 36.5 104.5 60.5c-8 -23.333 -16.333 -46.166 -25 -68.499l-25 -67.5c-6 -2.66699 -15.5 -7.83398 -28.5 -15.501l-43.5 -25.5l-49.5 -29.5l-46.5 -28l-34.5 -20.5l-13.5 -8v2c-26 -12 -52.5 -23 -79.5 -33s-53.333 -18.667 -79 -26s-50.334 -13 -74.001 -17
s-45.167 -6 -64.5 -6c-47.333 0 -85.833 14.5 -115.5 43.5s-48.5 78.167 -56.5 147.5h-2c-18.667 -70 -41.334 -120 -68.001 -150s-61.667 -45 -105 -45c-42 0 -76.167 14.667 -102.5 44s-43.5 69 -51.5 119c-43.333 -25.333 -82.833 -47.333 -118.5 -66
s-68.167 -34.667 -97.5 -48s-56.5 -24.333 -81.5 -33s-48.833 -15.667 -71.5 -21c2 -44 5 -85.333 9 -124s10.5 -72.167 19.5 -100.5s21.833 -51 38.5 -68s39 -26.167 67 -27.5c24 -1.33301 45.5 -2.33301 64.5 -3s33.167 -1 42.5 -1c7.33301 0 20.666 2.66699 39.999 8
s49 15.333 89 30c12 2.66699 25 5.83398 39 9.50098s29.5 8.5 46.5 14.5s35.5 13.667 55.5 23s42 20.666 66 33.999h37c-7.33301 -14.667 -13.166 -30 -17.499 -46s-6.5 -26.333 -6.5 -31c0 -10 1.66699 -19.833 5 -29.5s8 -18.334 14 -26.001s13.333 -13.834 22 -18.501
s18.334 -7 29.001 -7c23.333 0 49.666 13.333 78.999 40s66.333 71.667 111 135h25c-2 -12 -3.33301 -19.667 -4 -23c-0.666992 -2.66699 -1 -4.33398 -1 -5.00098c0 -38 8 -67.667 24 -89s37.667 -32 65 -32c16 0 27.833 2.33301 35.5 7s14.167 9.66699 19.5 15
c-5.33301 12.667 -10.166 23.167 -14.5 31.5c-4.33301 8.33301 -7.83301 17.166 -10.5 26.499v-1c-2 3.33301 -4.33301 7 -7 11s-5.33398 8.33301 -8 13l29 58.5l30 58.5c5.33301 -0.666992 10.666 -4.5 16 -11.5c5.33301 -7 10 -16.167 14 -27.5s7.16699 -24 9.5 -38
s3.5 -28 3.5 -42c0 -37.333 -4.66699 -70.333 -14 -99s-21.166 -52.667 -35.5 -72c-14.333 -19.333 -30.166 -34 -47.5 -44c-17.333 -10 -34.333 -15 -51 -15c-34 0 -61.333 8.5 -82 25.5s-34.334 40.167 -41.001 69.5c-6.66699 -9.33301 -14.167 -18.833 -22.5 -28.5
l-24.5 -28.5c0 -9.33301 -0.333008 -17.666 -1 -24.999s-1 -12.666 -1 -15.999c0 -32.667 5.16699 -61 15.5 -85s23.833 -43.833 40.5 -59.5s35.5 -27.334 56.5 -35.001s41.833 -11.5 62.5 -11.5c22.667 0 48.167 2.16699 76.501 6.5
c28.333 4.33301 61.666 14.666 100 30.999c38.333 16.333 83.333 40.833 135 73.5s111.834 77.334 180.5 134.001c-1.33301 6 -2.66602 13 -4 21c-1.33301 8 -3.5 16 -6.5 24s-7 15.667 -12 23s-12.167 14 -21.5 20h-1c-1.33301 1.33301 -5.33301 2.16602 -12 2.49902
s-12.667 1.16602 -18 2.49902h-109c-16 0 -29 2.66699 -39 8s-17.833 12.666 -23.5 21.999s-9.5 20 -11.5 32s-3 24.667 -3 38v36c0.666992 20 4.33398 39.167 11 57.5c6.66699 18.333 15.5 34.333 26.5 48s23.5 24.5 37.5 32.5s29 12 45 12
c21.333 0 42.833 -9.33301 64.5 -28s41.334 -42 59 -70c17.667 -28 32.167 -58.5 43.5 -91.5s17 -64.167 17 -93.5c0 -44 -3.16699 -80.833 -9.5 -110.5s-17 -56.167 -32 -79.5s-34.667 -45.666 -59 -66.999s-54.166 -45.666 -89.5 -72.999l-44 -34.5
c-14 -11 -28.333 -17.833 -43 -20.5c-30.667 -17.333 -58.667 -31.666 -84 -42.999s-48.333 -20.5 -69 -27.5s-39.834 -11.833 -57.5 -14.5c-17.667 -2.66699 -34.5 -4 -50.5 -4c-33.333 0 -63.333 7.66699 -90 23s-49.334 36.666 -68.001 63.999s-33 59.5 -43 96.5
s-15 77.5 -15 121.5v21c-16.667 -9.33301 -30.834 -15.5 -42.501 -18.5s-24.167 -4.5 -37.5 -4.5c-42 0 -72 13 -90 39s-27 67 -27 123c-46 -24.667 -86.167 -44.5 -120.5 -59.5s-66 -26.667 -95 -35s-57.333 -14 -85 -17s-58.167 -4.5 -91.5 -4.5
c-35.333 0 -65.166 4.66699 -89.499 14s-44 24 -59 44s-26 45.5 -33 76.5s-11.167 68.5 -12.5 112.5h-1c-1.33301 -2 -2.33301 -4.16699 -3 -6.5s-1.66699 -4.5 -3 -6.5v1c-7.33301 -13.333 -13.666 -27.833 -18.999 -43.5s-11.666 -27.167 -18.999 -34.5l-65 -99
c26.667 -19.333 47 -34.833 61 -46.5s23.333 -23.834 28 -36.501c-2 -20.667 -4.16699 -41.334 -6.5 -62.001s-4.83301 -40.667 -7.5 -60c-38 12.667 -72 20.667 -102 24s-57 5 -81 5c-12 0 -25.167 -1.16699 -39.5 -3.5s-27.166 -5.83301 -38.499 -10.5
c-49.333 -19.333 -97.5 -43.333 -144.5 -72s-91.5 -57.667 -133.5 -87c-44.667 -33.333 -82.5 -58.166 -113.5 -74.499s-59.167 -24.5 -84.5 -24.5c-20.667 0 -39.167 4.33301 -55.5 13s-30 20.5 -41 35.5s-19.5 32.333 -25.5 52s-9.33301 40.5 -10 62.5
c0.666992 3.33301 1 10.333 1 21c5.33301 48.667 48.333 133 129 253l14 -6c4.66699 -2 9.66699 -3.66699 15 -5c-40 -65.333 -68 -116 -84 -152s-24 -63.333 -24 -82c0 -23.333 5.83301 -44 17.5 -62s30.834 -27 57.501 -27c13.333 0 25 1 35 3s21.667 6.83301 35 14.5
s30 19.167 50 34.5l80 64c36.667 29.333 74.667 56.333 114 81s78 44 116 58c7.33301 2 14.166 3.5 20.499 4.5s13.166 2 20.499 3s15.833 2.33301 25.5 4s21.5 4.16699 35.5 7.5v1c-8.66699 3.33301 -20 5 -34 5c-9.33301 0 -18.166 -1.33301 -26.499 -4
s-17.166 -6.66699 -26.499 -12c4.66699 26 12.5 48.833 23.5 68.5s24.5 38.5 40.5 56.5h-1l68.5 34.5c18.333 9 33.333 16 45 21s20 8.33301 25 10s7.83301 2.5 8.5 2.5c30 25.333 54.5 58.666 73.5 99.999s31.167 89.333 36.5 144v5h-97c-40 0 -77.833 4.5 -113.5 13.5
s-68 22 -97 39s-54 37.667 -75 62s-36.5 51.833 -46.5 82.5l-28 114c-10 0 -20.833 -3.16699 -32.5 -9.5s-23.334 -14.666 -35.001 -24.999s-23.334 -22.166 -35.001 -35.499s-22.5 -27 -32.5 -41c-8.66699 -15.333 -18.834 -36.666 -30.501 -63.999s-23.167 -58 -34.5 -92
c-23.333 -65.333 -42.833 -112.333 -58.5 -141s-30.5 -43 -44.5 -43c-10 0 -23.167 8.5 -39.5 25.5s-32.333 41.5 -48 73.5s-29.167 70.833 -40.5 116.5s-17 97.167 -17 154.5c0 29.333 0.333008 56 1 80s1.66699 44 3 60h30c2.66699 -65.333 8.33398 -121.333 17.001 -168
s18.667 -85 30 -115s23.333 -52 36 -66s24.334 -21 35.001 -21c0 1.33301 3 10 9 26s14.167 36 24.5 60l35.5 79.5c13.333 29 27.166 57.333 41.499 85s28.666 53.334 42.999 77.001s27.5 42.167 39.5 55.5c20 22 39.167 39.167 57.5 51.5s36.5 18.5 54.5 18.5
c13.333 0 23.333 -6 30 -18s11.667 -27 15 -45c3.33301 -17.333 7.5 -35 12.5 -53s10.167 -34.833 15.5 -50.5s10.5 -29.5 15.5 -41.5s9.5 -21 13.5 -27c15.333 -22 36 -40.5 62 -55.5s53 -25.167 81 -30.5c18.667 -3.33301 42.5 -6.5 71.5 -9.5s63.833 -4.5 104.5 -4.5h16
c-3.33301 35.333 -6.33301 69.833 -9 103.5s-5.66699 68.167 -9 103.5h-5c-42 0 -79.167 4.66699 -111.5 14s-59.5 24.333 -81.5 45s-38.667 47.834 -50 81.501s-17 74.834 -17 123.501c0 12 2.33301 28.5 7 49.5s10.334 43.667 17.001 68s14 49.5 22 75.5s15 50.333 21 73
c-17.333 12 -30.666 29.833 -39.999 53.5s-17.666 54.834 -24.999 93.501h-2c-10.667 -40.667 -23.167 -74.5 -37.5 -101.5s-30.5 -48.833 -48.5 -65.5s-37.5 -28.834 -58.5 -36.501s-43.167 -12.834 -66.5 -15.501c-26 0.666992 -49.667 7 -71 19s-39.833 28.5 -55.5 49.5
s-27.667 45.833 -36 74.5s-12.5 59.334 -12.5 92.001c0 25.333 1.33301 52.166 4 80.499s9.33398 64.166 20.001 107.499l-2 1c-8.66699 -9.33301 -16.667 -21.833 -24 -37.5s-12.666 -31.834 -15.999 -48.501c-3.33301 -6 -8.33301 -27.833 -15 -65.5s-14 -87.5 -22 -149.5
c-6.66699 -35.333 -17.834 -63.5 -33.501 -84.5s-36.167 -31.5 -61.5 -31.5c-22.667 0 -42.334 7.5 -59.001 22.5s-30.5 34.833 -41.5 59.5s-19.167 52.334 -24.5 83.001s-8 62 -8 94c0 12 0.833008 23.5 2.5 34.5s4.66699 23.333 9 37s10.166 29.167 17.499 46.5
s16.666 38 27.999 62c3.33301 -2 6.16602 -4.16699 8.49902 -6.5s5.16602 -4.5 8.49902 -6.5c-8 -33.333 -14.5 -62.666 -19.5 -87.999s-7.5 -48.666 -7.5 -69.999c0 -38.667 7.16699 -71.834 21.5 -99.501s36.5 -46.167 66.5 -55.5c8 0 15 6.83301 21 20.5
s11.667 31.167 17 52.5s10.333 45.166 15 71.499l14 77.5c10.667 51.333 29.334 97.666 56.001 138.999s62.334 77 107.001 107l7 -9c2.66699 -3.33301 5.66699 -6.66602 9 -9.99902c-14.667 -64 -25.334 -117.5 -32.001 -160.5s-10 -81.5 -10 -115.5
c0 -52 9.33301 -93.833 28 -125.5s49 -47.5 91 -47.5c24.667 0 48.167 5.33301 70.5 16s41.833 25 58.5 43s29.834 38.667 39.501 62s14.5 48 14.5 74c0 30 -4.16699 67 -12.5 111s-19.833 96.333 -34.5 157c5.33301 17.333 10.833 34.333 16.5 51s11.5 33 17.5 49
c4 -6.66699 9.66699 -20.667 17 -42s15 -46 23 -74s15.667 -57.333 23 -88s13 -59 17 -85c7.33301 -46 16.333 -84.667 27 -116s23 -56.5 37 -75.5s29.5 -32.667 46.5 -41s35.5 -12.5 55.5 -12.5c8 0 14.833 1 20.5 3s11.334 5.33301 17.001 10s11.834 11.334 18.501 20.001
l24 32c-12.667 33.333 -25.167 68.166 -37.5 104.499l-35 105l-30.5 92c-9.33301 27.667 -17.666 49.167 -24.999 64.5c1.33301 16.667 3.5 35.667 6.5 57s8.16699 40.666 15.5 57.999l57 -72l57 -72v-35l-37 14c14.667 -40 27 -72.5 37 -97.5s18 -46.667 24 -65
s10.167 -35.666 12.5 -51.999s3.5 -36.166 3.5 -59.499v-31c-1.33301 -6.66699 -2.33301 -12.667 -3 -18s-1 -9.66602 -1 -12.999c0 -48 -12 -87 -36 -117s-58 -45 -102 -45c-13.333 0 -25.5 1.16699 -36.5 3.5s-24.167 8.16602 -39.5 17.499
c-17.333 -48 -29.666 -87.333 -36.999 -118s-11 -56.667 -11 -78c0 -27.333 4.33301 -52 13 -74s20.834 -40.667 36.501 -56s34.334 -27.166 56.001 -35.499s45.167 -12.833 70.5 -13.5c-1.33301 23.333 -3.33301 47.833 -6 73.5s-5 50.834 -7 75.501l16 61.5
c5.33301 21 11 41.5 17 61.5c26 -34 44.167 -72 54.5 -114s15.5 -92.333 15.5 -151c80.667 11.333 160.334 34.166 239.001 68.499s160 77.166 244 128.499c-6 6.66699 -16.167 13.667 -30.5 21s-29.5 14.333 -45.5 21s-31.5 12.667 -46.5 18l-33.5 12
c-18.667 6 -40.5 11.667 -65.5 17s-54.5 10.666 -88.5 15.999c7.33301 18 13.833 36.167 19.5 54.5s12.167 36.166 19.5 53.499l60 19v1c36.667 13.333 67 30.333 91 51s43.167 43.667 57.5 69s24.333 52.5 30 81.5s8.5 58.5 8.5 88.5c0 13.333 -0.166992 26 -0.5 38
s-1.5 22.667 -3.5 32l-36 276l-35 276l16.5 64.5l17.5 64.5l39 -99c2.66699 -5.33301 5.5 -12.5 8.5 -21.5s6.16699 -20.167 9.5 -33.5l61 -615c5.33301 -42 11.833 -78.167 19.5 -108.5s14.167 -51.833 19.5 -64.5c7.33301 -17.333 18.833 -31.5 34.5 -42.5
s34.167 -18.5 55.5 -22.5c-3.33301 24.667 -6 50.167 -8 76.5s-5.66699 51.5 -11 75.5l15.5 65l14.5 65l42.5 -108.5c10.333 -27.667 18.166 -50.667 23.499 -69s8.83301 -33.833 10.5 -46.5s2.5 -26.334 2.5 -41.001c10 7.33301 19.833 15 29.5 23s19.5 16.833 29.5 26.5
l32.5 32l39.5 39.5h15c5.33301 -35.333 14.166 -63.833 26.499 -85.5s22.833 -38.167 31.5 -49.5l78 119.5c27.333 41.667 56.333 79.667 87 114s63.167 62.666 97.5 84.999s70.833 33.5 109.5 33.5c33.333 0 62.166 -5 86.5 -15c24.333 -10 44.666 -23.167 61 -39.5
c16.333 -16.333 28.5 -34.833 36.5 -55.5s12 -41.667 12 -63c0 -13.333 -1.83301 -28.166 -5.5 -44.499s-6.5 -28.166 -8.5 -35.499c-2.66699 -33.333 -17.5 -65.666 -44.5 -96.999s-61.167 -59.166 -102.5 -83.499s-87.166 -43.833 -137.5 -58.5
c-50.333 -14.667 -99.833 -22 -148.5 -22c-21.333 0 -43.666 1 -66.999 3s-47 7.66699 -71 17c-20.667 -20 -36.667 -40 -48 -60h-31l37 87c-6 6 -14.667 16.333 -26 31s-21.666 34.334 -30.999 59.001c-9.33301 -21.333 -20.666 -39 -33.999 -53
s-30.666 -25.667 -51.999 -35c0.666992 -6.66699 1.83398 -19 3.50098 -37s3.16699 -37 4.5 -57s2.66602 -38.167 3.99902 -54.5s2 -26.166 2 -29.499c0 -2.66699 1 -12.334 3 -29.001s4.66699 -37.167 8 -61.5l10.5 -78l10.5 -79c3.33301 -25 6 -46.5 8 -64.5
s3.33301 -29.333 4 -34c2.66699 -20 7 -38.667 13 -56s14.167 -32.5 24.5 -45.5s22.833 -23.167 37.5 -30.5s32.334 -11 53.001 -11c5.33301 0 14.5 1.16699 27.5 3.5s24.833 5.83301 35.5 10.5l-65 63.5c-16 15.667 -27.667 28.5 -35 38.5v-1
c-8 23.333 -16.167 43.5 -24.5 60.5s-12.5 33.167 -12.5 48.5c0 8 0.833008 19.333 2.5 34s4.66699 30.5 9 47.5s10.666 34.333 18.999 52s19.166 33.667 32.499 48s29.833 26 49.5 35s42.834 13.5 69.501 13.5c58 0 110 -8.5 156 -25.5s88.333 -43.833 127 -80.5v-24
c-20.667 7.33301 -40.834 13 -60.5 17c-19.667 4 -38.167 7.16699 -55.5 9.5s-33.5 3.83301 -48.5 4.5s-27.833 1 -38.5 1c-6.66699 0 -14.334 -0.333008 -23 -1c-8.66699 -0.666992 -20.5 -3.16699 -35.5 -7.5s-34.5 -10.833 -58.5 -19.5s-55 -21 -93 -37l2 9z" />
    <glyph glyph-name="uniFDF7" unicode="&#xfdf7;" horiz-adv-x="3520" arabic-form="isolated" 
d="M1419 985c8 2 14.332 3.33301 18.999 4s8.33398 1 11.001 1c2 0 3.5 -0.166992 4.5 -0.5s1.83301 -0.5 2.5 -0.5c1.33301 0 2 0.333008 2 1c16 4.66699 31.333 8.66699 46 12s30.667 6 48 8c-4.66699 8 -10.667 15.167 -18 21.5s-15.333 11.833 -24 16.5
s-17.5 8.16699 -26.5 10.5s-17.5 3.5 -25.5 3.5c-11.333 0 -20.5 -7.66699 -27.5 -23s-11.167 -33.333 -12.5 -54h1zM805.999 -24c-62 -26 -114.332 -49.5 -156.999 -70.5s-70.334 -37.167 -83.001 -48.5c10 -7.33301 25.5 -12.333 46.5 -15s47.167 -4 78.5 -4
c26.667 0 51.5 2.66699 74.5 8s41.833 12 56.5 20zM665 1168c0 -35.333 -1.99902 -66.001 -5.99902 -92.001s-9 -47 -15 -63l-10 1v17c0 44 -6 88.5 -18 133.5s-29.667 88.167 -53 129.5v-1c0 -12 -1.33301 -18 -4 -18c-4 0 -9.33301 6.16699 -16 18.5
s-13.334 26 -20.001 41l-18.5 43c-5.66699 13.667 -9.16699 21.834 -10.5 24.501c0 11.333 0.166992 24 0.5 38s1.5 28.333 3.5 43c23.333 -16.667 45 -38.167 65 -64.5s37.667 -54.333 53 -84s27.333 -59 36 -88s13 -55.167 13 -78.5zM759.001 -530.001l-40.5 -14.5
l-67.5 -24.5l-80 -29.5l-78.5 -29c-24.333 -9 -45.666 -16.5 -63.999 -22.5s-30.166 -9.66699 -35.499 -11v1c0 2.66699 3.16699 12.5 9.5 29.5s12.166 40.5 17.499 70.5c5.33301 1.33301 17.333 5.5 36 12.5l66.5 25.5l82.5 32l82.5 33l67.5 29
c19.333 8.66699 31.666 15 36.999 19zM457.001 675.999c3.33301 -7.33301 5.5 -13.1699 6.5 -17.5029s1.5 -9.16602 1.5 -14.499s-2 -12.833 -6 -22.5s-9 -17.834 -15 -24.501c-7.33301 25.333 -15 44.333 -23 57s-18.333 19 -31 19c-8 0 -12 -8.66699 -12 -26
c0 -8.66699 0.833008 -21.5 2.5 -38.5s3.66699 -34.667 6 -53s4.33301 -35.833 6 -52.5s2.5 -29.334 2.5 -38.001c0 -14 -1.33301 -30.167 -4 -48.5s-6.16699 -35.666 -10.5 -51.999s-9.16602 -30.333 -14.499 -42s-10.333 -17.5 -15 -17.5c-11.333 0 -18.166 6 -20.499 18
s-3.5 31 -3.5 57l2 37c0 8.66699 -4.5 21.834 -13.5 39.501s-20 36 -33 55s-26.667 36.833 -41 53.5s-27.5 28.334 -39.5 35.001c-2 0 -4.33301 -1.33301 -7 -4c-1.33301 -1.33301 -2.33301 -3 -3 -5l-5 -5c-25.333 1.33301 -46.5 5.5 -63.5 12.5s-25.5 17.833 -25.5 32.5
v53c0 10 3.83301 18.333 11.5 25s17.167 10.334 28.5 11.001c60.667 -36 110.167 -81.167 148.5 -135.5s60.166 -112.5 65.499 -174.5c7.33301 13.333 13.166 27.166 17.499 41.499s6.5 28.833 6.5 43.5c0 8.66699 -1.33301 21.834 -4 39.501l-8.5 55.5l-8.5 55
c-2.66699 17.333 -4 30.333 -4 39c0 46 16 69 48 69zM2107 -748.005c-24 -34 -44 -60.3359 -60 -79.0029s-30.667 -29 -44 -31c-11.333 6.66699 -23.5 12.834 -36.5 18.501l-36.5 15.5c-0.666992 0.666992 -3.16699 2.16699 -7.5 4.5s-7.16602 3.5 -8.49902 3.5l-15 3
c-1.33301 0.666992 -2.5 1.33398 -3.5 2.00098s-2.16699 1.33398 -3.5 2.00098c-1.33301 -1.33301 -2.33301 -2.5 -3 -3.5s-1.33398 -2.16699 -2.00098 -3.5h-1c-9.33301 -10.667 -22 -23.667 -38 -39s-32.667 -27.333 -50 -36l-39 19.5
c-12.667 6.33301 -25.667 12.5 -39 18.5l-10 5c-2.66699 0 -6.66699 1.83301 -12 5.5s-7.66602 5.16699 -6.99902 4.5h1c-8.66699 3.33301 -15.834 6.5 -21.501 9.5s-11.167 6.16699 -16.5 9.5c29.333 32 52.333 58.167 69 78.5s26 32.833 28 37.5v-1
c0.666992 1.33301 1.5 2.83301 2.5 4.5s1.83301 3.16699 2.5 4.5l136 -77l25.5 23.5l26 24.5c8.33301 8 15.833 15.833 22.5 23.5s12 14.167 16 19.5zM2080 713.992c0 -39.333 -6.50586 -68.5 -19.5059 -87.5s-31.167 -28.5 -54.5 -28.5c-10 0 -19 2.16699 -27 6.5
s-17 11.166 -27 20.499h1l-6 6l-33 -27.5c-11.333 -9 -22.333 -17 -33 -24s-20.5 -12.667 -29.5 -17s-16.5 -6.5 -22.5 -6.5c-34 0 -58.167 12.5 -72.5 37.5s-22.166 58.5 -23.499 100.5c4.66699 38 9.33398 68 14.001 90s12.667 33 24 33c8 0 12.833 -1.5 14.5 -4.5
s2.5 -8.5 2.5 -16.5c0 -9.33301 -1.16699 -20 -3.5 -32s-3.5 -21 -3.5 -27c0 -20.667 3.66699 -36.167 11 -46.5s19.666 -15.5 36.999 -15.5c20.667 0 36.667 4 48 12s19.333 17.667 24 29v17c0 13.333 0.666992 27.333 2 42s3.33301 31.334 6 50.001l8 -10l8 -10l10 -16
c6.66699 -6.66699 12.667 -14.167 18 -22.5l15 -22.5c4.66699 -6.66699 9.33398 -12.334 14.001 -17.001s9.33398 -7 14.001 -7c2.66699 0 4.83398 1.83301 6.50098 5.5s2.83398 7.5 3.50098 11.5c-5.33301 9.33301 -10.166 21.5 -14.499 36.5s-6.83301 26.5 -7.5 34.5
c2.66699 12.667 6 26.5 10 41.5s8 28.833 12 41.5c23.333 -33.333 41.5 -64.666 54.5 -93.999s19.5 -57 19.5 -83zM2129 1570.99l-35.999 -11.5l-84 -27.5l-116 -38.5l-132.5 -44l-132.5 -44l-117 -38.5l-84.5 -28c-21.667 -7.33301 -33.834 -11.333 -36.501 -12l-62 -22
l-59 -20.5l-50.5 -17c-15 -5 -26.833 -8.83301 -35.5 -11.5l6.5 17.5c2.33301 6.33301 4.16602 11.5 5.49902 15.5l3 7c0 7.33301 1 13.166 3 17.499s3.66699 8.5 5 12.5c1.33301 4.66699 2.33301 8.5 3 11.5s1.33398 5.16699 2.00098 6.5l45 15.5l98 34l133 46l151 52
l150.5 51.5l132 45l96 33c25 8.66699 39.167 13.334 42.5 14.001l84 26zM3203 182.992c0 -26.667 -1.33301 -55.002 -4 -85.002s-6.33398 -61.333 -11 -94c-9.33301 -36.667 -20.333 -67.167 -33 -91.5s-27.334 -41.5 -44 -51.5v31c0 7.33301 1.5 17.333 4.5 30l9.5 42
c0 4 1 9 3 15s3 10 3 12c2 11.333 3.83301 21 5.5 29s2.5 13.667 2.5 17c0 15.333 -1 35.5 -3 60.5s-4.66699 53.167 -8 84.5s-7.16602 64.833 -11.5 100.5l-13.5 109l-14.5 110.5l-14.5 104c-4.66699 34.667 -8.16699 69 -10.5 103s-6.16602 61 -11.5 81l-25 186.5
c-8 59 -15 112.833 -21 161.5s-10.667 91.334 -14 128.001s-5 65 -5 85c0 6.66699 1.83301 17.334 5.5 32.001s8.16699 29.5 13.5 44.5s11 28.167 17 39.5s11.333 17 16 17c6.66699 0 10.834 -3.5 12.5 -10.5c1.66699 -7 2.83398 -16 3.5 -27
c0.666992 -11 1.16699 -23.667 1.5 -38s2.5 -28.5 6.5 -42.5c0.666992 -1.33301 1 -4 1 -8h-15l14 -93.5l20 -141.5l23.5 -172l25 -184.5l24.5 -179l21 -155.5l14.5 -114.5c3.66699 -30.333 5.83398 -48.833 6.5 -55.5c2 -12 3.33301 -25.833 4 -41.5s1 -28.167 1 -37.5z
M1548 -415.01c0 13.333 -3.16602 35.333 -9.49902 66s-14.833 67.167 -25.5 109.5s-23.334 89.5 -38.001 141.5l-46 163c-14.667 -1.33301 -29.167 -2.33301 -43.5 -3s-25.166 -1 -32.499 -1c-66.667 0 -126.167 12.333 -178.5 37s-96.833 60 -133.5 106l-1 -3l-1 -1l-3 -4
c-0.666992 -0.666992 -1.33398 -1.16699 -2.00098 -1.5s-1.66699 -1.16602 -3 -2.49902l-5 -5l-42.5 -49.5l-41 -47l-36.5 -41.5c-11.333 -12.667 -21.333 -23.334 -30 -32.001c7.33301 -42.667 14.833 -84 22.5 -124s15.667 -76.5 24 -109.5s16.666 -61.5 24.999 -85.5
s16.5 -42 24.5 -54c28 -42 73 -72.833 135 -92.5s136.667 -29.5 224 -29.5c10.667 0 23.834 0.333008 39.501 1s33 1.66699 52 3s39.167 3 60.5 5s43 4.33301 65 7v47zM2252 -179.01c0 60.667 -1.82812 122.001 -5.49512 184.001s-7.16699 125.333 -10.5 190
c-21.333 5.33301 -42 12.166 -62 20.499s-34 16.166 -42 23.499c-21.333 -26.667 -48.333 -47.5 -81 -62.5s-70 -22.5 -112 -22.5c-28.667 0 -52.334 2.33301 -71.001 7s-31.334 12.667 -38.001 24c-16 -11.333 -33.333 -21.666 -52 -30.999s-39.167 -18.333 -61.5 -27
s-47 -17 -74 -25s-57.5 -16.333 -91.5 -25c-0.666992 -0.666992 -1.33398 -1 -2.00098 -1c-1.33301 0 -2.33301 -0.333008 -3 -1l-26 -4l26.5 -128c8.33301 -41.333 15.5 -79.333 21.5 -114s10.833 -65.167 14.5 -91.5s5.5 -46.5 5.5 -60.5v-26
c0 -6 -0.333008 -13.5 -1 -22.5s-1.33398 -17.5 -2.00098 -25.5v-4c0 -10.667 -0.5 -19.667 -1.5 -27s-1.5 -14.666 -1.5 -21.999c40 10 78.667 21 116 33s70.166 23.833 98.499 35.5s51.166 22.667 68.499 33s26 18.833 26 25.5c4 6.66699 8.16699 15.5 12.5 26.5
s8.83301 21.667 13.5 32s9.66699 19.5 15 27.5s10.666 13 15.999 15l-1 -34v-1c0 -0.666992 -0.166992 -1 -0.5 -1s-0.5 -0.333008 -0.5 -1v-16c0 -7.33301 -0.666992 -13.833 -2 -19.5s-2.66602 -10.834 -3.99902 -15.501c17.333 -10.667 34.5 -20.667 51.5 -30
s32.833 -17.333 47.5 -24s27.834 -12 39.5 -16c11.667 -4 20.834 -6 27.501 -6c19.333 0 37.833 6 55.5 18s33.167 27.667 46.5 47s24 41.5 32 66.5s12 50.167 12 75.5zM3246 -322.009l-8.99414 -3.99121l-240.5 -97.5c-70.333 -27.667 -133.5 -50.667 -189.5 -69
s-106.167 -32.5 -150.5 -42.5s-85.166 -15.333 -122.5 -16c-40 0 -76.167 6 -108.5 18s-56.5 28 -72.5 48c-10.667 13.333 -23.834 35.166 -39.5 65.499c-15.667 30.333 -32.834 66.166 -51.5 107.499c-4.66699 -34 -13 -65.167 -25 -93.5s-26.167 -52.666 -42.5 -72.999
s-34.333 -36.166 -54 -47.499s-39.834 -17 -60.501 -17c-76.667 0 -138.667 39.667 -186 119c-8 -24 -22.167 -45.667 -42.5 -65s-45 -36.5 -74 -51.5s-62 -28 -99 -39s-76.167 -19.5 -117.5 -25.5c-2.66699 -14.667 -5.66699 -28.334 -9 -41.001s-8.33301 -23.667 -15 -33
c-3.33301 9.33301 -5.33301 16.333 -6 21s-1 9.66699 -1 15c0 2 0.833008 6 2.5 12l4.5 16v2c-54 -5.33301 -103.333 -9.5 -148 -12.5s-80 -4.5 -106 -4.5c-76 0 -141.167 7.83301 -195.5 23.5s-98.5 40.5 -132.5 74.5c-28.667 32.667 -52.834 75.167 -72.501 127.5
s-33.834 116.5 -42.501 192.5c-22.667 -39.333 -50.167 -66.833 -82.5 -82.5s-74.166 -23.5 -125.499 -23.5c-27.333 0 -55.833 2.33301 -85.5 7s-56.667 10.5 -81 17.5s-44.5 14.833 -60.5 23.5s-24 17 -24 25c0 77.333 54.667 141.666 164 192.999
c56 17.333 104.333 34.166 145 50.499s78 29.833 112 40.5c0 8 -0.166992 17 -0.5 27s-0.833008 18 -1.5 24v6c-0.666992 6 -1 11.5 -1 16.5v15.5c0 7.33301 0.166992 14.166 0.5 20.499s0.5 12.166 0.5 17.499c0 8.66699 -1 16 -3 22c1.33301 9.33301 6 24.333 14 45
s20 46.667 36 78l27 -231l91 78.5l66 57.5c-7.33301 22.667 -15 50 -23 82s-16 66.167 -24 102.5s-15.833 74.166 -23.5 113.499s-14.5 77.333 -20.5 114c-3.33301 12 -5.66602 22.667 -6.99902 32s-2 17.666 -2 24.999c0 3.33301 -0.5 7.83301 -1.5 13.5
s-3.83301 13.5 -8.5 23.5c-8.66699 -67.333 -24.834 -132.833 -48.501 -196.5s-52.167 -124.5 -85.5 -182.5c-17.333 -30.667 -37 -60.334 -59 -89.001s-45.333 -55.167 -70 -79.5s-49.667 -45.833 -75 -64.5s-50 -33.667 -74 -45c-18 -8.66699 -39.333 -16.5 -64 -23.5
s-51 -13.667 -79 -20s-57 -12.166 -87 -17.499l-90 -16l-1 8c32.667 25.333 63.167 47.833 91.5 67.5l87.5 60.5l3 2c11.333 10.667 24 20.5 38 29.5s26.333 18.167 37 27.5l92.5 66c27.667 20.667 51.5 39.5 71.5 56.5s36.167 31.833 48.5 44.5s20.5 22.334 24.5 29.001
c4.66699 17.333 8 35.166 10 53.499s3 35.166 3 50.499c0 8.66699 -1 19 -3 31s-4.83301 24.833 -8.5 38.5s-7.66699 27.667 -12 42s-8.83301 27.833 -13.5 40.5c-6.66699 13.333 -16.834 28.5 -30.501 45.5s-29.667 35.333 -48 55l-61 62.5l-69.5 66
c-53.333 54 -100.5 95.333 -141.5 124s-73.167 43.667 -96.5 45l-1 -2l-1 -1l-3.5 -2.5l-8 -5.5c-3 -2 -5.83301 -4 -8.5 -6s-4.66699 -3.33301 -6 -4c-36.667 16 -65.834 29.667 -87.501 41s-34.167 18 -37.5 20c-7.33301 8.66699 -13.833 25 -19.5 49s-8.5 55 -8.5 93
c0 18.667 1.66699 31.334 5 38.001s10 10 20 10c43.333 0 94.333 -14.333 153 -43s123.334 -73.667 194.001 -135c59.333 -50.667 113.333 -101.334 162 -152.001s90.667 -102.334 126 -155.001c15.333 -25.333 28 -55.333 38 -90s15 -75 15 -121
c0 -15.333 -1.16699 -33.666 -3.5 -54.999s-5.83301 -43.666 -10.5 -66.999c18.667 22.667 37.167 49 55.5 79s34.666 60.833 48.999 92.5s25.833 62.167 34.5 91.5s13 54.666 13 75.999c0 5.33301 -0.166992 10 -0.5 14s-0.833008 7.66699 -1.5 11
c0 2.66699 -1 13.834 -3 33.501l-7.5 72.5l-10 93l-10.5 96l-9 81c-2.66699 23.333 -4.33398 39 -5.00098 47c-3.33301 25.333 -6.16602 48.166 -8.49902 68.499s-3.5 37.166 -3.5 50.499c8.66699 27.333 17.5 52.666 26.5 75.999s18.167 44.666 27.5 63.999
c20 -159.333 39.833 -304.166 59.5 -434.499s38.834 -244.666 57.501 -342.999s36.334 -179.666 53.001 -243.999s32 -110.166 46 -137.499c33.333 -34.667 77 -63.167 131 -85.5s111.667 -33.833 173 -34.5c-0.666992 0 -1.33398 0.333008 -2.00098 1c-2 2 -3.66699 4 -5 6
c-4.66699 15.333 -11.5 36.666 -20.5 63.999l-29.5 92l-32.5 108.5c-11 38.333 -21 75.666 -30 111.999s-16.333 70.333 -22 102s-8.5 58.5 -8.5 80.5c0 17.333 3.5 35.666 10.5 54.999s16.667 37.666 29 54.999s26.666 33.166 42.999 47.499s33.833 25.166 52.5 32.499
c10.667 77.333 25.667 137.833 45 181.5s41.666 65.5 66.999 65.5c12 0 27.5 -4.16699 46.5 -12.5s40.333 -20.166 64 -35.499s48.667 -33.5 75 -54.5s53.166 -44.5 80.499 -70.5c-2.66699 -30 -5.66699 -55.667 -9 -77s-7.33301 -35.333 -12 -42
c-4 -2.66699 -12.5 -6.33398 -25.5 -11.001s-29.667 -9.83398 -50 -15.501s-43.666 -11.834 -69.999 -18.501l-85.5 -21c-50 -9.33301 -92 -20.833 -126 -34.5s-54.667 -26.834 -62 -39.501c3.33301 -15.333 7.5 -32.5 12.5 -51.5l14.5 -55l12.5 -47.5
c3.66699 -14 5.83398 -24 6.50098 -30c1.33301 -6 4.83301 -18.333 10.5 -37l19.5 -65l23.5 -78l23.5 -76.5l19 -60c5.33301 -16.333 8.66602 -25.833 9.99902 -28.5v1c1.33301 -1.33301 2 -3.33301 2 -6s0.666992 -5 2 -7v1
c1.33301 -1.33301 2.83301 -4.16602 4.5 -8.49902s2.5 -8.16602 2.5 -11.499c10.667 0.666992 23.334 1.83398 38.001 3.50098s30 3.66699 46 6s32.333 5.16602 49 8.49902s32.667 7 48 11c38 8.66699 71 18.667 99 30s49.667 21 65 29h-1
c7.33301 12 15.666 24.667 24.999 38s21 26.666 35 39.999v-36c-2.66699 -3.33301 -5.33398 -10.5 -8.00098 -21.5s-8 -25.167 -16 -42.5c33.333 2.66699 65 5.33398 95 8.00098s60 6.33398 90 11.001c22.667 0 43.167 8.16699 61.5 24.5s31.833 37.166 40.5 62.499
c6 12.667 12.667 25.5 20 38.5s13 21.833 17 26.5c3.33301 -6.66699 5.33301 -11.334 6 -14.001s1 -5.66699 1 -9c0 -4 -1 -9.5 -3 -16.5s-4.33301 -14 -7 -21s-5.16699 -13 -7.5 -18s-4.16602 -8.16699 -5.5 -9.5c0 -3.33301 -1.5 -6.16602 -4.5 -8.49902
s-4.5 -4.16602 -4.5 -5.49902c8.66699 -1.33301 19.167 -2.5 31.5 -3.5s22.5 -1.5 30.5 -1.5c-1.33301 22 -3.5 52.333 -6.5 91l-10 130.5l-11.5 154.5l-12 163l-12 156l-10.5 134l-7.5 96.5c-2 25 -3 39.5 -3 43.5l19 48l4.5 13.5c1.66699 5 2.5 8.16699 2.5 9.5l4 12
c4.66699 13.333 9.83398 26.333 15.5 39l12.5 28l9 -1c0 -11.333 0.666992 -19.666 2 -24.999v-7c0 -0.666992 0.166992 -1.16699 0.5 -1.5s0.5 -1.16602 0.5 -2.49902v-5c1.33301 -2 2 -4.5 2 -7.5v-5.5v-5c1.33301 -3.33301 2 -6.83301 2 -10.5v-9.5v-3l6 -80l9 -122.5
l11 -150.5c4 -54 7.83301 -108.667 11.5 -164l11 -164.5l10 -151c3 -46.333 5.5 -87.333 7.5 -123s3.33301 -62.834 4 -81.501c28.667 6 53.834 13.833 75.5 23.5c21.667 9.66699 35.5 19.834 41.5 30.501l7 8c1.33301 3.33301 2.33301 6.83301 3 10.5
s1.66699 6.83398 3 9.50098l2 6c4.66699 8 8.83398 15.5 12.5 22.5c3.66699 7 11.834 16.833 24.5 29.5l1 -55c0 -7.33301 4.5 -15.166 13.5 -23.499s20.333 -16 34 -23s28.834 -12.667 45.5 -17c16.667 -4.33301 33.334 -6.5 50 -6.5c2.66699 0 6.5 1.5 11.5 4.5
s9.16699 6.5 12.5 10.5c-18 73.333 -34.5 147 -49.5 221s-28 145.333 -39 214s-19.667 133 -26 193s-9.5 112.667 -9.5 158c0 13.333 -2.5 29.5 -7.5 48.5s-11 38.5 -18 58.5s-14.167 39 -21.5 57s-13.666 32.333 -19 43c0 0.666992 -0.833008 2.33398 -2.5 5.00098
s-2.5 5 -2.5 7c0 4 2 14 6 30s8.5 33 13.5 51s10 34.667 15 50s8.5 24 10.5 26l6 -9l6 -4c2 -1.33301 3.66699 -2 5 -2c1.33301 -5.33301 4 -13 8 -23s8.83301 -21.333 14.5 -34s12.167 -25.834 19.5 -39.501l22 -40.5v1c2 -4 3.5 -7.83301 4.5 -11.5
s3.16699 -7.83398 6.5 -12.501v1c0.666992 -0.666992 0.833984 -1.16699 0.5 -1.5c-0.333008 -0.333008 -0.166016 -0.833008 0.5 -1.5c5.33301 -10 10.666 -20.667 16 -32l15 -31.5c4.66699 -9.66699 8.33398 -18.167 11 -25.5c2.66699 -7.33301 4 -12 4 -14
c-0.666992 -10.667 -3 -25.834 -7 -45.501s-10 -41.167 -18 -64.5l-11 -32c2.66699 -22 7.16699 -52.833 13.5 -92.5l21.5 -130l25.5 -144l25 -136l19.5 -106.5c5.33301 -29.333 8.66602 -47.333 10 -54c0 -48 -3.66699 -89.667 -11 -125s-18.666 -66.666 -34 -93.999
c-8 -7.33301 -18.667 -13.833 -32 -19.5s-28.333 -8.5 -45 -8.5c-30 0 -57.5 6.66699 -82.5 20s-47.833 31 -68.5 53c-21.333 -49.333 -64.333 -79.666 -129 -90.999v-15c2 -46 4.5 -93 7.5 -141s7 -93.5 12 -136.5s11.5 -82.167 19.5 -117.5s17.333 -63.333 28 -84v1
c10.667 -14.667 23 -28.834 37 -42.501s29.167 -25.834 45.5 -36.501s33.666 -19.167 52 -25.5c18.333 -6.33301 37.166 -9.5 56.5 -9.5c30.667 0 49.334 1.66699 56 5c-20.667 26 -39 51.667 -55 77s-29.333 51 -40 77s-18.667 53.167 -24 81.5s-8 58.5 -8 90.5
c0 14 3.5 30.333 10.5 49s15.833 37.334 26.5 56.001s22.5 36.167 35.5 52.5s25.5 28.833 37.5 37.5c32 23.333 66.833 41.666 104.5 54.999s75.5 20 113.5 20c26 0 51.833 -4.83301 77.5 -14.5s49.5 -22.167 71.5 -37.5c17.333 -17.333 33.333 -36.5 48 -57.5
s28.667 -46.5 42 -76.5c-20 8.66699 -40.333 16.834 -61 24.501s-40.667 14.334 -60 20.001s-37.833 10.167 -55.5 13.5s-33.167 5 -46.5 5c-23.333 0 -50.5 -3 -81.5 -9s-60.333 -14 -88 -24s-51 -21.333 -70 -34s-28.5 -26 -28.5 -40c0 -26 7.66699 -54.667 23 -86
s35 -60.5 59 -87.5s50.5 -49.5 79.5 -67.5s57.5 -27 85.5 -27c62.667 0 136.334 12.167 221 36.5c84.667 24.333 182 61.833 292 112.5z" />
    <glyph glyph-name="afii57409" unicode="&#x621;" horiz-adv-x="671" arabic-form="isolated" 
d="M512 247c-46.667 -79.333 -74.334 -120.001 -83.001 -122.001c-38 -9.33301 -76.167 -20 -114.5 -32s-74.666 -24.833 -108.999 -38.5s-66.333 -28.167 -96 -43.5s-55.167 -30.666 -76.5 -45.999c-6 -4 -12.333 -6 -19 -6c-2 0 -4.83301 0.833008 -8.5 2.5
s-5.5 5.16699 -5.5 10.5c-0 4 1.33301 8.66699 4 14c31.333 49.333 75.666 91.666 132.999 126.999c-76.667 38.667 -115 81.667 -115 129c0 26 9.66699 54.667 29 86s46 63 80 95c34.667 32.667 68.5 57.667 101.5 75s64.5 26 94.5 26
c12.667 0 26.334 -3.16699 41.001 -9.5s28.334 -14.666 41.001 -24.999s23.167 -21.833 31.5 -34.5s12.5 -25.334 12.5 -38.001c0 -4 -3.5 -10.5 -10.5 -19.5s-15.167 -18 -24.5 -27s-19 -17 -29 -24s-17.667 -10.5 -23 -10.5c-0.666992 0 -5.33398 2.83301 -14.001 8.5
s-19.334 11.667 -32.001 18s-26.5 12.333 -41.5 18s-29.5 8.5 -43.5 8.5c-10.667 0 -22.667 -2.16699 -36 -6.5s-26 -10 -38 -17s-22.167 -14.5 -30.5 -22.5s-12.5 -15.667 -12.5 -23c0 -12 6.16699 -24 18.5 -36s27.833 -23 46.5 -33s39 -18.167 61 -24.5s43 -9.5 63 -9.5
c5.33301 0 13.833 1 25.5 3s26 4.83301 43 8.5s36 8 57 13s43.167 10.833 66.5 17.5c2.66699 1.33301 5.33398 2 8.00098 2c3.33301 0 5.33301 -1.33301 6 -4v1c1.33301 -1.33301 2 -3 2 -5c0 -1.33301 -1 -3.66602 -3 -6.99902v1z" />
    <glyph glyph-name="afii57415" unicode="&#x627;" horiz-adv-x="448" arabic-form="isolated" 
d="M290 256c-5.33301 -26 -9.50098 -49.332 -12.501 -69.999s-5.16699 -37.667 -6.5 -51c-4.66699 -24 -10.5 -46.667 -17.5 -68s-14.167 -39.666 -21.5 -54.999s-13.833 -27.5 -19.5 -36.5s-9.5 -13.5 -11.5 -13.5c-7.33301 0 -11 16 -11 48c0 14.667 0.333008 31 1 49
s1 36.667 1 56c0 32 -1.16699 70.333 -3.5 115s-5.5 93.667 -9.5 147s-8.66699 109.5 -14 168.5s-11 118.5 -17 178.5c-6.66699 58.667 -12.667 114.667 -18 168s-10 102 -14 146s-7 81.667 -9 113s-3 54.333 -3 69c10.667 26.667 24.167 57 40.5 91l53.5 111
c12 18 20.667 27 26 27c2.66699 0 4 -6 4 -18v-9c0 -18.667 -0.333008 -37.667 -1 -57s-1 -40.333 -1 -63c0 -58.667 2.83301 -130.834 8.5 -216.501s13.834 -187.167 24.501 -304.5c22 -234 33 -384.333 33 -451c0 -14.667 -0.166992 -28.334 -0.5 -41.001
s-0.833008 -23.667 -1.5 -33z" />
    <glyph glyph-name="afii57416" unicode="&#x628;" horiz-adv-x="1671" arabic-form="isolated" 
d="M863 -344c0 -24.667 -43.334 -71.333 -130.001 -140c-15.333 23.333 -33.833 45.833 -55.5 67.5s-47.167 43.167 -76.5 64.5l128 136c12 -7.33301 25.833 -17.333 41.5 -30s30.334 -25.5 44.001 -38.5s25.167 -25 34.5 -36s14 -18.833 14 -23.5zM1515 410.001
c0 -46.667 -10 -92.499 -30 -137.499s-48 -86.833 -84 -125.5c-17.333 -19.333 -48 -38.333 -92 -57s-100.667 -37 -170 -55c-80.667 -19.333 -164.167 -34.166 -250.5 -44.499s-176.5 -15.5 -270.5 -15.5c-412 0 -618 101 -618 303c0 112 34 210 102 294
c6 7.33301 11.667 11 17 11c2.66699 0 4.33398 -0.333008 5.00098 -1h-1c6.66699 -0.666992 10 -3.33398 10 -8.00098c0 -6 -3 -11.667 -9 -17v1c-27.333 -58 -41 -116 -41 -174c0 -34.667 13.667 -66.167 41 -94.5s67.166 -52.666 119.499 -72.999s116.666 -36 192.999 -47
s163.5 -16.5 261.5 -16.5c88.667 0 173.5 4.33301 254.5 13s156.167 21 225.5 37c62.667 14 116.5 31.833 161.5 53.5s79.833 42.834 104.5 63.501c-0.666992 11.333 -4.5 26.166 -11.5 44.499s-16 37.166 -27 56.499s-23.167 37.666 -36.5 54.999
s-26.666 30.333 -39.999 39l70 165c4 8 8 12 12 12c4.66699 0 9 -2.66699 13 -8c28 -38 50.167 -80.333 66.5 -127s24.5 -95.667 24.5 -147z" />
    <glyph glyph-name="afii57417" unicode="&#x629;" horiz-adv-x="523" arabic-form="isolated" 
d="M302 247c0 11.333 -2.49902 21.999 -7.49902 31.999s-12.833 20.167 -23.5 30.5s-24.5 21.166 -41.5 32.499s-38.167 24 -63.5 38l-19.5 10.5l-23.5 12.5c-18 -29.333 -31.833 -55.666 -41.5 -78.999s-14.5 -43.666 -14.5 -60.999c0 -51.333 26 -77 78 -77
c40.667 0 74.167 5.33301 100.5 16s45.166 25.667 56.499 45zM419.001 1001c0 -18 -39.666 -57.668 -118.999 -119.001c-13.333 14.667 -29.5 30.834 -48.5 48.501s-41.5 37.167 -67.5 58.5l-21 -19c-12.667 -12 -27.334 -26.667 -44.001 -44s-35 -34.666 -55 -51.999
c-32 49.333 -72.333 89.666 -121 120.999l118 129c36.667 -20.667 78.334 -59.667 125.001 -117l54 58.5l55 58.5c12 -6 25.333 -15 40 -27s28.167 -24.5 40.5 -37.5s22.666 -25 30.999 -36s12.5 -18.5 12.5 -22.5zM367.002 335.998
c0 -96 -21.3311 -182.332 -63.998 -258.999c-34.667 -51.333 -89.334 -77 -164.001 -77c-92.667 0 -139 61.667 -139 185c0 38 7.83301 78.5 23.5 121.5s37.5 86.167 65.5 129.5c-4 3.33301 -8.83301 7 -14.5 11s-10.5 7.66699 -14.5 11
c14.667 62.667 26.667 108.5 36 137.5s15.666 43.167 18.999 42.5c0 -1.33301 4 -5 12 -11l32 -25c6.66699 -4.66699 17 -12.5 31 -23.5l42.5 -33.5l38 -30c11 -8.66699 16.833 -13.334 17.5 -14.001c52.667 -52.667 79 -107.667 79 -165z" />
    <glyph glyph-name="afii57418" unicode="&#x62a;" horiz-adv-x="1671" arabic-form="isolated" 
d="M986 896c0 -18 -40.3301 -59 -120.997 -123c-14 15.333 -30.333 32 -49 50s-40.334 37.667 -65.001 59c-1.33301 -2 -3.33301 -4.33301 -6 -7l-49.5 -50l-63.5 -61c-32.667 48.667 -72.334 90.667 -119.001 126l118 125c17.333 -10 36.5 -24.333 57.5 -43
s43.167 -42.667 66.5 -72l53.5 58l54.5 57c11.333 -6 24.166 -14.5 38.499 -25.5s27.833 -22.5 40.5 -34.5s23.167 -23.5 31.5 -34.5s12.5 -19.167 12.5 -24.5zM1515 410c0 -46.667 -10 -92.498 -30 -137.498s-48 -86.833 -84 -125.5c-17.333 -19.333 -48 -38.333 -92 -57
s-100.667 -37 -170 -55c-80.667 -19.333 -164.167 -34.166 -250.5 -44.499s-176.5 -15.5 -270.5 -15.5c-412 0 -618 101 -618 303c0 112 34 210 102 294c6 7.33301 11.667 11 17 11c2.66699 0 4.33398 -0.333008 5.00098 -1h-1c6.66699 -0.666992 10 -3.33398 10 -8.00098
c0 -6 -3 -11.667 -9 -17v1c-27.333 -58 -41 -116 -41 -174c0 -34.667 13.667 -66.167 41 -94.5s67.166 -52.666 119.499 -72.999s116.666 -36 192.999 -47s163.5 -16.5 261.5 -16.5c88.667 0 173.5 4.33301 254.5 13s156.167 21 225.5 37c62.667 14 116.5 32 161.5 54
s79.833 43 104.5 63c-0.666992 11.333 -4.5 26.166 -11.5 44.499s-16 37.166 -27 56.499s-23.167 37.666 -36.5 54.999s-26.666 30.333 -39.999 39l70 165c4 8 8 12 12 12c4.66699 0 9 -2.66699 13 -8c28 -38 50.167 -80.333 66.5 -127s24.5 -95.667 24.5 -147z" />
    <glyph glyph-name="afii57419" unicode="&#x62b;" horiz-adv-x="1671" arabic-form="isolated" 
d="M885 1102c0 -4 -4.16699 -11.499 -12.5 -22.499s-18.5 -23 -30.5 -36s-24.833 -26 -38.5 -39s-25.5 -23.167 -35.5 -30.5c-15.333 18.667 -32.833 37.667 -52.5 57s-43.167 40.666 -70.5 63.999l119 124c80.667 -58.667 121 -97.667 121 -117zM1004 841.001
c0 -16.667 -40.668 -56.333 -122.001 -119c-11.333 13.333 -26.833 29.166 -46.5 47.499s-42.5 38.166 -68.5 59.499c-13.333 -14.667 -30 -31.834 -50 -51.501l-68 -64.5c-35.333 49.333 -75.666 90.333 -120.999 123l117 128c18.667 -10.667 38.5 -25.667 59.5 -45
s43.167 -43.666 66.5 -72.999l52.5 59.5l52.5 58.5c12 -5.33301 25.5 -13.666 40.5 -24.999s29 -23.166 42 -35.499s23.833 -24.333 32.5 -36s13 -20.5 13 -26.5zM1515 410.002c0 -46.667 -10 -92.499 -30 -137.499s-48 -86.833 -84 -125.5
c-17.333 -19.333 -48 -38.333 -92 -57s-100.667 -37 -170 -55c-80.667 -19.333 -164.167 -34.166 -250.5 -44.499s-176.5 -15.5 -270.5 -15.5c-412 0 -618 101 -618 303c0 112 34 210 102 294c6 7.33301 11.667 11 17 11c2.66699 0 4.33398 -0.333008 5.00098 -1h-1
c6.66699 -0.666992 10 -3.33398 10 -8.00098c0 -6 -3 -11.667 -9 -17v1c-27.333 -58 -41 -116 -41 -174c0 -34.667 13.667 -66.167 41 -94.5s67.166 -52.666 119.499 -72.999s116.666 -36 192.999 -47s163.5 -16.5 261.5 -16.5c88.667 0 173.5 4.33301 254.5 13
s156.167 21 225.5 37c62.667 14 116.5 31.833 161.5 53.5s79.833 42.834 104.5 63.501c-0.666992 11.333 -4.5 26.166 -11.5 44.499s-16 37.166 -27 56.499s-23.167 37.666 -36.5 54.999s-26.666 30.333 -39.999 39l70 165c4 8 8 12 12 12c4.66699 0 9 -2.66699 13 -8
c28 -38 50.167 -80.333 66.5 -127s24.5 -95.667 24.5 -147z" />
    <glyph glyph-name="afii57420" unicode="&#x62c;" horiz-adv-x="1304" arabic-form="isolated" 
d="M756 -339c0 -24 -43.3311 -70 -129.998 -138c-16 22 -34.333 44.167 -55 66.5s-44.334 44.5 -71.001 66.5l123 135c14 -7.33301 28.667 -17 44 -29s29.666 -24.5 42.999 -37.5s24.333 -25.333 33 -37s13 -20.5 13 -26.5zM1291 -735
c-40 -44 -84.4971 -83.8291 -133.497 -119.496s-102.5 -68.167 -160.5 -97.5c-65.333 -30 -130.833 -52.167 -196.5 -66.5s-131.834 -21.5 -198.501 -21.5c-94 0 -178.333 13 -253 39s-137.834 62.667 -189.501 110s-91.167 104.166 -118.5 170.499s-41 139.5 -41 219.5
c0 82.667 10.5 162.5 31.5 239.5s52.5 151.833 94.5 224.5c46.667 76.667 102.167 145.167 166.5 205.5s138.5 114.166 222.5 161.499c-64 15.333 -114.667 26.5 -152 33.5s-62.333 10.5 -75 10.5c-61.333 0 -118.666 -30.667 -171.999 -92v1
c-5.33301 -9.33301 -11 -14 -17 -14c-6.66699 0 -10 3.33301 -10 10c0 1.33301 0.333008 3 1 5s1 3.66699 1 5c25.333 90.667 61.166 158 107.499 202s102.833 66 169.5 66c3.33301 0 22.166 -3.83301 56.499 -11.5s79.833 -17.167 136.5 -28.5
c60 -13.333 129 -23.333 207 -30s161.333 -10.334 250 -11.001l-70 -180h-29c-60.667 0 -112.167 -1.66699 -154.5 -5s-76.833 -8.66602 -103.5 -15.999c-76.667 -20 -147.5 -50.167 -212.5 -90.5s-124.833 -92.833 -179.5 -157.5
c-110.667 -126.667 -166 -262.667 -166 -408c0 -77.333 13.5 -145.833 40.5 -205.5s66.167 -109.834 117.5 -150.501s114.333 -71.5 189 -92.5s159.667 -31.5 255 -31.5c208 0 396.333 49 565 147c13.333 6.66699 22 10 26 10c5.33301 0 8 -2.66699 8 -8
c0 -4.66699 -4.33301 -12.334 -13 -23.001z" />
    <glyph glyph-name="afii57421" unicode="&#x62d;" horiz-adv-x="1304" arabic-form="isolated" 
d="M1291 -735c-40 -44 -84.4971 -83.8291 -133.497 -119.496s-102.5 -68.167 -160.5 -97.5c-65.333 -30 -130.833 -52.167 -196.5 -66.5s-131.834 -21.5 -198.501 -21.5c-94 0 -178.333 13 -253 39s-137.834 62.667 -189.501 110s-91.167 104.166 -118.5 170.499
s-41 139.5 -41 219.5c0 82.667 10.5 162.5 31.5 239.5s52.5 151.833 94.5 224.5c46.667 76.667 102.167 145.167 166.5 205.5s138.5 114.166 222.5 161.499c-64 15.333 -114.667 26.5 -152 33.5s-62.333 10.5 -75 10.5c-61.333 0 -118.666 -30.667 -171.999 -92v1
c-5.33301 -9.33301 -11 -14 -17 -14c-6.66699 0 -10 3.33301 -10 10c0 1.33301 0.333008 3 1 5s1 3.66699 1 5c25.333 90.667 61.166 158 107.499 202s102.833 66 169.5 66c3.33301 0 22.166 -3.83301 56.499 -11.5s79.833 -17.167 136.5 -28.5
c60 -13.333 129 -23.333 207 -30s161.333 -10.334 250 -11.001l-70 -180h-29c-60.667 0 -112.167 -1.66699 -154.5 -5s-76.833 -8.66602 -103.5 -15.999c-76.667 -20 -147.5 -50.167 -212.5 -90.5s-124.833 -92.833 -179.5 -157.5
c-110.667 -126.667 -166 -262.667 -166 -408c0 -77.333 13.5 -145.833 40.5 -205.5s66.167 -109.834 117.5 -150.501s114.333 -71.5 189 -92.5s159.667 -31.5 255 -31.5c208 0 396.333 49 565 147c13.333 6.66699 22 10 26 10c5.33301 0 8 -2.66699 8 -8
c0 -4.66699 -4.33301 -12.334 -13 -23.001z" />
    <glyph glyph-name="afii57422" unicode="&#x62e;" horiz-adv-x="1304" arabic-form="isolated" 
d="M706 962c0 -27.333 -44.333 -73.334 -133 -138.001c-29.333 44.667 -72 88.667 -128 132l124 134c13.333 -7.33301 27.833 -17.166 43.5 -29.499s30.5 -25 44.5 -38s25.667 -25.167 35 -36.5s14 -19.333 14 -24zM1291 -735.001
c-40 -44 -84.4971 -83.8291 -133.497 -119.496s-102.5 -68.167 -160.5 -97.5c-65.333 -30 -130.833 -52.167 -196.5 -66.5s-131.834 -21.5 -198.501 -21.5c-94 0 -178.333 13 -253 39s-137.834 62.667 -189.501 110s-91.167 104.166 -118.5 170.499s-41 139.5 -41 219.5
c0 82.667 10.5 162.5 31.5 239.5s52.5 151.833 94.5 224.5c46.667 76.667 102.167 145.167 166.5 205.5s138.5 114.166 222.5 161.499c-64 15.333 -114.667 26.5 -152 33.5s-62.333 10.5 -75 10.5c-61.333 0 -118.666 -30.667 -171.999 -92v1
c-5.33301 -9.33301 -11 -14 -17 -14c-6.66699 0 -10 3.33301 -10 10c0 1.33301 0.333008 3 1 5s1 3.66699 1 5c25.333 90.667 61.166 158 107.499 202s102.833 66 169.5 66c3.33301 0 22.166 -3.83301 56.499 -11.5s79.833 -17.167 136.5 -28.5
c60 -13.333 129 -23.333 207 -30s161.333 -10.334 250 -11.001l-70 -180h-29c-60.667 0 -112.167 -1.66699 -154.5 -5s-76.833 -8.66602 -103.5 -15.999c-76.667 -20 -147.5 -50.167 -212.5 -90.5s-124.833 -92.833 -179.5 -157.5
c-110.667 -126.667 -166 -262.667 -166 -408c0 -77.333 13.5 -145.833 40.5 -205.5s66.167 -109.834 117.5 -150.501s114.333 -71.5 189 -92.5s159.667 -31.5 255 -31.5c208 0 396.333 49 565 147c13.333 6.66699 22 10 26 10c5.33301 0 8 -2.66699 8 -8
c0 -4.66699 -4.33301 -12.334 -13 -23.001z" />
    <glyph glyph-name="afii57423" unicode="&#x62f;" horiz-adv-x="711" arabic-form="isolated" 
d="M555 274c0 -46.667 -5.33105 -86.833 -15.998 -120.5s-26 -61.167 -46 -82.5c-62.667 -64 -159.334 -96 -290.001 -96c-21.333 0 -43.833 1.5 -67.5 4.5s-45.5 7.16699 -65.5 12.5s-36.667 11.833 -50 19.5s-20 16.167 -20 25.5c0 10.667 14.333 59 43 145
c68 -19.333 127.333 -29 178 -29c30.667 0 61.667 2.16699 93 6.5s59.833 9.83301 85.5 16.5s46.5 14.167 62.5 22.5s24 16.833 24 25.5c0 49.333 -36.667 106.666 -110 171.999c-34 33.333 -67.333 60 -100 80s-66 34.667 -100 44l46 182c3.33301 12 9.66602 18 18.999 18
c4 0 8 -1 12 -3c83.333 -44 154.333 -109.333 213 -196c59.333 -87.333 89 -169.666 89 -246.999z" />
    <glyph glyph-name="afii57424" unicode="&#x630;" horiz-adv-x="711" arabic-form="isolated" 
d="M322 1019c0 -25.333 -43.667 -69.667 -131 -133c-30 44.667 -73 87.334 -129 128.001l127 138c11.333 -6.66699 24.666 -16.334 39.999 -29.001s29.833 -25.667 43.5 -39s25.334 -26 35.001 -38s14.5 -21 14.5 -27zM555 273.999
c0 -46.667 -5.33105 -86.833 -15.998 -120.5s-26 -61.167 -46 -82.5c-62.667 -64 -159.334 -96 -290.001 -96c-21.333 0 -43.833 1.5 -67.5 4.5s-45.5 7.16699 -65.5 12.5s-36.667 11.833 -50 19.5s-20 16.167 -20 25.5c0 10.667 14.333 59 43 145
c68 -19.333 127.333 -29 178 -29c30.667 0 61.667 2.16699 93 6.5s59.833 9.83301 85.5 16.5s46.5 14.167 62.5 22.5s24 16.833 24 25.5c0 49.333 -36.667 106.666 -110 171.999c-34 33.333 -67.333 60 -100 80s-66 34.667 -100 44l46 182c3.33301 12 9.66602 18 18.999 18
c4 0 8 -1 12 -3c83.333 -44 154.333 -109.333 213 -196c59.333 -87.333 89 -169.666 89 -246.999z" />
    <glyph glyph-name="afii57425" unicode="&#x631;" horiz-adv-x="682" arabic-form="isolated" 
d="M526 141c0 -68.667 -10.3301 -135.331 -30.9971 -199.998s-50.334 -126.334 -89.001 -185.001c-40 -56 -81.833 -99.167 -125.5 -129.5s-89.167 -45.5 -136.5 -45.5c-56.667 0 -113.834 7.83301 -171.501 23.5s-114.834 38.834 -171.501 69.501
c-6 4.66699 -9 8.66699 -9 12s0.333008 5.33301 1 6v-1c2 7.33301 8.33301 11 19 11c96 0 182.167 8.16699 258.5 24.5s140.833 39.166 193.5 68.499c48 29.333 89.5 69 124.5 119s62.833 107.333 83.5 172c-4.66699 12 -13.167 27.833 -25.5 47.5s-26.333 39.667 -42 60
s-32 39.833 -49 58.5s-32.5 33.334 -46.5 44.001l63 185c2 8 5.66699 12 11 12c4 0 7.33301 -2 10 -6c42 -50.667 74.667 -105.334 98 -164.001s35 -119.334 35 -182.001z" />
    <glyph glyph-name="afii57426" unicode="&#x632;" horiz-adv-x="682" arabic-form="isolated" 
d="M461 781c0 -24.667 -44.333 -70.999 -133 -138.999c-15.333 23.333 -33.5 45.666 -54.5 66.999s-45.5 42.666 -73.5 63.999l123 136c13.333 -6.66699 28 -16.167 44 -28.5s31 -25 45 -38s25.667 -25.167 35 -36.5s14 -19.666 14 -24.999zM526 141.001
c0 -68.667 -10.3301 -135.331 -30.9971 -199.998s-50.334 -126.334 -89.001 -185.001c-40 -56 -81.833 -99.167 -125.5 -129.5s-89.167 -45.5 -136.5 -45.5c-56.667 0 -113.834 7.83301 -171.501 23.5s-114.834 38.834 -171.501 69.501c-6 4.66699 -9 8.66699 -9 12
s0.333008 5.33301 1 6v-1c2 7.33301 8.33301 11 19 11c96 0 182.167 8.16699 258.5 24.5s140.833 39.166 193.5 68.499c48 29.333 89.5 69 124.5 119s62.833 107.333 83.5 172c-4.66699 12 -13.167 27.833 -25.5 47.5s-26.333 39.667 -42 60s-32 39.833 -49 58.5
s-32.5 33.334 -46.5 44.001l63 185c2 8 5.66699 12 11 12c4 0 7.33301 -2 10 -6c42 -50.667 74.667 -105.334 98 -164.001s35 -119.334 35 -182.001z" />
    <glyph glyph-name="afii57427" unicode="&#x633;" horiz-adv-x="1851" arabic-form="isolated" 
d="M1695 276c0 -37.333 -3.83105 -71.9961 -11.498 -103.996s-18.834 -59.833 -33.501 -83.5s-32.167 -42.167 -52.5 -55.5s-43.5 -20 -69.5 -20c-20 0 -41 2.83301 -63 8.5s-43.167 13.5 -63.5 23.5s-38.833 21.833 -55.5 35.5s-30 28.5 -40 44.5
c-45.333 -83.333 -109.333 -125 -192 -125c-59.333 0 -104.666 7.33301 -135.999 22c-6 -101.333 -22.5 -191.5 -49.5 -270.5s-64.333 -145.667 -112 -200s-105.5 -95.833 -173.5 -124.5s-146 -43 -234 -43c-66.667 0 -125.5 8.83301 -176.5 26.5s-93.667 43.167 -128 76.5
s-60.333 74 -78 122s-26.5 102.667 -26.5 164c0 145.333 42.667 273.333 128 384c10.667 9.33301 18.334 14 23.001 14c7.33301 0 11 -3 11 -9c0 -4 -1.66699 -8.66699 -5 -14v1c-28 -57.333 -49.167 -110.166 -63.5 -158.499s-21.5 -93.5 -21.5 -135.5
c0 -46.667 8.33301 -88.334 25 -125.001s40.667 -67.834 72 -93.501s69.166 -45.334 113.499 -59.001s93.833 -20.5 148.5 -20.5c49.333 0 100.333 7.83301 153 23.5s102 36.5 148 62.5c53.333 32.667 94.5 70.667 123.5 114s43.5 90 43.5 140
c0 86.667 -35.333 171.334 -106 254.001c-3.33301 3.33301 -5 7.66602 -5 12.999s1.66699 10 5 14v-1l40 76l40 76c2.66699 4.66699 5.66699 7 9 7s6.33301 -2.33301 9 -7c16 -25.333 30.5 -47 43.5 -65s25.167 -31.333 36.5 -40c19.333 -13.333 44.666 -24.5 75.999 -33.5
s62.333 -13.5 93 -13.5c79.333 0 138.333 60.333 177 181c2.66699 7.33301 7 11 13 11c8 -0.666992 12.667 -5.66699 14 -15c18 -54.667 45.667 -96.834 83 -126.501s84.333 -44.5 141 -44.5c5.33301 0 10.666 0.166992 15.999 0.5s10.333 1.16602 15 2.49902
s8.5 3.83301 11.5 7.5s4.5 8.5 4.5 14.5c0 18 -7.5 39.167 -22.5 63.5s-33.167 48.5 -54.5 72.5l75 141c2 5.33301 4.33301 8 7 8c3.33301 0 6 -2.66699 8 -8c21.333 -38 37.833 -74.833 49.5 -110.5s17.5 -68.5 17.5 -98.5z" />
    <glyph glyph-name="afii57428" unicode="&#x634;" horiz-adv-x="1851" arabic-form="isolated" 
d="M1384 1031c0 -4 -4.16797 -11.332 -12.501 -21.999s-18.5 -22.167 -30.5 -34.5s-24.833 -24.666 -38.5 -36.999s-25.5 -22.5 -35.5 -30.5c-15.333 17.333 -33.166 35.666 -53.499 54.999s-43.5 39.666 -69.5 60.999l116 127c82.667 -60 124 -99.667 124 -119z
M1501 772.001c0 -18 -40.3359 -58 -121.003 -120c-13.333 15.333 -29.666 31.833 -48.999 49.5s-41.666 36.5 -66.999 56.5l-49.5 -51l-66.5 -65c-35.333 50.667 -76.666 91.667 -123.999 123l119 130c19.333 -10 39.5 -25 60.5 -45s42.5 -45 64.5 -75l53.5 60l53.5 60
c12 -6 25.167 -15 39.5 -27s28 -24.333 41 -37s23.833 -24.5 32.5 -35.5s13 -18.833 13 -23.5zM1695 276.001c0 -37.333 -3.83203 -71.9961 -11.499 -103.996s-18.834 -59.833 -33.501 -83.5s-32.167 -42.167 -52.5 -55.5s-43.5 -20 -69.5 -20c-20 0 -41 2.83301 -63 8.5
s-43.167 13.5 -63.5 23.5s-38.833 21.833 -55.5 35.5s-30 28.5 -40 44.5c-45.333 -83.333 -109.333 -125 -192 -125c-59.333 0 -104.666 7.33301 -135.999 22c-6 -101.333 -22.5 -191.5 -49.5 -270.5s-64.333 -145.667 -112 -200s-105.5 -95.833 -173.5 -124.5
s-146 -43 -234 -43c-66.667 0 -125.5 8.83301 -176.5 26.5s-93.667 43.167 -128 76.5s-60.333 74 -78 122s-26.5 102.667 -26.5 164c0 145.333 42.667 273.333 128 384c10.667 9.33301 18.334 14 23.001 14c7.33301 0 11 -3 11 -9c0 -4 -1.66699 -8.66699 -5 -14v1
c-28 -57.333 -49.167 -110.166 -63.5 -158.499s-21.5 -93.5 -21.5 -135.5c0 -46.667 8.33301 -88.334 25 -125.001s40.667 -67.834 72 -93.501s69.166 -45.334 113.499 -59.001s93.833 -20.5 148.5 -20.5c49.333 0 100.333 7.83301 153 23.5s102 36.5 148 62.5
c53.333 32.667 94.5 70.667 123.5 114s43.5 90 43.5 140c0 86.667 -35.333 171.334 -106 254.001c-3.33301 3.33301 -5 7.66602 -5 12.999s1.66699 10 5 14v-1l40 76l40 76c2.66699 4.66699 5.66699 7 9 7s6.33301 -2.33301 9 -7c16 -25.333 30.5 -47 43.5 -65
s25.167 -31.333 36.5 -40c19.333 -13.333 44.5 -24.5 75.5 -33.5s62.167 -13.5 93.5 -13.5c79.333 0 138.333 60.333 177 181c2.66699 7.33301 7 11 13 11c8 -0.666992 12.667 -5.66699 14 -15c18 -54.667 45.667 -96.834 83 -126.501s84.333 -44.5 141 -44.5
c5.33301 0 10.666 0.166992 15.999 0.5s10.333 1.16602 15 2.49902s8.5 3.83301 11.5 7.5s4.5 8.5 4.5 14.5c0 18 -7.5 39.167 -22.5 63.5s-33.167 48.5 -54.5 72.5l75 141c2 5.33301 4.33301 8 7 8c3.33301 0 6 -2.66699 8 -8c21.333 -38 37.833 -74.833 49.5 -110.5
s17.5 -68.5 17.5 -98.5z" />
    <glyph glyph-name="afii57429" unicode="&#x635;" horiz-adv-x="2151" arabic-form="isolated" 
d="M1913 367c0 10 -4.99805 21.002 -14.998 33.002s-23.667 23.167 -41 33.5s-37.333 19.166 -60 26.499s-46.667 11 -72 11c-18.667 0 -38.834 -2.66699 -60.501 -8s-44 -12.666 -67 -21.999s-46.333 -20.666 -70 -33.999s-47.167 -28 -70.5 -44l-122.5 -92l-119.5 -91
c4.66699 0 9 -0.166992 13 -0.5s7.66699 -0.5 11 -0.5h26c84 0 163 5.66699 237 17s145 27.666 213 48.999c65.333 21.333 114.666 42.166 147.999 62.499s50 40.166 50 59.499zM1995 426.002c0 -284 -294.001 -426 -882.001 -426c-58.667 0 -103.667 7.33301 -135 22
c-6 -100.667 -22.333 -190.5 -49 -269.5s-63.834 -145.833 -111.501 -200.5s-105.667 -96.334 -174 -125.001s-146.5 -43 -234.5 -43c-66 0 -124.5 9 -175.5 27s-93.667 43.667 -128 77s-60.5 74.166 -78.5 122.499s-27 102.5 -27 162.5c0 145.333 42.667 273.333 128 384
c10.667 9.33301 18.334 14 23.001 14c7.33301 0 11 -3 11 -9c0 -4 -1.66699 -8.66699 -5 -14v1c-28 -57.333 -49.167 -110.166 -63.5 -158.499s-21.5 -93.5 -21.5 -135.5c0 -48 8.66699 -90.5 26 -127.5s41.833 -68.167 73.5 -93.5s69.5 -44.5 113.5 -57.5
s92.667 -19.5 146 -19.5c50 0 101.333 7.83301 154 23.5s102 36.5 148 62.5c52.667 32.667 93.5 70.667 122.5 114s43.5 90 43.5 140c0 86.667 -35.333 171.334 -106 254.001c-3.33301 3.33301 -5 7.66602 -5 12.999s1.66699 10 5 14v-1l40 76l40 76
c2.66699 4.66699 5.66699 7 9 7s6.33301 -2.33301 9 -7c58 -101.333 118.333 -152 181 -152c15.333 0 36.666 10.167 63.999 30.5s62.333 50.5 105 90.5c64.667 60.667 118.167 108.667 160.5 144l89.5 76c50 39.333 97 68.833 141 88.5s84 29.5 120 29.5
c34.667 0 66.834 -5.16699 96.501 -15.5s55.334 -24.666 77.001 -42.999s38.667 -40.333 51 -66s18.5 -54.167 18.5 -85.5z" />
    <glyph glyph-name="afii57430" unicode="&#x636;" horiz-adv-x="2151" arabic-form="isolated" 
d="M1709 1029c0 -13.333 -11.002 -31.001 -33.002 -53.001s-55 -49.667 -99 -83c-16.667 23.333 -35.667 45.333 -57 66s-45.666 41.334 -72.999 62.001l127 139c13.333 -8.66699 27.833 -19.5 43.5 -32.5s30.334 -26.167 44.001 -39.5s25 -25.5 34 -36.5
s13.5 -18.5 13.5 -22.5zM1913 366.999c0 10 -4.99805 21.002 -14.998 33.002s-23.667 23.167 -41 33.5s-37.333 19.166 -60 26.499s-46.667 11 -72 11c-18.667 0 -38.834 -2.66699 -60.501 -8s-44 -12.666 -67 -21.999s-46.333 -20.666 -70 -33.999s-47.167 -28 -70.5 -44
l-122.5 -92l-119.5 -91c4.66699 0 9 -0.166992 13 -0.5s7.66699 -0.5 11 -0.5h26c84 0 163 5.66699 237 17s145 27.666 213 48.999c65.333 21.333 114.666 42.166 147.999 62.499s50 40.166 50 59.499zM1995 426.001c0 -284 -294.001 -426 -882.001 -426
c-58.667 0 -103.667 7.33301 -135 22c-6 -100.667 -22.333 -190.5 -49 -269.5s-63.834 -145.833 -111.501 -200.5s-105.667 -96.334 -174 -125.001s-146.5 -43 -234.5 -43c-66 0 -124.5 9 -175.5 27s-93.667 43.667 -128 77s-60.5 74.166 -78.5 122.499s-27 102.5 -27 162.5
c0 145.333 42.667 273.333 128 384c10.667 9.33301 18.334 14 23.001 14c7.33301 0 11 -3 11 -9c0 -4 -1.66699 -8.66699 -5 -14v1c-28 -57.333 -49.167 -110.166 -63.5 -158.499s-21.5 -93.5 -21.5 -135.5c0 -48 8.66699 -90.5 26 -127.5s41.833 -68.167 73.5 -93.5
s69.5 -44.5 113.5 -57.5s92.667 -19.5 146 -19.5c50 0 101.333 7.83301 154 23.5s102 36.5 148 62.5c52.667 32.667 93.5 70.667 122.5 114s43.5 90 43.5 140c0 86.667 -35.333 171.334 -106 254.001c-3.33301 3.33301 -5 7.66602 -5 12.999s1.66699 10 5 14v-1l40 76l40 76
c2.66699 4.66699 5.66699 7 9 7s6.33301 -2.33301 9 -7c58 -101.333 118.333 -152 181 -152c15.333 0 36.666 10.167 63.999 30.5s62.333 50.5 105 90.5c64.667 60.667 118.167 108.667 160.5 144l89.5 76c50 39.333 97 68.833 141 88.5s84 29.5 120 29.5
c34.667 0 66.834 -5.16699 96.501 -15.5s55.334 -24.666 77.001 -42.999s38.667 -40.333 51 -66s18.5 -54.167 18.5 -85.5z" />
    <glyph glyph-name="afii57431" unicode="&#x637;" horiz-adv-x="1386" arabic-form="isolated" 
d="M1150 367c0 10 -5.33301 21.168 -16 33.501s-24.667 23.666 -42 33.999s-37 19 -59 26s-44 10.5 -66 10.5c-40 0 -84.333 -9.5 -133 -28.5s-99 -45.5 -151 -79.5c-44.667 -30 -88.167 -61.167 -130.5 -93.5s-84.5 -62.166 -126.5 -89.499h24
c4.66699 0 9 -0.166992 13 -0.5s8.33301 -0.5 13 -0.5c54 0 108 2.83301 162 8.5s106 13.167 156 22.5s96.667 20.333 140 33s81 26 113 40s57.167 28.167 75.5 42.5s27.5 28.166 27.5 41.499zM1230 425.001c0 -113.333 -41.999 -201.001 -125.999 -263.001
c-74.667 -54.667 -171.5 -95.167 -290.5 -121.5s-262.167 -39.833 -429.5 -40.5c-191.333 0 -319.333 55.667 -384 167c0 5.33301 2.33301 10.333 7 15l252 -5c80 0 140.333 34.667 181 104c12 20.667 20.667 50.667 26 90s8 88.333 8 147c0 44 -2 98.667 -6 164
s-9.66699 143 -17 233c-8 89.333 -14.167 160.333 -18.5 213s-6.5 88.334 -6.5 107.001c9.33301 21.333 18.833 45.5 28.5 72.5s19.334 52.5 29.001 76.5s19.167 44.333 28.5 61s18 25 26 25c3.33301 0 5.83301 -6.33301 7.5 -19s3.16699 -32.167 4.5 -58.5l5 -101.5
c2 -41.333 5 -91 9 -149c6 -82 10.167 -154.5 12.5 -217.5s3.5 -119.5 3.5 -169.5c0 -80 -2.83301 -152 -8.5 -216s-14.834 -121.667 -27.501 -173l153 126c33.333 28 50.666 42.667 51.999 44c93.333 66.667 174.666 100 243.999 100c35.333 0 67.5 -5.5 96.5 -16.5
s53.833 -26 74.5 -45s36.834 -41.333 48.501 -67s17.5 -53.167 17.5 -82.5z" />
    <glyph glyph-name="afii57432" unicode="&#x638;" horiz-adv-x="1386" arabic-form="isolated" 
d="M1062 1040c0 -25.333 -42.999 -70.668 -128.999 -136.001c-29.333 42.667 -73.333 86 -132 130l130 136c12 -6.66699 25.5 -16.5 40.5 -29.5s29.167 -26.167 42.5 -39.5s24.666 -25.666 33.999 -36.999s14 -19.333 14 -24zM1150 366.998c0 10 -5.33301 21.168 -16 33.501
s-24.667 23.666 -42 33.999s-37 19 -59 26s-44 10.5 -66 10.5c-40 0 -84.333 -9.5 -133 -28.5s-99 -45.5 -151 -79.5c-44.667 -30 -88.167 -61.167 -130.5 -93.5s-84.5 -62.166 -126.5 -89.499h24c4.66699 0 9 -0.166992 13 -0.5s8.33301 -0.5 13 -0.5
c54 0 108 2.83301 162 8.5s106 13.167 156 22.5s96.667 20.333 140 33s81 26 113 40s57.167 28.167 75.5 42.5s27.5 28.166 27.5 41.499zM1230 424.999c0 -113.333 -41.999 -201.001 -125.999 -263.001c-74.667 -54.667 -171.5 -95.167 -290.5 -121.5
s-262.167 -39.833 -429.5 -40.5c-191.333 0 -319.333 55.667 -384 167c0 5.33301 2.33301 10.333 7 15l252 -5c80 0 140.333 34.667 181 104c12 20.667 20.667 50.667 26 90s8 88.333 8 147c0 44 -2 98.667 -6 164s-9.66699 143 -17 233
c-8 89.333 -14.167 160.333 -18.5 213s-6.5 88.334 -6.5 107.001c9.33301 21.333 18.833 45.5 28.5 72.5s19.334 52.5 29.001 76.5s19.167 44.333 28.5 61s18 25 26 25c3.33301 0 5.83301 -6.33301 7.5 -19s3.16699 -32.167 4.5 -58.5l5 -101.5c2 -41.333 5 -91 9 -149
c6 -82 10.167 -154.5 12.5 -217.5s3.5 -119.5 3.5 -169.5c0 -80 -2.83301 -152 -8.5 -216s-14.834 -121.667 -27.501 -173l153 126c33.333 28 50.666 42.667 51.999 44c93.333 66.667 174.666 100 243.999 100c35.333 0 67.5 -5.5 96.5 -16.5s53.833 -26 74.5 -45
s36.834 -41.333 48.501 -67s17.5 -53.167 17.5 -82.5z" />
    <glyph glyph-name="afii57433" unicode="&#x639;" horiz-adv-x="1250" arabic-form="isolated" 
d="M1235 -748c-202 -189.333 -417.665 -283.996 -646.998 -283.996c-392 0 -588 171.667 -588 515c0 134 26.167 265 78.5 393s126.5 248.333 222.5 361c-38.667 16 -71.167 32.333 -97.5 49s-47.333 34.5 -63 53.5s-26.834 40 -33.501 63s-10 49.167 -10 78.5
c0 36 5.66699 73.333 17 112s28.666 80 51.999 124c57.333 102 120.333 153 189 153c20.667 0 43.5 -4.33301 68.5 -13s49.5 -20.167 73.5 -34.5s46.167 -30.333 66.5 -48s35.833 -35.5 46.5 -53.5c0.666992 -1.33301 1.33398 -2.5 2.00098 -3.5s1 -2.16699 1 -3.5
c0 -6.66699 -5.66699 -10 -17 -10l-100.5 15c-23 3.33301 -35.833 5.66602 -38.5 6.99902l1 -1c-78 0 -144 -24 -198 -72c-46 -40 -69 -77 -69 -111c0 -9.33301 4.33301 -19.333 13 -30s20.167 -21.334 34.5 -32.001s30.666 -20.834 48.999 -30.501
s37.166 -18.334 56.499 -26.001s38.333 -13.834 57 -18.501s35.667 -7 51 -7s61.333 24.667 138 74c92.667 54 153.334 87.333 182.001 100c4 0 7.33301 -1.33301 10 -4c-40.667 -130.667 -65 -198.334 -73 -203.001c-200 -104.667 -352 -223.167 -456 -355.5
s-156 -277.5 -156 -435.5c0 -284.667 181 -427 543 -427c97.333 0 196.5 11.5 297.5 34.5s198.167 54.833 291.5 95.5c1.33301 0.666992 3 1.33398 5 2.00098s3.66699 1 5 1c2 0 4.33301 -0.666992 7 -2s4 -3.66602 4 -6.99902c0 -4.66699 -5 -11 -15 -19z" />
    <glyph glyph-name="afii57434" unicode="&#x63a;" horiz-adv-x="1250" arabic-form="isolated" 
d="M408 1229c0 -24.667 -44 -69.999 -132 -135.999c-15.333 22.667 -33.5 44.667 -54.5 66s-45.5 42.666 -73.5 63.999l124 134c16 -8.66699 32.167 -19.5 48.5 -32.5s31 -26 44 -39s23.5 -24.667 31.5 -35s12 -17.5 12 -21.5zM1235 -747.999
c-202 -189.333 -417.665 -283.996 -646.998 -283.996c-392 0 -588 171.667 -588 515c0 134 26.167 265 78.5 393s126.5 248.333 222.5 361c-38.667 16 -71.167 32.333 -97.5 49s-47.333 34.5 -63 53.5s-26.834 40 -33.501 63s-10 49.167 -10 78.5
c0 36 5.66699 73.333 17 112s28.666 80 51.999 124c57.333 102 120.333 153 189 153c20.667 0 43.5 -4.33301 68.5 -13s49.5 -20.167 73.5 -34.5s46.167 -30.333 66.5 -48s35.833 -35.5 46.5 -53.5c0.666992 -1.33301 1.33398 -2.5 2.00098 -3.5s1 -2.16699 1 -3.5
c0 -6.66699 -5.66699 -10 -17 -10l-100.5 15c-23 3.33301 -35.833 5.66602 -38.5 6.99902l1 -1c-78 0 -144 -24 -198 -72c-46 -40 -69 -77 -69 -111c0 -9.33301 4.33301 -19.333 13 -30s20.167 -21.334 34.5 -32.001s30.666 -20.834 48.999 -30.501
s37.166 -18.334 56.499 -26.001s38.333 -13.834 57 -18.501s35.667 -7 51 -7s61.333 24.667 138 74c92.667 54 153.334 87.333 182.001 100c4 0 7.33301 -1.33301 10 -4c-40.667 -130.667 -65 -198.334 -73 -203.001c-200 -104.667 -352 -223.167 -456 -355.5
s-156 -277.5 -156 -435.5c0 -284.667 181 -427 543 -427c97.333 0 196.5 11.5 297.5 34.5s198.167 54.833 291.5 95.5c1.33301 0.666992 3 1.33398 5 2.00098s3.66699 1 5 1c2 0 4.33301 -0.666992 7 -2s4 -3.66602 4 -6.99902c0 -4.66699 -5 -11 -15 -19z" />
    <glyph glyph-name="afii57441" unicode="&#x641;" horiz-adv-x="1642" arabic-form="isolated" 
d="M1327 580c-26 91.333 -59.667 137.001 -101 137.001c-10 0 -20 -3.83301 -30 -11.5s-19.333 -17.334 -28 -29.001s-15.667 -24 -21 -37s-8 -25.167 -8 -36.5c0 -44.667 23.667 -67 71 -67s86.333 14.667 117 44zM1259 1261c0 -25.333 -42.668 -71 -128.001 -137
c-15.333 23.333 -34 45.833 -56 67.5s-46.667 42.5 -74 62.5l125 136c14.667 -8 29.834 -18.167 45.501 -30.5s30 -25 43 -38s23.667 -25 32 -36s12.5 -19.167 12.5 -24.5zM1486 437.001c0 -128.667 -33.667 -220.667 -101 -276c-77.333 -62 -182.833 -108.5 -316.5 -139.5
s-296.5 -46.5 -488.5 -46.5c-386.667 0 -580 113.667 -580 341c0 54.667 9.83301 108 29.5 160s47.5 101 83.5 147c2 2.66699 4.33301 4.83398 7 6.50098s6.66699 2.5 12 2.5c2.66699 0 5.5 -0.5 8.5 -1.5s4.5 -3.5 4.5 -7.5c0 -2 -0.833008 -4.33301 -2.5 -7
s-2.5 -5.33398 -2.5 -8.00098c-19.333 -36 -33.666 -71.333 -42.999 -106s-14 -69.667 -14 -105c0 -162.667 192.667 -244 578 -244c86.667 0 171.834 5.83301 255.501 17.5s166.5 29.834 248.5 54.501c166 49.333 249 96.666 249 141.999c0 28.667 -8 56 -24 82
c-25.333 -26 -55 -46.333 -89 -61s-71 -22 -111 -22c-22 0 -42 4.33301 -60 13s-33.5 20.5 -46.5 35.5s-23.167 32.833 -30.5 53.5s-11 43 -11 67c0 35.333 6 72.833 18 112.5s27.667 78.834 47 117.501c21.333 42 44.166 74.5 68.499 97.5s48.5 34.5 72.5 34.5
c17.333 0 35.166 -6.83301 53.499 -20.5s36.333 -32 54 -55s34.5 -49.833 50.5 -80.5s29.833 -63 41.5 -97s21 -68.833 28 -104.5s10.5 -69.834 10.5 -102.501z" />
    <glyph glyph-name="afii57442" unicode="&#x642;" horiz-adv-x="1206" arabic-form="isolated" 
d="M897 394c0 11.333 -3.66699 24.1689 -11 38.502s-16.833 28.166 -28.5 41.499s-24.667 24.5 -39 33.5s-28.5 13.5 -42.5 13.5c-8.66699 0 -17.667 -3.5 -27 -10.5s-17.833 -16 -25.5 -27s-14 -23.333 -19 -37s-7.5 -26.834 -7.5 -39.501c0 -57.333 25.667 -86 77 -86
c82 0 123 24.333 123 73zM999 994.003c0 -18 -40.999 -58 -122.999 -120c-24.667 30.667 -62.334 66 -113.001 106l-50 -51l-68 -65c-35.333 50.667 -75 91.667 -119 123l117 129c17.333 -9.33301 36.5 -24 57.5 -44s43.167 -45 66.5 -75l54 59.5l54 59.5
c11.333 -6 24.166 -14.5 38.499 -25.5s27.833 -22.833 40.5 -35.5s23.334 -24.5 32.001 -35.5s13 -19.5 13 -25.5zM1050 233.003c0 -202 -63.0029 -363.998 -189.003 -485.998c-115.333 -110.667 -260.666 -166 -435.999 -166c-65.333 0 -124.166 9.83301 -176.499 29.5
s-97 47.667 -134 84s-65.333 80.5 -85 132.5s-29.5 110.333 -29.5 175c0 30 3.66699 63.833 11 101.5s16.833 75.167 28.5 112.5s25 73.166 40 107.499s30.5 63.5 46.5 87.5c5.33301 6 10.333 10.167 15 12.5s9 3.5 13 3.5c8 0 12 -4.33301 12 -13c0 -3.33301 -1 -8 -3 -14
c-53.333 -113.333 -80 -213.333 -80 -300c0 -53.333 8.33301 -101.166 25 -143.499s40.5 -78.333 71.5 -108s68.333 -52.334 112 -68.001s92.5 -23.5 146.5 -23.5c67.333 0 131.333 8.5 192 25.5s115 40.667 163 71s88.333 66.5 121 108.5s54.334 88 65.001 138
c3.33301 15.333 5 29.666 5 42.999c0 35.333 -9.33301 71.333 -28 108c-24.667 -30 -52.667 -52.833 -84 -68.5s-66.666 -23.5 -105.999 -23.5c-96 0 -144 72 -144 216c0 53.333 16.667 117 50 191c40.667 87.333 85.667 131 135 131c32 0 62.5 -14.333 91.5 -43
s55.5 -69.667 79.5 -123c23.333 -50 41.166 -100.167 53.499 -150.5s18.5 -99.5 18.5 -147.5z" />
    <glyph glyph-name="afii57443" unicode="&#x643;" horiz-adv-x="1363" arabic-form="isolated" 
d="M590 581c0 2 -7.49902 3.83008 -22.499 5.49707s-31.5 3.83398 -49.5 6.50098s-34.5 6.16699 -49.5 10.5s-22.5 10.5 -22.5 18.5c0 18 4.66699 34.833 14 50.5s22.166 30.5 38.499 44.5s35.666 27.167 57.999 39.5s46.5 23.833 72.5 34.5l17 -57l-38 -10
c-17.333 -5.33301 -33 -10.666 -47 -15.999s-21 -9.66602 -21 -12.999c0 -5.33301 7.5 -10.833 22.5 -16.5s33.833 -10.167 56.5 -13.5c54.667 -8 82 -23.667 82 -47c0 -10.667 -5 -22 -15 -34s-23.5 -23.333 -40.5 -34s-36.667 -19.5 -59 -26.5
s-46.166 -10.5 -71.499 -10.5c-21.333 0 -44.833 2.33301 -70.5 7s-55.5 10.667 -89.5 18v2c46.667 4 85.167 7.66699 115.5 11s54.333 6.5 72 9.5s30 6.16699 37 9.5s10.5 7 10.5 11zM1207 409.997c-0.666992 -24.667 -2.66992 -49.665 -6.00293 -74.998
s-9.33301 -49.833 -18 -73.5s-20.167 -45.334 -34.5 -65.001s-32.833 -36.167 -55.5 -49.5c-17.333 -19.333 -45.833 -38.666 -85.5 -57.999s-88.5 -38 -146.5 -56c-62.667 -17.333 -126.5 -30.5 -191.5 -39.5s-132.833 -15.167 -203.5 -18.5
c-310.667 0 -466 98.333 -466 295c0 54.667 6.5 105.667 19.5 153s32.167 91 57.5 131c6 8 10.667 12 14 12c6 0 9 -3.33301 9 -10c0 -5.33301 -1.66699 -10.666 -5 -15.999v1c-11.333 -28 -19.666 -55.833 -24.999 -83.5s-8 -55.834 -8 -84.501
c0 -34 10.167 -64.833 30.5 -92.5s50.166 -51.334 89.499 -71.001s87.833 -34.834 145.5 -45.501s123.834 -16 198.501 -16c66.667 0 130.5 4.33301 191.5 13s118.167 20.667 171.5 36c16.667 4.66699 36.667 12.167 60 22.5s45.833 22 67.5 35s40 26.667 55 41
s22.5 28.5 22.5 42.5v29.5c0 9.66699 -0.5 24.5 -1.5 44.5s-2.5 47.5 -4.5 82.5l-8.5 143c-3.66699 60.333 -8.5 135.666 -14.5 225.999l-21 330.5c15.333 25.333 32 50.333 50 75s38.667 50 62 76c2 3.33301 4.66699 5 8 5l3.5 -37c2.33301 -24.667 4.83301 -59 7.5 -103
s5.33398 -96.667 8.00098 -158s4.33398 -128.666 5.00098 -201.999c0.666992 -40.667 2.5 -97.5 5.5 -170.5s7.5 -162.833 13.5 -269.5z" />
    <glyph glyph-name="afii57444" unicode="&#x644;" horiz-adv-x="1129" arabic-form="isolated" 
d="M966 501c2.66699 -23.333 4.49902 -47.667 5.49902 -73s1.5 -51 1.5 -77c0 -37.333 -1.33301 -75 -4 -113s-6.66699 -74.667 -12 -110s-12 -68.666 -20 -99.999s-17.667 -59 -29 -83c-49.333 -111.333 -117 -194.166 -203 -248.499s-190.333 -81.5 -313 -81.5
c-68.667 0 -127.834 10.5 -177.501 31.5s-90.334 49.5 -122.001 85.5s-55 78 -70 126s-22.5 98.333 -22.5 151c0 36 3.33301 72.833 10 110.5s16.334 74.834 29.001 111.501s28.334 72.5 47.001 107.5s40 67.833 64 98.5c3.33301 4.66699 6.83301 8.5 10.5 11.5
s7.16699 4.5 10.5 4.5c9.33301 0 14 -4 14 -12c0 -2 -1 -4.33301 -3 -7s-3 -5.33398 -3 -8.00098c-35.333 -53.333 -62.5 -108.166 -81.5 -164.499s-28.5 -110.5 -28.5 -162.5c0 -42.667 6.66699 -82.834 20 -120.501s34 -70.167 62 -97.5s63.833 -49 107.5 -65
s95.834 -24 156.501 -24c66.667 0 129 8.66699 187 26s110 42.666 156 75.999c36 28 63.833 56.167 83.5 84.5s29.5 55.5 29.5 81.5c0 83.333 -2.33301 174.166 -7 272.499s-11.334 201.166 -20.001 308.499l-17.5 184.5c-5.66699 59 -10.667 113.667 -15 164
s-7.83301 95.166 -10.5 134.499s-4.66699 71.333 -6 96l35 85.5c11.333 27 22 51 32 72s19.333 38 28 51s16.334 20.833 23.001 23.5c4 0 7.33301 -2.33301 10 -7c-1.33301 -23.333 -2.33301 -47 -3 -71s-1 -48.333 -1 -73c0 -27.333 1 -63.166 3 -107.499
s4.66699 -92.666 8 -144.999l10.5 -162.5l10.5 -159l9 -135z" />
    <glyph glyph-name="afii57445" unicode="&#x645;" horiz-adv-x="802" arabic-form="isolated" 
d="M641 290c-7.33301 -14.667 -17.9971 -31.833 -31.9971 -51.5s-28.833 -38 -44.5 -55s-30.834 -31.5 -45.501 -43.5s-26.667 -18 -36 -18h-22c-44 0 -88.167 -3.33301 -132.5 -10s-84 -16.5 -119 -29.5s-63.5 -28.667 -85.5 -47s-33 -39.5 -33 -63.5
c0 -7.33301 0.333008 -12 1 -14l22.5 -178.5l33.5 -262.5c14 -155.333 21 -286.333 21 -393c0 -56 -1.5 -100.167 -4.5 -132.5s-10.167 -48.5 -21.5 -48.5c-14.667 0 -23.334 18.333 -26.001 55c-6 81.333 -18.167 187.833 -36.5 319.5s-43.166 291.5 -74.499 479.5
c-4 26 -6 53 -6 81c0 206.667 117 345 351 415c-27.333 25.333 -62.333 39 -105 41c-16.667 0.666992 -25 7.33398 -25 20.001c0 5.33301 2.66699 12.833 8 22.5s12.333 20.667 21 33s18.334 24.833 29.001 37.5s21.5 24.167 32.5 34.5s21.667 18.833 32 25.5
s19.166 10 26.499 10c29.333 0 60.166 -7 92.499 -21s62.166 -31.167 89.499 -51.5s49.833 -42.333 67.5 -66s26.5 -45.5 26.5 -65.5c0 -6.66699 -1.66699 -14.334 -5 -23.001z" />
    <glyph glyph-name="afii57446" unicode="&#x646;" horiz-adv-x="1087" arabic-form="isolated" 
d="M525 709c0 -24 -43.665 -69.6621 -130.998 -136.995c-16.667 23.333 -35.834 45.666 -57.501 66.999s-45.834 42.666 -72.501 63.999l125 135c16 -8.66699 32.167 -19.334 48.5 -32.001s31 -25.334 44 -38.001s23.5 -24.334 31.5 -35.001s12 -18.667 12 -24z
M931.002 149.005c0 -50.667 -4.33398 -97.835 -13.001 -141.502s-21 -82.5 -37 -116.5c-48 -103.333 -113.5 -181.833 -196.5 -235.5s-181.5 -80.5 -295.5 -80.5c-259.333 0 -389 132 -389 396c0 30.667 3.83301 63.834 11.5 99.501s17.834 71 30.501 106s27.167 68 43.5 99
s33.166 56.833 50.499 77.5c6 7.33301 11.667 11 17 11c3.33301 0 6.5 -1 9.5 -3s4.5 -5.33301 4.5 -10c0 -2.66699 -1.66699 -8.33398 -5 -17.001c-12 -16.667 -23.167 -37.334 -33.5 -62.001s-19.5 -50.5 -27.5 -77.5s-14.333 -53.833 -19 -80.5s-7 -50 -7 -70
c0 -195.333 117.667 -293 353 -293c56 0 108.333 7.33301 157 22s92 35.334 130 62.001s70.167 58.167 96.5 94.5s44.833 75.833 55.5 118.5c-1.33301 17.333 -7.33301 41 -18 71s-23.667 61.833 -39 95.5s-32.333 66.834 -51 99.501s-36.667 60 -54 82l63 175
c3.33301 8 7 12 11 12c3.33301 0 6 -0.833008 8 -2.5s4 -3.5 6 -5.5c44.667 -64 78.834 -131.667 102.501 -203s35.5 -145.666 35.5 -222.999z" />
    <glyph glyph-name="afii57470" unicode="&#x647;" horiz-adv-x="523" arabic-form="isolated" 
d="M302 247c0 11.333 -2.49902 21.999 -7.49902 31.999s-12.833 20.167 -23.5 30.5s-24.5 21.166 -41.5 32.499s-38.167 24 -63.5 38l-19.5 10.5l-23.5 12.5c-18 -29.333 -31.833 -55.666 -41.5 -78.999s-14.5 -43.666 -14.5 -60.999c0 -51.333 26 -77 78 -77
c40.667 0 74.167 5.33301 100.5 16s45.166 25.667 56.499 45zM367.001 335.999c0 -96 -21.3311 -182.332 -63.998 -258.999c-34.667 -51.333 -89.334 -77 -164.001 -77c-92.667 0 -139 61.667 -139 185c0 38 7.83301 78.5 23.5 121.5s37.5 86.167 65.5 129.5
c-4 3.33301 -8.83301 7 -14.5 11s-10.5 7.66699 -14.5 11c14.667 62.667 26.667 108.5 36 137.5s15.666 43.167 18.999 42.5c0 -1.33301 4 -5 12 -11l32 -25c6.66699 -4.66699 17 -12.5 31 -23.5l42.5 -33.5l38 -30c11 -8.66699 16.833 -13.334 17.5 -14.001
c52.667 -52.667 79 -107.667 79 -165z" />
    <glyph glyph-name="afii57448" unicode="&#x648;" horiz-adv-x="817" arabic-form="isolated" 
d="M534 283c0 10 -2.83105 21.5039 -8.49805 34.5039s-13.167 25.167 -22.5 36.5s-19.833 21 -31.5 29s-23.5 12 -35.5 12c-8.66699 0 -17.334 -3.33301 -26.001 -10s-16.334 -14.834 -23.001 -24.501s-12 -19.834 -16 -30.501s-6 -20.334 -6 -29.001
c0 -46.667 29 -70 87 -70c9.33301 0 18.833 1.66699 28.5 5s18.5 7.5 26.5 12.5s14.5 10.667 19.5 17s7.5 12.166 7.5 17.499zM661.002 212.004c0 -70.667 -11.001 -140.999 -33.001 -210.999s-56 -140.333 -102 -211c-46 -74.667 -91.833 -130.167 -137.5 -166.5
s-94.167 -54.5 -145.5 -54.5c-56 0 -113 10.833 -171 32.5s-114 52.5 -168 92.5c-5.33301 4 -8 8 -8 12c0 6 5 9 15 9c48.667 -4 93 -6 133 -6c73.333 0 140.5 10.833 201.5 32.5s114.5 52 160.5 91s83.833 85.667 113.5 140s49.5 114.166 59.5 179.499
c-20 -26.667 -41.333 -46.334 -64 -59.001s-48 -19 -76 -19c-21.333 0 -41.666 4 -60.999 12s-36.5 19.667 -51.5 35s-26.833 34 -35.5 56s-13 46.667 -13 74c0 25.333 4.83301 53.833 14.5 85.5s23.167 65.834 40.5 102.501c44.667 93.333 95.667 140 153 140
c24 0 46.667 -9.66699 68 -29s39.833 -45.833 55.5 -79.5s28.167 -72.667 37.5 -117s14 -91.5 14 -141.5z" />
    <glyph glyph-name="afii57449" unicode="&#x649;" horiz-adv-x="1313" arabic-form="isolated" 
d="M1157 650c0 -10 -2.66602 -22.6689 -7.99902 -38.002s-11.833 -30.166 -19.5 -44.499s-15.834 -26.833 -24.501 -37.5s-16.667 -16 -24 -16c-3.33301 0 -14.5 1.5 -33.5 4.5s-42.5 5.16699 -70.5 6.5c-20.667 0 -43.334 -4.5 -68.001 -13.5s-49.5 -20.833 -74.5 -35.5
s-49.167 -31.167 -72.5 -49.5s-44 -37 -62 -56s-32.333 -37.167 -43 -54.5s-16 -32.333 -16 -45c0 -44.667 69 -81.667 207 -111c44 -8.66699 80 -18.167 108 -28.5s50.167 -22.333 66.5 -36s27.5 -29.5 33.5 -47.5s9 -39.667 9 -65c0 -64.667 -17 -127 -51 -187
s-84.333 -117.667 -151 -173c-72 -56.667 -148.5 -99.667 -229.5 -129s-168.167 -44 -261.5 -44c-69.333 0 -130.5 8.66699 -183.5 26s-97.333 42.333 -133 75s-62.5 72 -80.5 118s-27 98 -27 156c0 183.333 55.667 352.333 167 507c6 7.33301 13.333 11 22 11
c9.33301 0 14 -3.33301 14 -10c0 -4 -1.33301 -8 -4 -12c-38.667 -66 -67.667 -131 -87 -195s-29 -126 -29 -186c0 -209.333 123.333 -314 370 -314c58.667 0 116.834 5.5 174.501 16.5s113.5 26.167 167.5 45.5c33.333 13.333 64.333 29.166 93 47.499
s53.834 37.333 75.501 57s38.667 38.834 51 57.501s18.5 35 18.5 49c0 9.33301 -3 18.166 -9 26.499s-15 13.833 -27 16.5c-74.667 14.667 -134.167 27.167 -178.5 37.5s-74.833 18.5 -91.5 24.5c-82.667 29.333 -124 71.666 -124 126.999c0 136 60 270 180 402
c57.333 62.667 111.833 109.334 163.5 140.001s102.167 46 151.5 46c15.333 0 29.666 -1.83301 42.999 -5.5s25 -8.66699 35 -15s18 -13.666 24 -21.999s9 -17.166 9 -26.499z" />
    <glyph glyph-name="afii57450" unicode="&#x64a;" horiz-adv-x="1313" arabic-form="isolated" 
d="M705 -809c0 -19.333 -40.666 -59.666 -121.999 -120.999c-12.667 15.333 -28.667 32 -48 50l-65 59c-13.333 -15.333 -30.333 -32.833 -51 -52.5l-69 -64.5c-33.333 46.667 -74 87.667 -122 123l118 126c18.667 -9.33301 38.667 -23.833 60 -43.5
s43.666 -43.5 66.999 -71.5l53 58.5l53 56.5c10.667 -4.66699 23.167 -12.334 37.5 -23.001s28 -22.167 41 -34.5s24.167 -24.333 33.5 -36s14 -20.5 14 -26.5zM1157 650c0 -10 -2.66602 -22.6689 -7.99902 -38.002s-11.833 -30.166 -19.5 -44.499
s-15.834 -26.833 -24.501 -37.5s-16.667 -16 -24 -16c-3.33301 0 -14.5 1.5 -33.5 4.5s-42.5 5.16699 -70.5 6.5c-20.667 0 -43.334 -4.5 -68.001 -13.5s-49.5 -20.833 -74.5 -35.5s-49.167 -31.167 -72.5 -49.5s-44 -37 -62 -56s-32.333 -37.167 -43 -54.5
s-16 -32.333 -16 -45c0 -44.667 69 -81.667 207 -111c44 -8.66699 80 -18.167 108 -28.5s50.167 -22.333 66.5 -36s27.5 -29.5 33.5 -47.5s9 -39.667 9 -65c0 -64.667 -17 -127 -51 -187s-84.333 -117.667 -151 -173c-72 -56.667 -148.5 -99.667 -229.5 -129
s-168.167 -44 -261.5 -44c-69.333 0 -130.5 8.66699 -183.5 26s-97.333 42.333 -133 75s-62.5 72 -80.5 118s-27 98 -27 156c0 183.333 55.667 352.333 167 507c6 7.33301 13.333 11 22 11c9.33301 0 14 -3.33301 14 -10c0 -4 -1.33301 -8 -4 -12
c-38.667 -66 -67.667 -131 -87 -195s-29 -126 -29 -186c0 -209.333 123.333 -314 370 -314c58.667 0 116.834 5.5 174.501 16.5s113.5 26.167 167.5 45.5c33.333 13.333 64.333 29.166 93 47.499s53.834 37.333 75.501 57s38.667 38.834 51 57.501s18.5 35 18.5 49
c0 9.33301 -3 18.166 -9 26.499s-15 13.833 -27 16.5c-74.667 14.667 -134.167 27.167 -178.5 37.5s-74.833 18.5 -91.5 24.5c-82.667 29.333 -124 71.666 -124 126.999c0 136 60 270 180 402c57.333 62.667 111.833 109.334 163.5 140.001s102.167 46 151.5 46
c15.333 0 29.666 -1.83301 42.999 -5.5s25 -8.66699 35 -15s18 -13.666 24 -21.999s9 -17.166 9 -26.499z" />
    <glyph glyph-name="afii57451" unicode="&#xfe70;" arabic-form="isolated" 
d="M420 1995l-45 -113l-430 -210l45 106zM409 1813l-45 -115l-429 -210l43 108z" />
    <glyph glyph-name="afii57452" unicode="&#xfe72;" horiz-adv-x="0" arabic-form="isolated" 
d="M300 1894c-6.66699 0 -14.834 -2.16797 -24.501 -6.50098s-19 -9.66602 -28 -15.999s-16.5 -13.166 -22.5 -20.499s-9 -14 -9 -20c0 -6.66699 1.66699 -14.5 5 -23.5s7.83301 -17.667 13.5 -26s11.834 -15.5 18.501 -21.5s13.334 -9 20.001 -9
c7.33301 0 14 3.66699 20 11s11.167 16.5 15.5 27.5s7.66602 22.667 9.99902 35s3.5 23.5 3.5 33.5c0 13.333 -1.83301 22.666 -5.5 27.999s-9.16699 8 -16.5 8zM401 1890c0 -37.333 -6.5 -71.833 -19.5 -103.5s-31.5 -59.5 -55.5 -83.5c8.66699 -4.66699 18 -9 28 -13
l33 -13l-11 -104c-41.333 8.66699 -82.333 30.334 -123 65.001c-48 -36 -96.833 -66 -146.5 -90s-99.167 -40.667 -148.5 -50l-59 42c60 42 90 82.667 90 122c0 16.667 -2 30 -6 40s-12.667 15 -26 15c-18 0 -41.333 -8 -70 -24l-3 39c40 44 77.667 66 113 66
c47.333 0 71 -23.667 71 -71c0 -42 -13.667 -86.667 -41 -134l60 30c16.667 8 31 15.333 43 22s22 13.167 30 19.5s15 13.5 21 21.5c-30 35.333 -45 72.666 -45 111.999c0 18 6.5 38.333 19.5 61s29 44 48 64s39.167 37 60.5 51s40.333 21 57 21c53.333 0 80 -35 80 -105z
" />
    <glyph glyph-name="afii57453" unicode="&#xfe74;" arabic-form="isolated" 
d="M187 -838l-43 -117l-432 -206l44 106zM199 -659l-44 -115l-431 -211l44 109z" />
    <glyph glyph-name="afii57454" unicode="&#xfe76;" arabic-form="isolated" 
d="M381 1865l-42 -117l-432 -207l44 106z" />
    <glyph glyph-name="afii57455" unicode="&#xfe78;" arabic-form="isolated" 
d="M258 1903c-5.33301 0 -12.665 -2.16699 -21.998 -6.5s-18.666 -9.83301 -27.999 -16.5s-17.333 -13.5 -24 -20.5s-10 -13.5 -10 -19.5c0 -8 1.83301 -16.5 5.5 -25.5s8.16699 -17.5 13.5 -25.5s11.5 -14.667 18.5 -20s13.5 -8 19.5 -8
c7.33301 0 14.166 3.33301 20.499 10s11.666 15 15.999 25s7.66602 21.167 9.99902 33.5s3.5 24.166 3.5 35.499c0 13.333 -2 22.833 -6 28.5s-9.66699 8.83398 -17 9.50098zM361.001 1898c0 -35.333 -6.16895 -68.501 -18.502 -99.501s-30.166 -58.167 -53.499 -81.5
c6 -4 13.833 -8.66699 23.5 -14s21.167 -10.666 34.5 -15.999l-6 -100c-28 9.33301 -53.167 19.5 -75.5 30.5s-41.833 23.833 -58.5 38.5c-56.667 -48.667 -110.167 -85.5 -160.5 -110.5s-97.5 -37.5 -141.5 -37.5c-35.333 0 -53.666 16 -54.999 48
c67.333 23.333 126.333 47.5 177 72.5s91 48.5 121 70.5c-17.333 17.333 -30.5 35.333 -39.5 54s-13.5 37.667 -13.5 57c0 37.333 22 78 66 122c46 46 86 69 120 69c53.333 0 80 -34.333 80 -103z" />
    <glyph glyph-name="afii57456" unicode="&#xfe7a;" arabic-form="isolated" 
d="M194 -701l-43 -114l-433 -211l43 107z" />
    <glyph glyph-name="afii57457" unicode="&#xfe7c;" arabic-form="isolated" 
d="M360 1798c0 -18.667 -3.33398 -37.835 -10.001 -57.502s-16 -37.5 -28 -53.5s-26 -29.167 -42 -39.5s-33.667 -15.5 -53 -15.5c-6 0 -13.333 1 -22 3s-17.334 4.66699 -26.001 8c-44 -77.333 -95.667 -116 -155 -116c-51.333 0 -77 36.333 -77 109
c0 11.333 2 25.333 6 42s9.16699 32.834 15.5 48.501s13.333 29.667 21 42s14.834 20.166 21.501 23.499l9 -11c-1.33301 -11.333 -2.33301 -22 -3 -32s-1 -19.333 -1 -28c0 -52.667 12.667 -79 38 -79c15.333 0 28.833 6.83301 40.5 20.5s22.5 31.5 32.5 53.5
s19.5 46.667 28.5 74s18.5 54.333 28.5 81c1.33301 -3.33301 3.83301 -11.166 7.5 -23.499s8.16699 -29.166 13.5 -50.499c8 -32.667 21.333 -49 40 -49c10.667 0 20.834 7 30.501 21s17.5 34 23.5 60l21 90l2 11.5l2 10.5c24 0 36 -47.667 36 -143z" />
    <glyph glyph-name="afii57458" unicode="&#xfe7e;" arabic-form="isolated" 
d="M242 1706c0 11.333 -5.50098 23.335 -16.501 36.002s-24.167 24.5 -39.5 35.5s-31.166 20 -47.499 27s-29.833 10.5 -40.5 10.5c-6.66699 0 -14 -3.16699 -22 -9.5s-15.5 -14.5 -22.5 -24.5s-12.667 -20.833 -17 -32.5s-6.5 -22.834 -6.5 -33.501
c0 -44 37.667 -66 113 -66c11.333 0 23 1.66699 35 5s22.667 7.66602 32 12.999s17 11.5 23 18.5s9 13.833 9 20.5zM322.999 1710c0 -25.333 -5.16797 -49 -15.501 -71s-24.5 -41.167 -42.5 -57.5s-39.333 -29.166 -64 -38.499s-51.667 -14 -81 -14
c-50.667 0 -91 14.667 -121 44s-45 69.333 -45 120c0 47.333 19 96 57 146c40.667 54.667 82.334 82 125.001 82c30 0 56.667 -5.33301 80 -16s42.833 -25.334 58.5 -44.001s27.667 -41 36 -67s12.5 -54 12.5 -84z" />
    <glyph glyph-name="uni0671" unicode="&#x671;" horiz-adv-x="448" arabic-form="isolated" 
d="M289 1803c0 35.333 -25.333 53 -76 53c-11.333 0 -25.833 -4.33301 -43.5 -13s-38.167 -22 -61.5 -40c12.667 -10 26.5 -17.833 41.5 -23.5s31.5 -8.5 49.5 -8.5c60 0 90 10.667 90 32zM336 1832c0 -103.333 -46.667 -154.999 -140 -154.999c-42.667 0 -80 12 -112 36
c-33.333 23.333 -55.666 35 -66.999 35c-8 0 -16.333 -2.16699 -25 -6.5s-17 -9 -25 -14l-22 -14c-6.66699 -4.33301 -11.667 -6.5 -15 -6.5c-16 0 -24 9.33301 -24 28c0 8 4 18.5 12 31.5s18 25.667 30 38s25.167 23.166 39.5 32.499s27.833 14 40.5 14
c6 0 12.167 -1 18.5 -3s12.5 -4.66699 18.5 -8c44 33.333 80.5 59.5 109.5 78.5s47.833 28.5 56.5 28.5c15.333 0 29.333 -3 42 -9s23.667 -14.333 33 -25s16.666 -23 21.999 -37s8 -28.667 8 -44zM287 256.001c-4 -34 -7.66797 -62.833 -11.001 -86.5
s-6.83301 -44.5 -10.5 -62.5s-7.83398 -33.833 -12.501 -47.5s-10 -27.167 -16 -40.5c-9.33301 -19.333 -16.666 -33.666 -21.999 -42.999s-10.666 -14 -15.999 -14c-6.66699 0 -10 19 -10 57c0 15.333 0.333008 30.5 1 45.5s1 31.833 1 50.5c0 32 -1.16699 70.333 -3.5 115
s-5.33301 93.334 -9 146.001s-8.16699 108.5 -13.5 167.5l-17 180.5c-6.66699 60 -12.667 116.833 -18 170.5s-9.83301 102.167 -13.5 145.5s-6.5 80.5 -8.5 111.5s-3 53.833 -3 68.5c9.33301 25.333 21.666 54.666 36.999 87.999l55 114c13.333 18 22 27 26 27
c4.66699 0 7 -6.66699 7 -20c0 -15.333 -0.666992 -34.666 -2 -57.999s-2 -46.333 -2 -69c0 -58.667 2.83301 -130.834 8.5 -216.501s13.834 -187.167 24.501 -304.5c22 -234 33 -384.333 33 -451c0 -14.667 -0.5 -28.334 -1.5 -41.001s-2.16699 -23.667 -3.5 -33z" />
    <glyph glyph-name="afii57511" unicode="&#x679;" horiz-adv-x="1671" arabic-form="isolated" 
d="M961 844c0 3.33301 -5.6709 8.16699 -17.0039 14.5s-24.666 9.5 -39.999 9.5c-11.333 0 -23.666 -2.33301 -36.999 -7s-27.166 -10.5 -41.499 -17.5s-28.5 -14.833 -42.5 -23.5l-39 -25c24.667 1.33301 49.834 4 75.501 8s49 8.5 70 13.5s38.167 10.167 51.5 15.5
s20 9.33301 20 12zM1009 865.001c0 -27.333 -7.66602 -50.498 -22.999 -69.498s-36.666 -34.5 -63.999 -46.5s-60.333 -20.833 -99 -26.5s-81.334 -8.5 -128.001 -8.5c-74 0 -124 20.667 -150 62c0 7.33301 4 14 12 20h90c2 0 3.5 -0.166992 4.5 -0.5s2.16699 -0.5 3.5 -0.5
h6c17.333 0 30.333 6.66699 39 20s13 38.666 13 75.999c0 7.33301 -0.5 17.833 -1.5 31.5s-2.16699 28.834 -3.5 45.501l-4 51c-1.33301 17.333 -2.66602 33.666 -3.99902 48.999l-3.5 39c-1 10.667 -1.5 17.334 -1.5 20.001c2.66699 7.33301 6.33398 16 11.001 26
s9.5 19.667 14.5 29s10.167 17.333 15.5 24s10 10 14 10c4.66699 0 8 -2 10 -6s3.5 -10.5 4.5 -19.5s1.83301 -21 2.5 -36s1.66699 -33.833 3 -56.5c4 -52.667 6 -94.334 6 -125.001c0 -21.333 -0.333008 -40.5 -1 -57.5s-2.33398 -32.167 -5.00098 -45.5l49.5 37.5
c13 9.66699 24.667 17.167 35 22.5s20.166 9.16602 29.499 11.499s19.666 3.5 30.999 3.5c30 0 53.167 -7.5 69.5 -22.5s24.5 -34.167 24.5 -57.5zM1515 410.003c0 -47.333 -9.99609 -93.3301 -29.9961 -137.997s-48 -86.334 -84 -125.001
c-18.667 -17.333 -49.834 -36 -93.501 -56s-99.834 -38.667 -168.501 -56c-80 -19.333 -163 -34.166 -249 -44.499s-176.667 -15.5 -272 -15.5c-412 0 -618 101 -618 303c0 112 34 210 102 294c6 7.33301 11.667 11 17 11c9.33301 0 14 -3 14 -9s-3 -11.667 -9 -17v1
c-27.333 -58.667 -41 -116.667 -41 -174c0 -34.667 13.833 -66.334 41.5 -95.001s67.667 -53 120 -73s116.666 -35.5 192.999 -46.5s163.166 -16.5 260.499 -16.5c88.667 0 173.5 4.33301 254.5 13s156.167 21 225.5 37c62.667 14 116.5 31.833 161.5 53.5
s79.833 42.834 104.5 63.501c-0.666992 11.333 -4.66699 26.166 -12 44.499s-16.5 37.166 -27.5 56.499s-23.167 37.666 -36.5 54.999s-26.333 30.333 -39 39l70 165c4 8 8 12 12 12c4.66699 0 9 -2.66699 13 -8c28 -38 50.167 -80.333 66.5 -127s24.5 -95.667 24.5 -147z
" />
    <glyph glyph-name="afii57506" unicode="&#x67e;" horiz-adv-x="1671" arabic-form="isolated" 
d="M869 -541c0 -2.66699 -4.33203 -9.33301 -12.999 -20s-19.334 -22.667 -32.001 -36l-38.5 -39.5c-13 -13 -24.167 -22.833 -33.5 -29.5c-14.667 18 -32.167 36.833 -52.5 56.5s-43.5 40.5 -69.5 62.5l118 122c40.667 -30.667 71 -55.167 91 -73.5s30 -32.5 30 -42.5z
M986.001 -285.999c0 -16 -40.3311 -54.999 -120.998 -116.999c-14 15.333 -30.333 31.666 -49 48.999s-40.334 36.333 -65.001 57l-20 -19c-12 -13.333 -26.667 -28.5 -44 -45.5l-55 -51.5c-16 25.333 -34 48 -54 68s-41.667 38.333 -65 55l118 129
c17.333 -10 36.5 -24.833 57.5 -44.5s43.167 -44.167 66.5 -73.5l53.5 59l54.5 59c12.667 -6 26.167 -14.667 40.5 -26s27.666 -23 39.999 -35s22.5 -23.833 30.5 -35.5s12 -21.167 12 -28.5zM1515 410.002c0 -46.667 -10 -92.499 -30 -137.499s-48 -86.833 -84 -125.5
c-17.333 -19.333 -48 -38.333 -92 -57s-100.667 -37 -170 -55c-80.667 -19.333 -164.167 -34.166 -250.5 -44.499s-176.5 -15.5 -270.5 -15.5c-412 0 -618 101 -618 303c0 112 34 210 102 294c6 7.33301 11.667 11 17 11c2.66699 0 4.33398 -0.333008 5.00098 -1h-1
c6.66699 -0.666992 10 -3.33398 10 -8.00098c0 -6 -3 -11.667 -9 -17v1c-27.333 -58 -41 -116 -41 -174c0 -34.667 13.667 -66.167 41 -94.5s67.166 -52.666 119.499 -72.999s116.666 -36 192.999 -47s163.5 -16.5 261.5 -16.5c88.667 0 173.5 4.33301 254.5 13
s156.167 21 225.5 37c62.667 14 116.5 31.833 161.5 53.5s79.833 42.834 104.5 63.501c-0.666992 11.333 -4.5 26.166 -11.5 44.499s-16 37.166 -27 56.499s-23.167 37.666 -36.5 54.999s-26.666 30.333 -39.999 39l70 165c4 8 8 12 12 12c4.66699 0 9 -2.66699 13 -8
c28 -38 50.167 -80.333 66.5 -127s24.5 -95.667 24.5 -147z" />
    <glyph glyph-name="afii57507" unicode="&#x686;" horiz-adv-x="1304" arabic-form="isolated" 
d="M733 -472c0 -3.33301 -4.16699 -10.501 -12.5 -21.501s-18.5 -23.333 -30.5 -37s-24.667 -27 -38 -40s-25.333 -22.833 -36 -29.5c-30 36.667 -70 76 -120 118l117 128c80 -59.333 120 -98.666 120 -117.999zM853 -215.001c0 -19.333 -41.002 -60.001 -123.002 -122.001
c-10.667 14 -25.834 30.167 -45.501 48.5s-42.834 37.833 -69.501 58.5c-8 -11.333 -20 -24 -36 -38l-47 -41l-33 -35c-17.333 23.333 -36.166 45.166 -56.499 65.499s-43.166 38.833 -68.499 55.5l119 131c17.333 -9.33301 36.833 -24.166 58.5 -44.499
s44.5 -45.166 68.5 -74.499l53.5 59l53.5 60c12 -6.66699 25.333 -16 40 -28s28.334 -24.167 41.001 -36.5s23.334 -24 32.001 -35s13 -18.833 13 -23.5zM1291 -735.002c-40 -44 -84.4971 -83.8291 -133.497 -119.496s-102.5 -68.167 -160.5 -97.5
c-65.333 -30 -130.833 -52.167 -196.5 -66.5s-131.834 -21.5 -198.501 -21.5c-94 0 -178.333 13 -253 39s-137.834 62.667 -189.501 110s-91.167 104.166 -118.5 170.499s-41 139.5 -41 219.5c0 82.667 10.5 162.5 31.5 239.5s52.5 151.833 94.5 224.5
c46.667 76.667 102.167 145.167 166.5 205.5s138.5 114.166 222.5 161.499c-64 15.333 -114.667 26.5 -152 33.5s-62.333 10.5 -75 10.5c-61.333 0 -118.666 -30.667 -171.999 -92v1c-5.33301 -9.33301 -11 -14 -17 -14c-6.66699 0 -10 3.33301 -10 10
c0 1.33301 0.333008 3 1 5s1 3.66699 1 5c25.333 90.667 61.166 158 107.499 202s102.833 66 169.5 66c3.33301 0 22.166 -3.83301 56.499 -11.5s79.833 -17.167 136.5 -28.5c60 -13.333 129 -23.333 207 -30s161.333 -10.334 250 -11.001l-70 -180h-29
c-60.667 0 -112.167 -1.66699 -154.5 -5s-76.833 -8.66602 -103.5 -15.999c-76.667 -20 -147.5 -50.167 -212.5 -90.5s-124.833 -92.833 -179.5 -157.5c-110.667 -126.667 -166 -262.667 -166 -408c0 -77.333 13.5 -145.833 40.5 -205.5s66.167 -109.834 117.5 -150.501
s114.333 -71.5 189 -92.5s159.667 -31.5 255 -31.5c208 0 396.333 49 565 147c13.333 6.66699 22 10 26 10c5.33301 0 8 -2.66699 8 -8c0 -4.66699 -4.33301 -12.334 -13 -23.001z" />
    <glyph glyph-name="afii57512" unicode="&#x688;" horiz-adv-x="711" arabic-form="isolated" 
d="M383 961c0 3.33301 -5.66699 8.16699 -17 14.5s-25 9.5 -41 9.5c-11.333 0 -23.833 -2.33301 -37.5 -7s-27.5 -10.5 -41.5 -17.5s-28 -14.833 -42 -23.5l-39 -25c24.667 1.33301 50 4 76 8s49.5 8.5 70.5 13.5s38.167 10 51.5 15s20 9.16699 20 12.5zM430 982.001
c0 -27.333 -7.49902 -50.501 -22.499 -69.501s-36.333 -34.5 -64 -46.5s-60.667 -20.833 -99 -26.5s-81.166 -8.5 -128.499 -8.5c-73.333 0 -123.333 20.333 -150 61c0 9.33301 4.33301 16.333 13 21h89c1.33301 0 2.5 -0.166992 3.5 -0.5s2.16699 -0.5 3.5 -0.5h8
c17.333 0 30.333 6.66699 39 20s13 38.333 13 75c0 7.33301 -0.5 17.833 -1.5 31.5s-2.16699 28.834 -3.5 45.501s-2.83301 33.834 -4.5 51.501l-4.5 49l-3.5 38.5c-1 10.667 -1.5 17.667 -1.5 21c2.66699 7.33301 6.33398 16 11.001 26s9.66699 19.667 15 29
s10.5 17.166 15.5 23.499s9.5 9.5 13.5 9.5c4.66699 0 8.16699 -2 10.5 -6s4 -10.5 5 -19.5s1.83301 -21 2.5 -36s1.66699 -33.5 3 -55.5c4 -52.667 6 -94.667 6 -126c0 -21.333 -0.333008 -40.5 -1 -57.5s-2.33398 -31.833 -5.00098 -44.5l49 36
c13.333 9.33301 25.166 16.833 35.499 22.5s20.166 9.66699 29.499 12s19.333 3.5 30 3.5c30 0 53.167 -7.66699 69.5 -23s24.5 -34 24.5 -56zM555.001 274c0 -46.667 -5.33105 -86.833 -15.998 -120.5s-26 -61.167 -46 -82.5c-62.667 -64 -159.334 -96 -290.001 -96
c-21.333 0 -43.833 1.5 -67.5 4.5s-45.5 7.16699 -65.5 12.5s-36.667 11.833 -50 19.5s-20 16.167 -20 25.5c0 10.667 14.333 59 43 145c68 -19.333 127.333 -29 178 -29c30.667 0 61.667 2.16699 93 6.5s59.833 9.83301 85.5 16.5s46.5 14.167 62.5 22.5s24 16.833 24 25.5
c0 49.333 -36.667 106.666 -110 171.999c-34 33.333 -67.333 60 -100 80s-66 34.667 -100 44l46 182c3.33301 12 9.66602 18 18.999 18c4 0 8 -1 12 -3c83.333 -44 154.333 -109.333 213 -196c59.333 -87.333 89 -169.666 89 -246.999z" />
    <glyph glyph-name="afii57513" unicode="&#x691;" horiz-adv-x="682" arabic-form="isolated" 
d="M526 141c0 -68.667 -10.3301 -135.331 -30.9971 -199.998s-50.334 -126.334 -89.001 -185.001c-40 -56 -81.833 -99.167 -125.5 -129.5s-89.167 -45.5 -136.5 -45.5c-56.667 0 -113.834 7.83301 -171.501 23.5s-114.834 38.834 -171.501 69.501
c-6 4.66699 -9 8.66699 -9 12s0.333008 5.33301 1 6v-1c2 7.33301 8.33301 11 19 11c96 0 182.167 8.16699 258.5 24.5s140.833 39.166 193.5 68.499c48 29.333 89.5 69 124.5 119s62.833 107.333 83.5 172c-4.66699 12 -13.167 27.833 -25.5 47.5s-26.333 39.667 -42 60
s-32 39.833 -49 58.5s-32.5 33.334 -46.5 44.001l63 185c2 8 5.66699 12 11 12c4 0 7.33301 -2 10 -6c42 -50.667 74.667 -105.334 98 -164.001s35 -119.334 35 -182.001zM504.003 787.003c0 3.33301 -5.66895 8.16699 -17.002 14.5s-24.666 9.5 -39.999 9.5
c-11.333 0 -23.833 -2.33301 -37.5 -7s-27.5 -10.5 -41.5 -17.5s-28 -14.833 -42 -23.5l-39 -25c24.667 1.33301 49.834 4 75.501 8s49 8.5 70 13.5s38.167 10.167 51.5 15.5s20 9.33301 20 12zM552.001 808.004c0 -27.333 -7.66309 -50.666 -22.9961 -69.999
s-36.833 -35 -64.5 -47s-60.667 -20.667 -99 -26s-80.833 -8 -127.5 -8c-74.667 0 -124.667 20.667 -150 62c0 8 3.66699 14.667 11 20h91c1.33301 0 2.5 -0.166992 3.5 -0.5s2.16699 -0.5 3.5 -0.5h6c18 0 31.167 6.66699 39.5 20s12.5 38.333 12.5 75
c0 11.333 -0.833008 29.166 -2.5 53.499s-3.66699 49.333 -6 75s-4.33301 49 -6 70s-2.5 33.833 -2.5 38.5c2.66699 7.33301 6.16699 16 10.5 26s9.16602 19.667 14.499 29s10.666 17.333 15.999 24s10 10 14 10s7 -2 9 -6s3.5 -10.5 4.5 -19.5s1.83301 -21.167 2.5 -36.5
s1.66699 -34 3 -56c4 -52.667 6 -94.667 6 -126c0 -21.333 -0.333008 -40.5 -1 -57.5s-2.33398 -31.833 -5.00098 -44.5l50 36c13.333 9.33301 25.166 16.833 35.499 22.5s20 9.66699 29 12s19.167 3.5 30.5 3.5c30 0 53.333 -7.5 70 -22.5s25 -33.833 25 -56.5z" />
    <glyph glyph-name="afii57508" unicode="&#x698;" horiz-adv-x="682" arabic-form="isolated" 
d="M440 1029c0 -4 -4.33398 -11.5 -13.001 -22.5s-19.167 -23 -31.5 -36s-25.166 -25.667 -38.499 -38s-24.666 -21.833 -33.999 -28.5c-14.667 18 -32.334 36.667 -53.001 56s-44 39.666 -70 60.999l121 126c79.333 -59.333 119 -98.666 119 -117.999zM557.999 770
c0 -16.667 -40.334 -56.9971 -121.001 -120.997c-13.333 15.333 -29.666 32.166 -48.999 50.499s-41.333 37.5 -66 57.5l-50.5 -51l-67.5 -65c-17.333 24 -35.666 46 -54.999 66s-40.666 38.333 -63.999 55l117 133c19.333 -10.667 39.166 -26.334 59.499 -47.001
s41.166 -45.334 62.499 -74.001l108 120c14.667 -7.33301 29.5 -17.166 44.5 -29.499s28.5 -24.833 40.5 -37.5s21.833 -24.334 29.5 -35.001s11.5 -18 11.5 -22zM525.998 141.003c0 -68.667 -10.3301 -135.331 -30.9971 -199.998s-50.334 -126.334 -89.001 -185.001
c-40 -56 -81.833 -99.167 -125.5 -129.5s-89.167 -45.5 -136.5 -45.5c-56.667 0 -113.834 7.83301 -171.501 23.5s-114.834 38.834 -171.501 69.501c-6 4.66699 -9 8.66699 -9 12s0.333008 5.33301 1 6v-1c2 7.33301 8.33301 11 19 11c96 0 182.167 8.16699 258.5 24.5
s140.833 39.166 193.5 68.499c48 29.333 89.5 69 124.5 119s62.833 107.333 83.5 172c-4.66699 12 -13.167 27.833 -25.5 47.5s-26.333 39.667 -42 60s-32 39.833 -49 58.5s-32.5 33.334 -46.5 44.001l63 185c2 8 5.66699 12 11 12c4 0 7.33301 -2 10 -6
c42 -50.667 74.667 -105.334 98 -164.001s35 -119.334 35 -182.001z" />
    <glyph glyph-name="afii57505" unicode="&#x6a4;" horiz-adv-x="1642" arabic-form="isolated" 
d="M1327 580c-26 91.333 -59.667 137.001 -101 137.001c-10 0 -20 -3.83301 -30 -11.5s-19.333 -17.334 -28 -29.001s-15.667 -24 -21 -37s-8 -25.167 -8 -36.5c0 -44.667 23.667 -67 71 -67s86.333 14.667 117 44zM1296 1410c0 -2.66699 -4.16699 -9.49902 -12.5 -20.499
s-18.333 -23 -30 -36s-24 -25.833 -37 -38.5s-24.5 -22.334 -34.5 -29.001c-31.333 35.333 -72.333 74.333 -123 117l119 125c78.667 -60 118 -99.333 118 -118zM1417 1152c0 -18.667 -41.333 -60.334 -124 -125.001c-25.333 32.667 -62.666 69.667 -111.999 111l-23.5 -24
l-29.5 -29.5l-33 -32l-34 -32.5c-32 49.333 -72 91.333 -120 126l118 126c18 -10.667 37.667 -25.5 59 -44.5s43.666 -43.167 66.999 -72.5l52.5 58.5l52.5 58.5c14 -6.66699 28.5 -16 43.5 -28s28.667 -24.333 41 -37s22.5 -24.167 30.5 -34.5s12 -17.166 12 -20.499z
M1486 437.002c0 -128.667 -33.667 -220.667 -101 -276c-77.333 -62 -182.833 -108.5 -316.5 -139.5s-296.5 -46.5 -488.5 -46.5c-386.667 0 -580 113.667 -580 341c-0 54.667 9.83301 108 29.5 160s47.5 101 83.5 147c2 2.66699 4.33301 4.83398 7 6.50098
s6.66699 2.5 12 2.5c2.66699 0 5.5 -0.5 8.5 -1.5s4.5 -3.5 4.5 -7.5c0 -2 -0.833008 -4.33301 -2.5 -7s-2.5 -5.33398 -2.5 -8.00098c-19.333 -36 -33.666 -71.333 -42.999 -106s-14 -69.667 -14 -105c0 -162.667 192.667 -244 578 -244
c86.667 0 171.834 5.83301 255.501 17.5s166.5 29.834 248.5 54.501c166 49.333 249 96.666 249 141.999c0 28.667 -8 56 -24 82c-25.333 -26 -55 -46.333 -89 -61s-71 -22 -111 -22c-22 0 -42 4.33301 -60 13s-33.5 20.5 -46.5 35.5s-23.167 32.833 -30.5 53.5
s-11 43 -11 67c0 35.333 6 72.833 18 112.5s27.667 78.834 47 117.501c21.333 42 44.166 74.5 68.499 97.5s48.5 34.5 72.5 34.5c17.333 0 35.166 -6.83301 53.499 -20.5s36.333 -32 54 -55s34.5 -49.833 50.5 -80.5s29.833 -63 41.5 -97s21 -68.833 28 -104.5
s10.5 -69.834 10.5 -102.501z" />
    <glyph glyph-name="uni06A9" unicode="&#x6a9;" horiz-adv-x="1613" arabic-form="isolated" 
d="M1772 1461l-33.0029 -85.5c-8 -21 -13.333 -35.5 -16 -43.5c-16 -43.333 -29.333 -66.333 -40 -69c-50 -21.333 -109.5 -49 -178.5 -83l-232.5 -119c-80.667 -42 -145.334 -77.167 -194.001 -105.5s-81 -49.166 -97 -62.499c48.667 -26 94.334 -53 137.001 -81
s83.334 -57.333 122.001 -88c107.333 -92 176.333 -171.667 207 -239c4 -6.66699 6.83301 -14.167 8.5 -22.5s2.5 -21.166 2.5 -38.499c0 -54.667 -6.16699 -103.834 -18.5 -147.501s-30.166 -81.167 -53.499 -112.5c-10.667 -14.667 -26.5 -28.834 -47.5 -42.501
s-45.667 -27 -74 -40s-59.833 -25.167 -94.5 -36.5s-71.334 -22 -110.001 -32c-72 -16.667 -146.5 -29.5 -223.5 -38.5s-154.167 -13.5 -231.5 -13.5c-403.333 0 -605 115 -605 345c0 91.333 34 180 102 266c6 7.33301 11.667 11 17 11
c2.66699 0 4.33398 -0.333008 5.00098 -1h-1c6.66699 -0.666992 10 -3.33398 10 -8.00098c0 -6 -3 -11.667 -9 -17v1c-27.333 -58 -41 -116 -41 -174c0 -38 14 -72 42 -102s68.167 -55.5 120.5 -76.5s115.833 -37 190.5 -48s158.334 -16.5 251.001 -16.5
c178.667 0 345 23.333 499 70c141.333 42 212 78.333 212 109c0 52.667 -84 141.334 -252 266.001l-54.5 38l-124.5 84c-21.333 14 -38.333 26.167 -51 36.5s-22.167 19.333 -28.5 27s-10.333 14.667 -12 21s-2.5 12.833 -2.5 19.5v18c0 32 1.83301 58.5 5.5 79.5
s9.5 36.167 17.5 45.5c19.333 21.333 52.5 49.666 99.5 84.999s108.833 77.333 185.5 126c82.667 50 172.167 100.167 268.5 150.5s200.833 101.833 313.5 154.5c3.33301 -1.33301 6.33301 -4.66602 9 -9.99902z" />
    <glyph glyph-name="uni06AD" unicode="&#x6ad;" horiz-adv-x="1363" arabic-form="isolated" 
d="M1217 1761c0 -3.33301 -4.16797 -10.333 -12.501 -21s-18.5 -22.5 -30.5 -35.5s-24.5 -25.667 -37.5 -38s-24.167 -21.833 -33.5 -28.5c-16 18 -34.167 36.5 -54.5 55.5s-43.166 38.833 -68.499 59.5l119 126c78.667 -60.667 118 -100 118 -118zM589.999 581
c0 2 -7.49902 3.83008 -22.499 5.49707s-31.5 3.83398 -49.5 6.50098s-34.5 6.16699 -49.5 10.5s-22.5 10.5 -22.5 18.5c0 18 4.66699 34.833 14 50.5s22.166 30.5 38.499 44.5s35.666 27.167 57.999 39.5s46.5 23.833 72.5 34.5l17 -57l-38 -10
c-17.333 -5.33301 -33 -10.666 -47 -15.999s-21 -9.66602 -21 -12.999c0 -5.33301 7.5 -10.833 22.5 -16.5s33.833 -10.167 56.5 -13.5c54.667 -8 82 -23.667 82 -47c0 -10.667 -5 -22 -15 -34s-23.5 -23.333 -40.5 -34s-36.667 -19.5 -59 -26.5
s-46.166 -10.5 -71.499 -10.5c-21.333 0 -44.833 2.33301 -70.5 7s-55.5 10.667 -89.5 18v2c46.667 4 85.167 7.66699 115.5 11s54.333 6.5 72 9.5s30 6.16699 37 9.5s10.5 7 10.5 11zM1338 1504c0 -19.333 -41.334 -61.0039 -124.001 -125.004
c-12.667 15.333 -28.167 32.333 -46.5 51s-40.166 38.334 -65.499 59.001l-23.5 -23.5l-29.5 -29l-33 -32l-34 -32.5c-31.333 48 -71 90 -119 126l117 126c18.667 -10.667 38.5 -25.667 59.5 -45s43.167 -43.333 66.5 -72l52.5 58l52.5 59
c14 -6.66699 28.5 -16.167 43.5 -28.5s28.667 -24.666 41 -36.999s22.5 -23.666 30.5 -33.999s12 -17.166 12 -20.499zM1207 409.993c-0.666992 -24.667 -2.66992 -49.665 -6.00293 -74.998s-9.33301 -49.833 -18 -73.5s-20.167 -45.334 -34.5 -65.001
s-32.833 -36.167 -55.5 -49.5c-17.333 -19.333 -45.833 -38.666 -85.5 -57.999s-88.5 -38 -146.5 -56c-62.667 -17.333 -126.5 -30.5 -191.5 -39.5s-132.833 -15.167 -203.5 -18.5c-310.667 0 -466 98.333 -466 295c0 54.667 6.5 105.667 19.5 153s32.167 91 57.5 131
c6 8 10.667 12 14 12c6 0 9 -3.33301 9 -10c0 -5.33301 -1.66699 -10.666 -5 -15.999v1c-11.333 -28 -19.666 -55.833 -24.999 -83.5s-8 -55.834 -8 -84.501c0 -34 10.167 -64.833 30.5 -92.5s50.166 -51.334 89.499 -71.001s87.833 -34.834 145.5 -45.501
s123.834 -16 198.501 -16c66.667 0 130.5 4.33301 191.5 13s118.167 20.667 171.5 36c16.667 4.66699 36.667 12.167 60 22.5s45.833 22 67.5 35s40 26.667 55 41s22.5 28.5 22.5 42.5v29.5c0 9.66699 -0.5 24.5 -1.5 44.5s-2.5 47.5 -4.5 82.5l-8.5 143
c-3.66699 60.333 -8.5 135.666 -14.5 225.999l-21 330.5c15.333 25.333 32 50.333 50 75s38.667 50 62 76c2 3.33301 4.66699 5 8 5l3.5 -37c2.33301 -24.667 4.83301 -59 7.5 -103s5.33398 -96.667 8.00098 -158s4.33398 -128.666 5.00098 -201.999
c0.666992 -40.667 2.5 -97.5 5.5 -170.5s7.5 -162.833 13.5 -269.5z" />
    <glyph glyph-name="afii57509" unicode="&#x6af;" horiz-adv-x="1613" arabic-form="isolated" 
d="M1730 1526c-7.33301 -18 -15.001 -35.168 -23.001 -51.501s-16.333 -32.166 -25 -47.499c-150 -60.667 -285.333 -119 -406 -175s-228.667 -111 -324 -165c3.33301 18.667 8.33301 37.667 15 57l21 58c102 63.333 213.833 123.833 335.5 181.5
s247.834 110.5 378.501 158.5l19.5 7c5.66699 2 9.5 3 11.5 3c3.33301 0 5 -2 5 -6s-2.66699 -10.667 -8 -20zM1773 1338c-44 -122.667 -73.3389 -186.332 -88.0059 -190.999l-205.5 -75.5l-227.5 -90.5c-83.333 -32.667 -147.166 -59.5 -191.499 -80.5
s-70.833 -36.167 -79.5 -45.5c57.333 -30.667 107.833 -59.334 151.5 -86.001s79.5 -50.667 107.5 -72c28.667 -20.667 56.167 -44 82.5 -70s49.5 -52.833 69.5 -80.5s36 -55 48 -82s18 -52.5 18 -76.5c0 -42.667 -6.16699 -83 -18.5 -121s-30.166 -72.333 -53.499 -103
c-10.667 -14 -26.5 -28 -47.5 -42s-45.667 -27.5 -74 -40.5s-59.833 -25.167 -94.5 -36.5s-71.334 -22 -110.001 -32c-72 -16.667 -146.5 -29.5 -223.5 -38.5s-154.167 -13.5 -231.5 -13.5c-403.333 0 -605 115 -605 345c0 91.333 34 180 102 266c6 7.33301 11.667 11 17 11
c2.66699 0 4.33398 -0.333008 5.00098 -1h-1c6.66699 -0.666992 10 -3.33398 10 -8.00098c0 -6 -3 -11.667 -9 -17v1c-27.333 -58 -41 -116 -41 -174c0 -38 14 -72 42 -102s68.167 -55.5 120.5 -76.5s115.833 -37 190.5 -48s158.334 -16.5 251.001 -16.5
c178.667 0 345 23.333 499 70c141.333 42 212 78.333 212 109c0 17.333 -10 38 -30 62s-48.667 51 -86 81s-82.666 63 -135.999 99s-113.666 74.333 -180.999 115c-59.333 38 -89.666 65 -90.999 81c0 4.66699 0.5 13.667 1.5 27s2.83301 31.666 5.5 54.999
c3.33301 26 6.33301 46.333 9 61s5 23.667 7 27c34.667 36.667 124.667 90.834 270 162.501s344.333 157.834 597 258.501c3.33301 0 6.33301 -3.66699 9 -11z" />
    <glyph glyph-name="afii57514" unicode="&#x6ba;" horiz-adv-x="1087" arabic-form="isolated" 
d="M931 149c0 -50.667 -4.33398 -97.835 -13.001 -141.502s-21 -82.5 -37 -116.5c-48 -103.333 -113.5 -181.833 -196.5 -235.5s-181.5 -80.5 -295.5 -80.5c-259.333 0 -389 132 -389 396c0 30.667 3.83301 63.834 11.5 99.501s17.834 71 30.501 106s27.167 68 43.5 99
s33.166 56.833 50.499 77.5c6 7.33301 11.667 11 17 11c3.33301 0 6 -1 8 -3h-1c4.66699 -0.666992 7 -4 7 -10c0 -2.66699 -1.66699 -8.33398 -5 -17.001c-12 -16.667 -23.167 -37.334 -33.5 -62.001s-19.5 -50.5 -27.5 -77.5s-14.333 -53.833 -19 -80.5s-7 -50 -7 -70
c0 -195.333 117.667 -293 353 -293c56 0 108.333 7.33301 157 22s92 35.334 130 62.001s70.167 58.167 96.5 94.5s44.833 75.833 55.5 118.5c-1.33301 17.333 -7.33301 41 -18 71s-23.667 61.833 -39 95.5s-32.333 66.834 -51 99.501s-36.667 60 -54 82l63 175
c3.33301 8 7 12 11 12c3.33301 0 6 -0.833008 8 -2.5s4 -3.5 6 -5.5c44.667 -64 78.834 -131.667 102.501 -203s35.5 -145.666 35.5 -222.999z" />
    <glyph glyph-name="uni06C1" unicode="&#x6c1;" horiz-adv-x="523" arabic-form="isolated" 
d="M302 247c0 11.333 -2.49902 21.999 -7.49902 31.999s-12.833 20.167 -23.5 30.5s-24.5 21.166 -41.5 32.499s-38.167 24 -63.5 38l-19.5 10.5l-23.5 12.5c-18 -29.333 -31.833 -55.666 -41.5 -78.999s-14.5 -43.666 -14.5 -60.999c0 -51.333 26 -77 78 -77
c40.667 0 74.167 5.33301 100.5 16s45.166 25.667 56.499 45zM367.001 335.999c0 -96 -21.3311 -182.332 -63.998 -258.999c-34.667 -51.333 -89.334 -77 -164.001 -77c-92.667 0 -139 61.667 -139 185c0 38 7.83301 78.5 23.5 121.5s37.5 86.167 65.5 129.5
c-4 3.33301 -8.83301 7 -14.5 11s-10.5 7.66699 -14.5 11c14.667 62.667 26.667 108.5 36 137.5s15.666 43.167 18.999 42.5c0 -1.33301 4 -5 12 -11l32 -25c6.66699 -4.66699 17 -12.5 31 -23.5l42.5 -33.5l38 -30c11 -8.66699 16.833 -13.334 17.5 -14.001
c52.667 -52.667 79 -107.667 79 -165z" />
    <glyph glyph-name="uni06C9" unicode="&#x6c9;" horiz-adv-x="817" arabic-form="isolated" 
d="M534 283c0 10 -2.83105 21.5039 -8.49805 34.5039s-13.167 25.167 -22.5 36.5s-19.833 21 -31.5 29s-23.5 12 -35.5 12c-8.66699 0 -17.334 -3.33301 -26.001 -10s-16.334 -14.834 -23.001 -24.501s-12 -19.834 -16 -30.501s-6 -20.334 -6 -29.001
c0 -46.667 29 -70 87 -70c9.33301 0 18.833 1.66699 28.5 5s18.5 7.5 26.5 12.5s14.5 10.667 19.5 17s7.5 12.166 7.5 17.499zM661.002 212.004c0 -70.667 -11.001 -140.999 -33.001 -210.999s-56 -140.333 -102 -211c-46 -74.667 -91.833 -130.167 -137.5 -166.5
s-94.167 -54.5 -145.5 -54.5c-56 0 -113 10.833 -171 32.5s-114 52.5 -168 92.5c-5.33301 4 -8 8 -8 12c0 6 5 9 15 9c48.667 -4 93 -6 133 -6c73.333 0 140.5 10.833 201.5 32.5s114.5 52 160.5 91s83.833 85.667 113.5 140s49.5 114.166 59.5 179.499
c-20 -26.667 -41.333 -46.334 -64 -59.001s-48 -19 -76 -19c-21.333 0 -41.666 4 -60.999 12s-36.5 19.667 -51.5 35s-26.833 34 -35.5 56s-13 46.667 -13 74c0 25.333 4.83301 53.833 14.5 85.5s23.167 65.834 40.5 102.501c44.667 93.333 95.667 140 153 140
c24 0 46.667 -9.66699 68 -29s39.833 -45.833 55.5 -79.5s28.167 -72.667 37.5 -117s14 -91.5 14 -141.5zM240.001 795.005c52.667 40.667 96.1641 87.1641 130.497 139.497s59.5 106.166 75.5 161.499c1.33301 3.33301 3.33301 6.16602 6 8.49902s6.66699 3.5 12 3.5
c4 0 7.83301 -1.16699 11.5 -3.5s5.5 -5.16602 5.5 -8.49902c14.667 -60 40.834 -116.667 78.501 -170s84.834 -96.666 141.501 -129.999l-21 -81c-0.666992 -5.33301 -4 -8 -10 -8c-4 0 -6.66699 1 -8 3v-1c-18.667 12.667 -38 28.834 -58 48.501
s-39.333 40.834 -58 63.501s-35.5 45.334 -50.5 68.001s-26.833 43 -35.5 61c-8 -18.667 -19.167 -39.167 -33.5 -61.5s-30.166 -44.333 -47.499 -66s-35.666 -42.167 -54.999 -61.5s-38 -35 -56 -47c-2.66699 -2 -6.33398 -3 -11.001 -3c-5.33301 0 -8 2.66699 -8 8z" />
    <glyph glyph-name="uni06CB" unicode="&#x6cb;" horiz-adv-x="817" arabic-form="isolated" 
d="M534 283c0 10 -2.83105 21.5039 -8.49805 34.5039s-13.167 25.167 -22.5 36.5s-19.833 21 -31.5 29s-23.5 12 -35.5 12c-8.66699 0 -17.334 -3.33301 -26.001 -10s-16.334 -14.834 -23.001 -24.501s-12 -19.834 -16 -30.501s-6 -20.334 -6 -29.001
c0 -46.667 29 -70 87 -70c9.33301 0 18.833 1.66699 28.5 5s18.5 7.5 26.5 12.5s14.5 10.667 19.5 17s7.5 12.166 7.5 17.499zM661.002 212.004c0 -70.667 -11.001 -140.999 -33.001 -210.999s-56 -140.333 -102 -211c-46 -74.667 -91.833 -130.167 -137.5 -166.5
s-94.167 -54.5 -145.5 -54.5c-56 0 -113 10.833 -171 32.5s-114 52.5 -168 92.5c-5.33301 4 -8 8 -8 12c0 6 5 9 15 9c48.667 -4 93 -6 133 -6c73.333 0 140.5 10.833 201.5 32.5s114.5 52 160.5 91s83.833 85.667 113.5 140s49.5 114.166 59.5 179.499
c-20 -26.667 -41.333 -46.334 -64 -59.001s-48 -19 -76 -19c-21.333 0 -41.666 4 -60.999 12s-36.5 19.667 -51.5 35s-26.833 34 -35.5 56s-13 46.667 -13 74c0 25.333 4.83301 53.833 14.5 85.5s23.167 65.834 40.5 102.501c44.667 93.333 95.667 140 153 140
c24 0 46.667 -9.66699 68 -29s39.833 -45.833 55.5 -79.5s28.167 -72.667 37.5 -117s14 -91.5 14 -141.5zM556.001 1090c0 -2.66699 -4.33398 -9.33203 -13.001 -19.999s-19 -22.5 -31 -35.5s-24.667 -25.833 -38 -38.5s-24.666 -22.334 -33.999 -29.001
c-15.333 16.667 -33.333 34.834 -54 54.501l-70 63.5l122 121c78.667 -54.667 118 -93.334 118 -116.001zM673 831.007c0 -16 -40.334 -55.667 -121.001 -119l-49 48c-18.667 18 -40.334 36.667 -65.001 56l-24 -24l-30 -29.5l-33 -31.5l-33 -30
c-15.333 23.333 -33.166 45.333 -53.499 66s-42.166 39.667 -65.499 57l117 129c38 -20.667 80.333 -60.334 127 -119.001l53 59.5l54 59.5c13.333 -7.33301 27 -16.166 41 -26.499s28.333 -22.833 43 -37.5c26 -28.667 39 -48 39 -58z" />
    <glyph glyph-name="uni06CC" unicode="&#x6cc;" horiz-adv-x="1313" arabic-form="isolated" 
d="M1157 650c0 -10 -2.66602 -22.6689 -7.99902 -38.002s-11.833 -30.166 -19.5 -44.499s-15.834 -26.833 -24.501 -37.5s-16.667 -16 -24 -16c-3.33301 0 -14.5 1.5 -33.5 4.5s-42.5 5.16699 -70.5 6.5c-20.667 0 -43.334 -4.5 -68.001 -13.5s-49.5 -20.833 -74.5 -35.5
s-49.167 -31.167 -72.5 -49.5s-44 -37 -62 -56s-32.333 -37.167 -43 -54.5s-16 -32.333 -16 -45c0 -44.667 69 -81.667 207 -111c44 -8.66699 80 -18.167 108 -28.5s50.167 -22.333 66.5 -36s27.5 -29.5 33.5 -47.5s9 -39.667 9 -65c0 -64.667 -17 -127 -51 -187
s-84.333 -117.667 -151 -173c-72 -56.667 -148.5 -99.667 -229.5 -129s-168.167 -44 -261.5 -44c-69.333 0 -130.5 8.66699 -183.5 26s-97.333 42.333 -133 75s-62.5 72 -80.5 118s-27 98 -27 156c0 183.333 55.667 352.333 167 507c6 7.33301 13.333 11 22 11
c9.33301 0 14 -3.33301 14 -10c0 -4 -1.33301 -8 -4 -12c-38.667 -66 -67.667 -131 -87 -195s-29 -126 -29 -186c0 -209.333 123.333 -314 370 -314c58.667 0 116.834 5.5 174.501 16.5s113.5 26.167 167.5 45.5c33.333 13.333 64.333 29.166 93 47.499
s53.834 37.333 75.501 57s38.667 38.834 51 57.501s18.5 35 18.5 49c0 9.33301 -3 18.166 -9 26.499s-15 13.833 -27 16.5c-74.667 14.667 -134.167 27.167 -178.5 37.5s-74.833 18.5 -91.5 24.5c-82.667 29.333 -124 71.666 -124 126.999c0 136 60 270 180 402
c57.333 62.667 111.833 109.334 163.5 140.001s102.167 46 151.5 46c15.333 0 29.666 -1.83301 42.999 -5.5s25 -8.66699 35 -15s18 -13.666 24 -21.999s9 -17.166 9 -26.499z" />
    <glyph glyph-name="uni06D0" unicode="&#x6d0;" horiz-adv-x="1313" arabic-form="isolated" 
d="M430 -1113c-9.33301 0.666992 -23.668 11.499 -43.001 32.499s-44 51.833 -74 92.5c16 12.667 33.5 28 52.5 46s39.167 39.333 60.5 64l-49.5 53.5l-62.5 70.5c48.667 32 91 70.667 127 116l123 -120c-22 -37.333 -61.667 -78.666 -119 -123.999l55 -55l56 -55
c-6 -13.333 -15 -27 -27 -41s-24.5 -27 -37.5 -39s-25.167 -21.833 -36.5 -29.5s-19.666 -11.5 -24.999 -11.5zM1157 649.999c0 -10 -2.66602 -22.6689 -7.99902 -38.002s-11.833 -30.166 -19.5 -44.499s-15.834 -26.833 -24.501 -37.5s-16.667 -16 -24 -16
c-3.33301 0 -14.5 1.5 -33.5 4.5s-42.5 5.16699 -70.5 6.5c-20.667 0 -43.334 -4.5 -68.001 -13.5s-49.5 -20.833 -74.5 -35.5s-49.167 -31.167 -72.5 -49.5s-44 -37 -62 -56s-32.333 -37.167 -43 -54.5s-16 -32.333 -16 -45c0 -44.667 69 -81.667 207 -111
c44 -8.66699 80 -18.167 108 -28.5s50.167 -22.333 66.5 -36s27.5 -29.5 33.5 -47.5s9 -39.667 9 -65c0 -64.667 -17 -127 -51 -187s-84.333 -117.667 -151 -173c-72 -56.667 -148.5 -99.667 -229.5 -129s-168.167 -44 -261.5 -44c-69.333 0 -130.5 8.66699 -183.5 26
s-97.333 42.333 -133 75s-62.5 72 -80.5 118s-27 98 -27 156c0 183.333 55.667 352.333 167 507c6 7.33301 13.333 11 22 11c9.33301 0 14 -3.33301 14 -10c0 -4 -1.33301 -8 -4 -12c-38.667 -66 -67.667 -131 -87 -195s-29 -126 -29 -186c0 -209.333 123.333 -314 370 -314
c58.667 0 116.834 5.5 174.501 16.5s113.5 26.167 167.5 45.5c33.333 13.333 64.333 29.166 93 47.499s53.834 37.333 75.501 57s38.667 38.834 51 57.501s18.5 35 18.5 49c0 9.33301 -3 18.166 -9 26.499s-15 13.833 -27 16.5c-74.667 14.667 -134.167 27.167 -178.5 37.5
s-74.833 18.5 -91.5 24.5c-82.667 29.333 -124 71.666 -124 126.999c0 136 60 270 180 402c57.333 62.667 111.833 109.334 163.5 140.001s102.167 46 151.5 46c15.333 0 29.666 -1.83301 42.999 -5.5s25 -8.66699 35 -15s18 -13.666 24 -21.999s9 -17.166 9 -26.499z" />
    </font>
</defs>
</svg>
